<svg id="Слой_1" data-name="Слой 1" xmlns="http://www.w3.org/2000/svg" viewBox="0 0 696 378.03"><defs><style>.cls-1{fill:#8b7183;}.cls-2{fill:#a59eb0;}.cls-3{fill:#ba9aaa;}.cls-4{fill:#5e4b5d;}.cls-5{fill:#d6ced2;}.cls-6{fill:#827b8d;}.cls-7{fill:#b8adaa;}.cls-8{fill:#878092;}.cls-9{fill:#8b8183;}.cls-10{fill:#818084;}.cls-11{fill:#565573;}.cls-12{fill:#62495b;}.cls-13{fill:none;stroke:#333;stroke-miterlimit:10;stroke-width:9px;}</style></defs><title>башни близнецы 2</title><rect class="cls-1" x="366.76" y="262.03" width="13.65" height="116"/><rect class="cls-1" x="315.59" y="262.03" width="13.65" height="116"/><rect class="cls-1" x="213.24" y="262.03" width="13.65" height="116"/><rect class="cls-1" x="162.06" y="262.03" width="13.65" height="116"/><rect class="cls-1" x="264.41" y="262.03" width="13.65" height="116"/><rect class="cls-1" x="520.29" y="262.03" width="13.65" height="116"/><rect class="cls-1" x="469.12" y="262.03" width="13.65" height="116"/><rect class="cls-1" x="417.94" y="262.03" width="13.65" height="116"/><rect class="cls-2" x="143.29" y="294.44" width="18.76" height="83.59"/><rect class="cls-2" x="533.94" y="294.44" width="18.76" height="83.59"/><rect class="cls-3" x="143.29" y="279.09" width="409.41" height="15.35"/><rect class="cls-4" x="143.29" y="279.09" width="409.41" height="5.12"/><rect class="cls-5" x="3.41" y="263.74" width="47.76" height="114.29"/><rect class="cls-6" y="263.74" width="51.18" height="8.53"/><rect class="cls-7" x="51.18" y="226.21" width="44.35" height="151.82"/><rect class="cls-8" x="95.53" y="163.09" width="47.76" height="214.94"/><rect class="cls-2" x="90.41" y="125.56" width="58" height="37.53"/><rect class="cls-1" x="90.41" y="152.85" width="58" height="10.24"/><rect class="cls-5" x="808.82" y="580.24" width="47.76" height="114.29" transform="translate(1501.41 958.26) rotate(-180)"/><rect class="cls-6" x="644.82" y="263.74" width="51.18" height="8.53"/><rect class="cls-7" x="764.47" y="542.71" width="44.35" height="151.82" transform="translate(1409.29 920.74) rotate(-180)"/><rect class="cls-8" x="716.71" y="479.59" width="47.76" height="214.94" transform="translate(1317.18 857.62) rotate(-180)"/><rect class="cls-9" x="211.76" y="542.71" width="47.76" height="8.53" transform="translate(307.29 777.44) rotate(-180)"/><rect class="cls-9" x="764.47" y="542.71" width="47.76" height="8.53" transform="translate(1412.71 777.44) rotate(-180)"/><rect class="cls-2" x="711.59" y="442.06" width="58" height="37.53" transform="translate(1317.18 605.15) rotate(-180)"/><rect class="cls-1" x="711.59" y="469.35" width="58" height="10.24" transform="translate(1317.18 632.44) rotate(-180)"/><path class="cls-10" d="M34.82,291h2a2.41,2.41,0,0,1,2.41,2.41v12.94a0,0,0,0,1,0,0H32.41a0,0,0,0,1,0,0V293.44A2.41,2.41,0,0,1,34.82,291Z"/><path class="cls-10" d="M17.77,291h2a2.41,2.41,0,0,1,2.41,2.41v12.94a0,0,0,0,1,0,0H15.35a0,0,0,0,1,0,0V293.44A2.41,2.41,0,0,1,17.77,291Z"/><path class="cls-10" d="M676.24,291h2a2.41,2.41,0,0,1,2.41,2.41v12.94a0,0,0,0,1,0,0h-6.82a0,0,0,0,1,0,0V293.44A2.41,2.41,0,0,1,676.24,291Z"/><path class="cls-11" d="M584.12,176.74h2a2.41,2.41,0,0,1,2.41,2.41v12.94a0,0,0,0,1,0,0h-6.82a0,0,0,0,1,0,0V179.15A2.41,2.41,0,0,1,584.12,176.74Z"/><path class="cls-11" d="M575.59,291h2a2.41,2.41,0,0,1,2.41,2.41v12.94a0,0,0,0,1,0,0h-6.82a0,0,0,0,1,0,0V293.44A2.41,2.41,0,0,1,575.59,291Z"/><path class="cls-11" d="M575.59,253.5h2a2.41,2.41,0,0,1,2.41,2.41v12.94a0,0,0,0,1,0,0h-6.82a0,0,0,0,1,0,0V255.91A2.41,2.41,0,0,1,575.59,253.5Z"/><path class="cls-12" d="M621.65,291h2a2.41,2.41,0,0,1,2.41,2.41v12.94a0,0,0,0,1,0,0h-6.82a0,0,0,0,1,0,0V293.44A2.41,2.41,0,0,1,621.65,291Z"/><path class="cls-12" d="M621.65,253.5h2a2.41,2.41,0,0,1,2.41,2.41v12.94a0,0,0,0,1,0,0h-6.82a0,0,0,0,1,0,0V255.91A2.41,2.41,0,0,1,621.65,253.5Z"/><path class="cls-12" d="M72.35,291h2a2.41,2.41,0,0,1,2.41,2.41v12.94a0,0,0,0,1,0,0H69.94a0,0,0,0,1,0,0V293.44A2.41,2.41,0,0,1,72.35,291Z"/><path class="cls-12" d="M72.35,253.5h2a2.41,2.41,0,0,1,2.41,2.41v12.94a0,0,0,0,1,0,0H69.94a0,0,0,0,1,0,0V255.91A2.41,2.41,0,0,1,72.35,253.5Z"/><path class="cls-11" d="M118.41,291h2a2.41,2.41,0,0,1,2.41,2.41v12.94a0,0,0,0,1,0,0H116a0,0,0,0,1,0,0V293.44A2.41,2.41,0,0,1,118.41,291Z"/><path class="cls-11" d="M118.41,253.5h2a2.41,2.41,0,0,1,2.41,2.41v12.94a0,0,0,0,1,0,0H116a0,0,0,0,1,0,0V255.91A2.41,2.41,0,0,1,118.41,253.5Z"/><path class="cls-11" d="M567.06,176.74h2a2.41,2.41,0,0,1,2.41,2.41v12.94a0,0,0,0,1,0,0h-6.82a0,0,0,0,1,0,0V179.15A2.41,2.41,0,0,1,567.06,176.74Z"/><path class="cls-11" d="M126.94,176.74h2a2.41,2.41,0,0,1,2.41,2.41v12.94a0,0,0,0,1,0,0h-6.82a0,0,0,0,1,0,0V179.15a2.41,2.41,0,0,1,2.41-2.41Z"/><path class="cls-11" d="M109.88,176.74h2a2.41,2.41,0,0,1,2.41,2.41v12.94a0,0,0,0,1,0,0h-6.82a0,0,0,0,1,0,0V179.15a2.41,2.41,0,0,1,2.41-2.41Z"/><path class="cls-10" d="M659.18,291h2a2.41,2.41,0,0,1,2.41,2.41v12.94a0,0,0,0,1,0,0h-6.82a0,0,0,0,1,0,0V293.44A2.41,2.41,0,0,1,659.18,291Z"/><path class="cls-2" d="M646.76,610.94v83.59h6.83V665.36a40.77,40.77,0,0,1,11.94-28.83,40.77,40.77,0,0,1,11.94,28.83v29.17h6.82V610.94Z" transform="translate(-164 -316.5)"/><path class="cls-2" d="M595.59,610.94v83.59h6.82V665.36a40.81,40.81,0,0,1,11.94-28.83,40.77,40.77,0,0,1,11.94,28.83v29.17h6.83V610.94Z" transform="translate(-164 -316.5)"/><path class="cls-2" d="M544.41,610.94v83.59h6.83V665.36a40.77,40.77,0,0,1,11.94-28.83,40.81,40.81,0,0,1,11.94,28.83v29.17h6.82V610.94Z" transform="translate(-164 -316.5)"/><path class="cls-2" d="M493.24,610.94v83.59h6.82V665.36A40.77,40.77,0,0,1,512,636.53a40.77,40.77,0,0,1,11.94,28.83v29.17h6.82V610.94Z" transform="translate(-164 -316.5)"/><path class="cls-2" d="M442.06,610.94v83.59h6.82V665.36a40.81,40.81,0,0,1,11.94-28.83,40.77,40.77,0,0,1,11.94,28.83v29.17h6.83V610.94Z" transform="translate(-164 -316.5)"/><path class="cls-2" d="M390.88,610.94v83.59h6.83V665.36a40.77,40.77,0,0,1,11.94-28.83,40.81,40.81,0,0,1,11.94,28.83v29.17h6.82V610.94Z" transform="translate(-164 -316.5)"/><path class="cls-2" d="M339.71,610.94v83.59h6.82V665.36a40.77,40.77,0,0,1,11.94-28.83,40.77,40.77,0,0,1,11.94,28.83v29.17h6.83V610.94Z" transform="translate(-164 -316.5)"/><path class="cls-13" d="M512,642h19V628.7c-.55-4.15-9.5-7.52-9.5-7.52V548.93h17.29c0-33.48-2.06-55.75-6.48-88.92-5.11-38.34-21.26-71.21-41.2-105.95h0V621.51l.33,33.24s-5.36-.52-5.94-.62q-2.85-.45-5.65-1-4.77-.92-9.43-2.12-6-1.53-11.84-3.5c-4.45-1.49-8.83-3.18-13.11-5q-5.31-2.31-10.43-5t-10.1-5.69a167.61,167.61,0,0,1-79.57-125.57C334.63,403.72,419.56,315,522.47,321.32a167.64,167.64,0,0,1,36.87,328.14" transform="translate(-164 -316.5)"/></svg>