<svg id="Слой_1" data-name="Слой 1" xmlns="http://www.w3.org/2000/svg" viewBox="0 0 690.35 484.84"><defs><style>.cls-1{fill:#4e5f70;}.cls-2{fill:#999974;}.cls-3{fill:#cccca7;}.cls-4{fill:#666641;}.cls-5{fill:#cca7a7;}.cls-6{fill:#997474;}.cls-7{fill:#664141;}.cls-8{fill:#cca7cc;}.cls-9{fill:#997499;}.cls-10{fill:#664166;}.cls-11{fill:#dadaff;}.cls-12{fill:#a7a7cc;}.cls-13{fill:#747499;}.cls-14{fill:#a3bfab;}.cls-15{fill:#6d8071;}.cls-16{fill:#374039;}.cls-17{fill:#66412f;}.cls-18{fill:none;stroke:#333;stroke-miterlimit:10;stroke-width:9.12px;}</style></defs><title>белая гавань порт</title><path class="cls-1" d="M166.82,663.14c0,29.55,154.54,53.51,345.18,53.51s345.18-24,345.18-53.51c0-10-17.58-19.3-48.2-27.29-60.15-15.7-535.41-15.55-595.27.34C183.9,644.1,166.82,653.31,166.82,663.14Z" transform="translate(-166.82 -268.71)"/><polygon class="cls-2" points="519.41 219.99 312.92 219.99 347.34 178.31 485 178.31 519.41 219.99"/><rect class="cls-3" x="317.82" y="219.99" width="195.38" height="138.07"/><rect class="cls-4" x="330.85" y="274.7" width="15.63" height="20.84"/><rect class="cls-4" x="330.85" y="313.78" width="15.63" height="20.84"/><rect class="cls-4" x="330.85" y="236.92" width="15.63" height="20.84"/><rect class="cls-4" x="368.62" y="236.92" width="15.63" height="20.84"/><rect class="cls-4" x="407.7" y="236.92" width="15.63" height="20.84"/><rect class="cls-4" x="446.78" y="236.92" width="15.63" height="20.84"/><rect class="cls-4" x="484.55" y="236.92" width="15.63" height="20.84"/><rect class="cls-4" x="368.62" y="274.7" width="15.63" height="20.84"/><rect class="cls-4" x="407.7" y="274.7" width="15.63" height="20.84"/><rect class="cls-4" x="446.78" y="274.7" width="15.63" height="20.84"/><rect class="cls-4" x="484.55" y="274.7" width="15.63" height="20.84"/><rect class="cls-4" x="368.62" y="313.78" width="15.63" height="20.84"/><rect class="cls-4" x="407.7" y="313.78" width="15.63" height="20.84"/><rect class="cls-4" x="446.78" y="313.78" width="15.63" height="20.84"/><rect class="cls-4" x="484.55" y="313.78" width="15.63" height="20.84"/><rect class="cls-5" x="518.42" y="153.56" width="123.74" height="204.5"/><polygon class="cls-6" points="647.75 153.56 512.82 153.56 535.31 127.51 625.27 127.51 647.75 153.56"/><rect class="cls-7" x="534.05" y="179.61" width="10.42" height="20.84"/><rect class="cls-7" x="561.4" y="179.61" width="10.42" height="20.84"/><rect class="cls-7" x="588.76" y="179.61" width="10.42" height="20.84"/><rect class="cls-7" x="616.11" y="179.61" width="10.42" height="20.84"/><rect class="cls-7" x="534.05" y="217.39" width="10.42" height="20.84"/><rect class="cls-7" x="561.4" y="217.39" width="10.42" height="20.84"/><rect class="cls-7" x="588.76" y="217.39" width="10.42" height="20.84"/><rect class="cls-7" x="616.11" y="217.39" width="10.42" height="20.84"/><rect class="cls-7" x="534.05" y="256.46" width="10.42" height="20.84"/><rect class="cls-7" x="561.4" y="256.46" width="10.42" height="20.84"/><rect class="cls-7" x="588.76" y="256.46" width="10.42" height="20.84"/><rect class="cls-7" x="616.11" y="256.46" width="10.42" height="20.84"/><rect class="cls-7" x="534.05" y="295.54" width="10.42" height="20.84"/><rect class="cls-7" x="561.4" y="295.54" width="10.42" height="20.84"/><rect class="cls-7" x="588.76" y="295.54" width="10.42" height="20.84"/><rect class="cls-7" x="616.11" y="295.54" width="10.42" height="20.84"/><rect class="cls-8" x="401.19" y="256.46" width="186.27" height="101.6"/><polygon class="cls-9" points="593.97 256.46 394.68 256.46 427.89 225.2 560.75 225.2 593.97 256.46"/><rect class="cls-10" x="414.21" y="294.24" width="10.42" height="15.63"/><rect class="cls-10" x="414.21" y="321.59" width="10.42" height="15.63"/><rect class="cls-10" x="414.21" y="266.88" width="10.42" height="15.63"/><rect class="cls-10" x="451.99" y="266.88" width="10.42" height="15.63"/><rect class="cls-10" x="489.76" y="266.88" width="10.42" height="15.63"/><rect class="cls-10" x="527.54" y="266.88" width="10.42" height="15.63"/><rect class="cls-10" x="564.01" y="266.88" width="10.42" height="15.63"/><rect class="cls-10" x="451.99" y="294.24" width="10.42" height="15.63"/><rect class="cls-10" x="489.76" y="294.24" width="10.42" height="15.63"/><rect class="cls-10" x="527.54" y="294.24" width="10.42" height="15.63"/><rect class="cls-10" x="564.01" y="294.24" width="10.42" height="15.63"/><rect class="cls-10" x="451.99" y="321.59" width="10.42" height="15.63"/><rect class="cls-10" x="489.76" y="321.59" width="10.42" height="15.63"/><rect class="cls-10" x="527.54" y="321.59" width="10.42" height="15.63"/><rect class="cls-10" x="564.01" y="321.59" width="10.42" height="15.63"/><rect class="cls-11" x="46.89" y="219.99" width="168.03" height="138.07"/><polygon class="cls-12" points="218.76 219.99 43.05 219.99 72.34 178.31 189.47 178.31 218.76 219.99"/><rect class="cls-13" x="63.83" y="231.71" width="15.63" height="20.84"/><rect class="cls-13" x="102.9" y="231.71" width="15.63" height="20.84"/><rect class="cls-13" x="143.28" y="231.71" width="15.63" height="20.84"/><rect class="cls-13" x="183.66" y="231.71" width="15.63" height="20.84"/><rect class="cls-13" x="63.83" y="270.79" width="15.63" height="20.84"/><rect class="cls-13" x="102.9" y="270.79" width="15.63" height="20.84"/><rect class="cls-13" x="143.28" y="270.79" width="15.63" height="20.84"/><rect class="cls-13" x="183.66" y="270.79" width="15.63" height="20.84"/><rect class="cls-13" x="63.83" y="308.57" width="15.63" height="20.84"/><rect class="cls-13" x="102.9" y="308.57" width="15.63" height="20.84"/><rect class="cls-13" x="143.28" y="308.57" width="15.63" height="20.84"/><rect class="cls-13" x="183.66" y="308.57" width="15.63" height="20.84"/><rect class="cls-14" x="175.85" y="150.96" width="132.86" height="214.92"/><polygon class="cls-15" points="315.49 150.96 170.36 150.96 194.55 121 291.31 121 315.49 150.96"/><rect class="cls-16" x="195.38" y="203.06" width="15.63" height="20.84"/><rect class="cls-16" x="195.38" y="240.83" width="15.63" height="20.84"/><rect class="cls-16" x="195.38" y="163.98" width="15.63" height="20.84"/><rect class="cls-16" x="234.46" y="163.98" width="15.63" height="20.84"/><rect class="cls-16" x="273.54" y="163.98" width="15.63" height="20.84"/><rect class="cls-16" x="234.46" y="203.06" width="15.63" height="20.84"/><rect class="cls-16" x="273.54" y="203.06" width="15.63" height="20.84"/><rect class="cls-16" x="234.46" y="240.83" width="15.63" height="20.84"/><rect class="cls-16" x="273.54" y="240.83" width="15.63" height="20.84"/><rect class="cls-16" x="195.38" y="279.91" width="15.63" height="20.84"/><rect class="cls-16" x="234.46" y="279.91" width="15.63" height="20.84"/><rect class="cls-16" x="273.54" y="279.91" width="15.63" height="20.84"/><rect class="cls-5" x="168.03" y="256.46" width="153.7" height="101.6"/><polygon class="cls-6" points="333.95 256.46 154.51 256.46 184.41 225.2 304.04 225.2 333.95 256.46"/><rect class="cls-7" x="182.36" y="311.17" width="14.33" height="20.84"/><rect class="cls-7" x="182.36" y="273.4" width="14.33" height="20.84"/><rect class="cls-7" x="220.13" y="273.4" width="14.33" height="20.84"/><rect class="cls-7" x="256.6" y="273.4" width="14.33" height="20.84"/><rect class="cls-7" x="293.08" y="273.4" width="14.33" height="20.84"/><rect class="cls-7" x="220.13" y="311.17" width="14.33" height="20.84"/><rect class="cls-7" x="256.6" y="311.17" width="14.33" height="20.84"/><rect class="cls-7" x="293.08" y="311.17" width="14.33" height="20.84"/><rect class="cls-17" x="32.56" y="358.06" width="623.92" height="14.33"/><path class="cls-18" d="M494.66,377.42c-8.84-22.09-11-103.42-11-103.42-2.59,14.83-6.76,36.31-13.26,61.85-14.19,55.79-15.36,70.77-44.17,150.2-29.61,81.6-40.8,101.36-66.27,150.19-12,23-23.26,41.22-30.92,53L417.35,623a176.69,176.69,0,0,1-4.42,17.67,179.19,179.19,0,0,1-17.67,39.76c26.51-13.25,79.62-39.76,79.62-39.76v44.18c-16.48,3.39-112.95,8-128.21,8.83,1.12,8,4.13,20.23,13.25,30.93,10.46,12.26,27.18,16.86,44.18,22.08,3.23,1,5.94,1.73,7.83,2.21,44.83,0,160.34.07,205.17.11a36.19,36.19,0,0,0,9.82-1.34c11.69-3.3,18.11-12.28,22.36-16.44,14.55-14.24,32-46.48,42-50.8q2.22-8.83,4.42-17.67c-34.79.17-187.75,18.07-207.76,20.27V658.33c29.5-5,60.45-9.52,92.9-13.25,37.06-4.26,72.48-7.09,106-8.84A472.94,472.94,0,0,1,655.9,521.39c-3.1-22.6-4-41.38-4.42-70.69-.6-42.2-.13-100.53,4.42-172.28-50.06,38.28-61,37.49-111.12,75.78" transform="translate(-166.82 -268.71)"/></svg>