<svg id="Слой_1" data-name="Слой 1" xmlns="http://www.w3.org/2000/svg" viewBox="0 0 381.77 341.06"><defs><style>.cls-1{fill:#d1b1b1;}.cls-2{fill:#604240;}.cls-3{fill:#665252;}.cls-4{fill:#705656;}.cls-5{fill:#473231;}.cls-6{fill:#3b3131;}.cls-7{fill:#669;}.cls-8{fill:#855c5c;}.cls-9{fill:#595050;}.cls-10{fill:#4e4141;}.cls-11{fill:none;stroke:#333;stroke-miterlimit:10;stroke-width:9px;}</style></defs><title>бордельь</title><rect class="cls-1" x="40.54" y="173.35" width="300.76" height="135.14"/><rect class="cls-2" x="98.06" y="193.45" width="15.94" height="115.04"/><rect class="cls-2" x="267.84" y="193.45" width="15.94" height="115.04"/><rect class="cls-2" x="325.36" y="193.45" width="15.94" height="115.04"/><rect class="cls-2" x="40.54" y="193.45" width="15.94" height="115.04"/><rect class="cls-2" x="215.17" y="193.45" width="12.47" height="115.04"/><rect class="cls-2" x="154.19" y="193.45" width="12.47" height="115.04"/><rect class="cls-3" x="30.83" y="172.66" width="320.17" height="20.79"/><path class="cls-4" d="M493.27,657.15V581a17.43,17.43,0,0,1,17.41-17.4h1.92A17.42,17.42,0,0,1,530,581v76.16Z" transform="translate(-321.07 -344.5)"/><path class="cls-4" d="M512.6,565.67A15.34,15.34,0,0,1,527.92,581v74.08H495.35V581a15.35,15.35,0,0,1,15.33-15.32h1.92m0-4.16h-1.92A19.48,19.48,0,0,0,491.2,581v78.24h40.88V581a19.48,19.48,0,0,0-19.48-19.48Z" transform="translate(-321.07 -344.5)"/><path class="cls-5" d="M512.6,565.1A15.91,15.91,0,0,1,528.5,581v74.66H494.78V581a15.91,15.91,0,0,1,15.9-15.89h1.92m0-3.59h-1.92A19.48,19.48,0,0,0,491.2,581v78.24h40.88V581a19.48,19.48,0,0,0-19.48-19.48Z" transform="translate(-321.07 -344.5)"/><rect class="cls-6" x="30.83" y="307.8" width="320.17" height="6.93"/><rect class="cls-1" x="40.54" y="70.79" width="300.76" height="102.56"/><rect class="cls-3" x="38.46" y="71.48" width="304.92" height="18.71"/><rect class="cls-5" x="34.99" y="73.56" width="311.85" height="5.54"/><rect class="cls-5" x="30.83" y="167.81" width="320.17" height="6.24"/><path class="cls-7" d="M385.17,489.44V459.17a14.78,14.78,0,0,1,14.77-14.77h5.8a14.79,14.79,0,0,1,14.77,14.77v30.27Z" transform="translate(-321.07 -344.5)"/><path class="cls-4" d="M405.74,446.48a12.7,12.7,0,0,1,12.69,12.69v28.19H387.25V459.17a12.7,12.7,0,0,1,12.69-12.69h5.8m0-4.16h-5.8a16.84,16.84,0,0,0-16.85,16.85v32.35h39.5V459.17a16.85,16.85,0,0,0-16.85-16.85Z" transform="translate(-321.07 -344.5)"/><path class="cls-7" d="M382.39,629.43V578.15a15.94,15.94,0,0,1,31.88,0v51.28Z" transform="translate(-321.07 -344.5)"/><path class="cls-4" d="M398.33,563.59a14.57,14.57,0,0,1,14.56,14.56v49.9H383.78v-49.9a14.57,14.57,0,0,1,14.55-14.56m0-2.77h0A17.33,17.33,0,0,0,381,578.15v52.66h34.65V578.15a17.33,17.33,0,0,0-17.33-17.33Z" transform="translate(-321.07 -344.5)"/><path class="cls-7" d="M440.61,489.44V458.87a14.48,14.48,0,0,1,14.47-14.47h5a14.48,14.48,0,0,1,14.47,14.47v30.57Z" transform="translate(-321.07 -344.5)"/><path class="cls-4" d="M460.09,446.48a12.41,12.41,0,0,1,12.39,12.39v28.49H442.69V458.87a12.41,12.41,0,0,1,12.39-12.39h5m0-4.16h-5a16.55,16.55,0,0,0-16.55,16.55v32.65h38.11V458.87a16.55,16.55,0,0,0-16.55-16.55Z" transform="translate(-321.07 -344.5)"/><path class="cls-7" d="M439.22,629.43V578.15a15.94,15.94,0,0,1,31.88,0v51.28Z" transform="translate(-321.07 -344.5)"/><path class="cls-4" d="M455.16,563.59a14.57,14.57,0,0,1,14.56,14.56v49.9H440.6v-49.9a14.57,14.57,0,0,1,14.56-14.56m0-2.77h0a17.33,17.33,0,0,0-17.33,17.33v52.66h34.65V578.15a17.32,17.32,0,0,0-17.32-17.33Z" transform="translate(-321.07 -344.5)"/><path class="cls-7" d="M495.35,489.44V458.87a14.49,14.49,0,0,1,14.48-14.47h5a14.48,14.48,0,0,1,14.47,14.47v30.57Z" transform="translate(-321.07 -344.5)"/><path class="cls-4" d="M514.84,446.48a12.41,12.41,0,0,1,12.39,12.39v28.49h-29.8V458.87a12.41,12.41,0,0,1,12.4-12.39h5m0-4.16h-5a16.56,16.56,0,0,0-16.56,16.55v32.65h38.12V458.87a16.55,16.55,0,0,0-16.55-16.55Z" transform="translate(-321.07 -344.5)"/><path class="cls-7" d="M604.16,489.44V458.87a14.48,14.48,0,0,1,14.47-14.47h5a14.48,14.48,0,0,1,14.47,14.47v30.57Z" transform="translate(-321.07 -344.5)"/><path class="cls-4" d="M623.64,446.48A12.41,12.41,0,0,1,636,458.87v28.49h-29.8V458.87a12.41,12.41,0,0,1,12.4-12.39h5m0-4.16h-5a16.55,16.55,0,0,0-16.55,16.55v32.65h38.11V458.87a16.55,16.55,0,0,0-16.55-16.55Z" transform="translate(-321.07 -344.5)"/><path class="cls-7" d="M552.87,629.43V578.15a15.94,15.94,0,0,1,31.88,0v51.28Z" transform="translate(-321.07 -344.5)"/><path class="cls-4" d="M568.81,563.59a14.57,14.57,0,0,1,14.56,14.56v49.9H554.26v-49.9a14.57,14.57,0,0,1,14.55-14.56m0-2.77a17.32,17.32,0,0,0-17.32,17.33v52.66h34.65V578.15a17.33,17.33,0,0,0-17.33-17.33Z" transform="translate(-321.07 -344.5)"/><path class="cls-7" d="M549.41,489.44V459A14.64,14.64,0,0,1,564,444.4h5.4A14.64,14.64,0,0,1,584.06,459v30.42Z" transform="translate(-321.07 -344.5)"/><path class="cls-4" d="M569.43,446.48A12.56,12.56,0,0,1,582,459v28.34H551.49V459A12.55,12.55,0,0,1,564,446.48h5.4m0-4.16H564a16.7,16.7,0,0,0-16.7,16.7v32.5h38.81V459a16.71,16.71,0,0,0-16.71-16.7Z" transform="translate(-321.07 -344.5)"/><path class="cls-7" d="M609.7,629.43V578.15a15.94,15.94,0,0,1,31.88,0v51.28Z" transform="translate(-321.07 -344.5)"/><path class="cls-4" d="M625.64,563.59a14.57,14.57,0,0,1,14.55,14.56v49.9H611.08v-49.9a14.57,14.57,0,0,1,14.56-14.56m0-2.77h0a17.33,17.33,0,0,0-17.33,17.33v52.66H643V578.15a17.32,17.32,0,0,0-17.32-17.33Z" transform="translate(-321.07 -344.5)"/><polygon class="cls-8" points="34.97 73.56 346.86 73.56 306.09 20.89 75.74 20.89 34.97 73.56"/><rect class="cls-2" x="337.14" y="90.19" width="4.16" height="77.62"/><rect class="cls-2" x="40.54" y="90.19" width="4.16" height="77.62"/><rect class="cls-9" x="278.93" y="142.86" width="42.27" height="6.24"/><rect class="cls-9" x="224.18" y="142.86" width="42.27" height="6.24"/><rect class="cls-9" x="170.13" y="142.86" width="42.27" height="6.24"/><rect class="cls-9" x="115.38" y="142.86" width="42.27" height="6.24"/><rect class="cls-9" x="60.63" y="142.86" width="42.27" height="6.24"/><rect class="cls-10" x="56.48" y="280.08" width="41.58" height="6.24"/><rect class="cls-10" x="113.99" y="280.08" width="40.89" height="6.24"/><rect class="cls-10" x="226.95" y="280.08" width="40.89" height="6.24"/><rect class="cls-10" x="284.47" y="280.08" width="40.89" height="6.24"/><path class="cls-11" d="M512,681.54s100.14-50.07,143.26-119.17c21.34-34.18,60.38-96.73,34.65-154.16-12.73-28.4-45.11-59.55-91.23-59.21-35.1.27-86.68,53.31-86.68,53.31s-51.57-53-86.67-53.31c-46.12-.34-78.5,30.81-91.23,59.21-25.73,57.43,13.31,120,34.64,154.16,10.84,17.37,25.28,33.53,40.83,48" transform="translate(-321.07 -344.5)"/></svg>