<svg id="Слой_1" data-name="Слой 1" xmlns="http://www.w3.org/2000/svg" viewBox="0 0 690.46 511.91"><defs><style>.cls-1{fill:#868f89;}.cls-2{fill:#a39897;}.cls-3{fill:#bbaab2;}.cls-4{fill:#6d5961;}.cls-5{fill:#59474f;}.cls-6{fill:#665c64;}.cls-7{fill:#574d55;}.cls-8{fill:#8f858d;}.cls-9{fill:#6a5c64;}.cls-10{fill:#635058;}.cls-11{fill:#816b73;}.cls-12{fill:#908480;}.cls-13{fill:#92858d;}.cls-14{fill:none;stroke:#3d333b;stroke-miterlimit:10;stroke-width:9px;}</style></defs><title>горцы222</title><path class="cls-1" d="M856.91,504.57,508.7,555.38c-86.58,32.56-174.87,54.07-265.16,88-.35.68-22.56,29.9-22.56,29.34v33.16L166.44,768H856.91Z" transform="translate(-166.44 -256.09)"/><path class="cls-2" d="M856.91,502.12,508.49,552.93C421.87,585.49,657.77,603.74,676,609.38l180.95-7.1Z" transform="translate(-166.44 -256.09)"/><path class="cls-3" d="M776.25,452.37H674.54V375.23l.09,0a146.3,146.3,0,0,1,101.53,0l.09,0Z" transform="translate(-166.44 -256.09)"/><path class="cls-4" d="M776.25,375.57l0,0a146.3,146.3,0,0,0-101.61,0l-.05,0V394.4h.05a146.3,146.3,0,0,1,101.61,0h0Z" transform="translate(-166.44 -256.09)"/><path class="cls-5" d="M777.56,376.52h0a151.44,151.44,0,0,0-103.48,0h0l51.74-120.43Z" transform="translate(-166.44 -256.09)"/><path class="cls-6" d="M221,673.63v31.91l65.59,44.93H535.89c32.45-4.18,53.67-14.84,67.4-24.37,11.85-8.22,24.5-20,46.85-26.24a104.1,104.1,0,0,1,26.24-3.74c20.69-.59,61.18-6.79,137.27-24-21.86-13.12-46.06-24.75-67.93-37.87l-90-1.87H459a456.94,456.94,0,0,1-238,41.23Z" transform="translate(-166.44 -256.09)"/><path class="cls-7" d="M813.65,672.14c-4.32-2.53-61.49-35.37-65.82-37.91l-90.31-1.83H459.94a467,467,0,0,1-111,34.9,470.53,470.53,0,0,1-128,5.51v12.86a470.53,470.53,0,0,0,128-5.51,467,467,0,0,0,111-34.9H657.52l90.31,1.83Z" transform="translate(-166.44 -256.09)"/><path class="cls-8" d="M246.17,564.28q-.94,39.51-1.88,79a196.35,196.35,0,0,0,45.16,0c29.59-3.46,47.8-12.57,65.85-18.82,21.28-7.36,52.78-14.38,96-11.29V515.34c-21.83,4.76-39.28,9.7-50.81,13.19-51.61,15.62-71.27,28.52-111,33.87A241.13,241.13,0,0,1,246.17,564.28Z" transform="translate(-166.44 -256.09)"/><path class="cls-9" d="M451.27,515.34c-21.83,4.76-39.28,9.7-50.81,13.19-51.61,15.62-71.27,28.52-111,33.87a241.13,241.13,0,0,1-43.28,1.88l-.28,11.65s25,.25,43.56-2.24c39.74-5.35,59.4-18.25,111-33.87,11.53-3.49,29-8.43,50.81-13.19Z" transform="translate(-166.44 -256.09)"/><path class="cls-10" d="M559.51,139h0a4.65,4.65,0,0,1,4.65,4.65v16.94a.62.62,0,0,1-.62.62h-8.11a.62.62,0,0,1-.62-.62V143.65A4.65,4.65,0,0,1,559.51,139Z"/><path class="cls-11" d="M190.11,309.67h0a4.65,4.65,0,0,1,4.65,4.65v16.94a.62.62,0,0,1-.62.62h-8.11a.62.62,0,0,1-.62-.62V314.33A4.65,4.65,0,0,1,190.11,309.67Z"/><path class="cls-11" d="M124.65,329.55h0a4.65,4.65,0,0,1,4.65,4.65v16.94a.62.62,0,0,1-.62.62h-8.11a.62.62,0,0,1-.62-.62V334.2a4.65,4.65,0,0,1,4.65-4.65Z"/><path class="cls-11" d="M257.91,289.8h0a4.65,4.65,0,0,1,4.65,4.65v16.94a.62.62,0,0,1-.62.62h-8.11a.62.62,0,0,1-.62-.62V294.45a4.65,4.65,0,0,1,4.65-4.65Z"/><path class="cls-6" d="M856.91,435.32,771,441.92l-152.39,3.77L547.12,489V615.17a447.29,447.29,0,0,0,127.42-5.85V562.4l71.69-11.32,35.85-35.85,74.83-13Z" transform="translate(-166.44 -256.09)"/><path class="cls-12" d="M643.68,206.8h0a4.65,4.65,0,0,1,4.65,4.65v16.94a.62.62,0,0,1-.62.62h-8.11a.62.62,0,0,1-.62-.62V211.46a4.65,4.65,0,0,1,4.65-4.65Z"/><path class="cls-12" d="M508.08,212.65h0a4.65,4.65,0,0,1,4.65,4.65v16.94a.62.62,0,0,1-.62.62H504a.62.62,0,0,1-.62-.62V217.3a4.65,4.65,0,0,1,4.65-4.65Z"/><path class="cls-12" d="M426.25,234.86h0a4.65,4.65,0,0,1,4.65,4.65v16.94a.62.62,0,0,1-.62.62h-8.11a.62.62,0,0,1-.62-.62V239.51A4.65,4.65,0,0,1,426.25,234.86Z"/><path class="cls-13" d="M856.91,435.36l-85.49,6.56-152.67,3.76L547.12,489v13.17l71.63-43.27,152.67-3.76,85.49-6.56Z" transform="translate(-166.44 -256.09)"/><path class="cls-3" d="M548.29,614.86h0a159.83,159.83,0,0,1-97.85-1.05l-.34-.12v-144l.34-.08a217.5,217.5,0,0,1,97.51,0l.34.08Z" transform="translate(-166.44 -256.09)"/><path class="cls-4" d="M548.29,469.21l-.17,0a217.56,217.56,0,0,0-97.85,0l-.17,0v18.88l.17,0a217.56,217.56,0,0,1,97.85,0l.17,0Z" transform="translate(-166.44 -256.09)"/><path class="cls-14" d="M552.34,645,518,627.46a355.13,355.13,0,0,0,82.89-90.84c63.81-101.05,53.1-200.51,48.71-230.24a378.1,378.1,0,0,1-79.16,177.29,403.49,403.49,0,0,1-111.67,95.48,403.62,403.62,0,0,1-112.6-96A378.1,378.1,0,0,1,267,305.84c-4.4,29.73-15.11,129.19,48.71,230.24a355.65,355.65,0,0,0,83.73,91.5L287.26,684.64a10.4,10.4,0,0,0-12.64-2.52l-7.47,3.81a9.21,9.21,0,0,0-4.07,12.83l18.49,32.48a10.32,10.32,0,0,0,13.57,3.85l7.47-3.8a9.25,9.25,0,0,0,4.6-11.73l121.45-61.79,10.23,17c5.35-2.37,12.11-5.52,19.91-9.54,7.35,3.76,13.75,6.73,18.86,9l10.23-17L609.34,719a9.24,9.24,0,0,0,4.6,11.73l7.47,3.8A10.32,10.32,0,0,0,635,730.7l18.49-32.49a9.21,9.21,0,0,0-4.07-12.83l-7.47-3.8a10.4,10.4,0,0,0-12.64,2.52" transform="translate(-166.44 -256.09)"/><path class="cls-10" d="M333.9,232.52h0a4.65,4.65,0,0,1,4.65,4.65v16.94a.62.62,0,0,1-.62.62h-8.11a.62.62,0,0,1-.62-.62V237.17a4.65,4.65,0,0,1,4.65-4.65Z"/></svg>