<svg id="Слой_1" data-name="Слой 1" xmlns="http://www.w3.org/2000/svg" xmlns:xlink="http://www.w3.org/1999/xlink" viewBox="0 0 546 371.6"><defs><style>.cls-1{fill:#857575;}.cls-2{fill:#605656;}.cls-3{clip-path:url(#clip-path);}.cls-4{fill:#665252;}.cls-5{fill:#403939;}.cls-6{fill:#514141;}.cls-12,.cls-7{fill:none;}.cls-8{fill:#595050;}.cls-9{fill:#746767;}.cls-10{fill:#433c3c;}.cls-11{fill:#b3a1a1;}.cls-12{stroke:#333;stroke-miterlimit:10;stroke-width:9px;}</style><clipPath id="clip-path" transform="translate(-239 -329.58)"><polygon class="cls-1" points="778.58 676.16 778.58 501.38 622.02 408.81 402.99 408.81 245.68 501.38 245.68 676.16 402.99 689.39 622.02 689.39 778.58 676.16"/></clipPath></defs><title>драконий камень — копия</title><path class="cls-2" d="M755.49,673.19V463.61l-143.4-111-1.45-.4a375.63,375.63,0,0,0-199.16.4h0l-144.08,111V673.19L411.48,689H612.09Z" transform="translate(-239 -329.58)"/><polygon class="cls-1" points="539.58 346.58 539.58 171.79 383.02 79.23 163.99 79.23 6.68 171.79 6.68 346.58 163.99 359.81 383.02 359.81 539.58 346.58"/><g class="cls-3"><polygon class="cls-1" points="539.45 346.66 539.45 171.87 382.89 79.3 163.86 79.3 6.55 171.87 6.55 346.66 163.86 359.88 382.89 359.88 539.45 346.66"/><rect class="cls-4" x="102.74" y="109.29" width="2.72" height="262.31"/><rect class="cls-4" x="42.4" y="109.29" width="2.72" height="262.31"/><rect class="cls-4" x="499.16" y="109.29" width="2.72" height="262.31"/><rect class="cls-4" x="438.82" y="109.29" width="2.72" height="262.31"/></g><polygon class="cls-5" points="383.02 70.26 163.99 70.26 6.68 162.83 6.68 171.79 163.99 79.23 383.02 79.23 539.58 171.79 539.58 162.83 383.02 70.26"/><polygon class="cls-6" points="382.6 197.53 163.94 197.53 6.89 252.21 6.89 257.51 163.94 202.82 382.6 202.82 538.89 257.51 538.89 252.21 382.6 197.53"/><rect class="cls-7" x="163.73" y="79.23" width="219.36" height="280.58"/><path class="cls-8" d="M510.41,569.43h0c-24.79,0-44.88,19.65-44.88,43.88v76.25h89.76V613.31C555.29,589.08,535.19,569.43,510.41,569.43Z" transform="translate(-239 -329.58)"/><path class="cls-9" d="M270.11,246.06h2.59a38,38,0,0,1,38,38v75.75a0,0,0,0,1,0,0H232.11a0,0,0,0,1,0,0V284.06a38,38,0,0,1,38-38Z"/><path class="cls-6" d="M269.67,87.84h3.48a6.63,6.63,0,0,1,6.63,6.63v22.4a0,0,0,0,1,0,0H263a0,0,0,0,1,0,0V94.47A6.63,6.63,0,0,1,269.67,87.84Z"/><path class="cls-6" d="M336,87.84h3.48a6.63,6.63,0,0,1,6.63,6.63v22.4a0,0,0,0,1,0,0H329.33a0,0,0,0,1,0,0V94.47A6.63,6.63,0,0,1,336,87.84Z"/><path class="cls-6" d="M203.37,87.84h3.48a6.63,6.63,0,0,1,6.63,6.63v22.4a0,0,0,0,1,0,0H196.74a0,0,0,0,1,0,0V94.47a6.63,6.63,0,0,1,6.63-6.63Z"/><path class="cls-6" d="M269.67,143h3.48a6.63,6.63,0,0,1,6.63,6.63V172a0,0,0,0,1,0,0H263a0,0,0,0,1,0,0v-22.4A6.63,6.63,0,0,1,269.67,143Z"/><path class="cls-6" d="M336,143h3.48a6.63,6.63,0,0,1,6.63,6.63V172a0,0,0,0,1,0,0H329.33a0,0,0,0,1,0,0v-22.4A6.63,6.63,0,0,1,336,143Z"/><path class="cls-6" d="M203.37,143h3.48a6.63,6.63,0,0,1,6.63,6.63V172a0,0,0,0,1,0,0H196.74a0,0,0,0,1,0,0v-22.4A6.63,6.63,0,0,1,203.37,143Z"/><path class="cls-10" d="M341.57,35h0a8.64,8.64,0,0,1,8.64,8.64V61.56a0,0,0,0,1,0,0H332.93a0,0,0,0,1,0,0V43.61A8.64,8.64,0,0,1,341.57,35Z"/><path class="cls-10" d="M272.44,28.64h0a8.64,8.64,0,0,1,8.64,8.64V55.23a0,0,0,0,1,0,0H263.8a0,0,0,0,1,0,0V37.28A8.64,8.64,0,0,1,272.44,28.64Z"/><path class="cls-10" d="M203.31,35h0A8.64,8.64,0,0,1,212,43.61V61.56a0,0,0,0,1,0,0H194.67a0,0,0,0,1,0,0V43.61A8.64,8.64,0,0,1,203.31,35Z"/><path class="cls-5" d="M267.27,466V464L409.71,349.17l.65-.18a378.94,378.94,0,0,1,200.9-.4l2.12.58.54.42L755.83,464V466L610.24,355.46l-.79-.22a372.11,372.11,0,0,0-196.6.21Z" transform="translate(-239 -329.58)"/><rect class="cls-11" x="210.05" y="231.58" width="11.03" height="128.23"/><rect class="cls-11" x="321.73" y="231.58" width="11.03" height="128.23"/><rect class="cls-5" x="203.85" y="222.62" width="135.12" height="8.96"/><rect class="cls-8" x="199.71" y="213.66" width="143.39" height="8.96"/><rect class="cls-11" x="163.73" y="203.05" width="9.65" height="156.84"/><rect class="cls-11" x="163.73" y="78.95" width="9.65" height="113.75"/><rect class="cls-11" x="373.31" y="203.05" width="9.65" height="156.84"/><rect class="cls-11" x="373.31" y="78.95" width="9.65" height="113.75"/><polygon class="cls-8" points="382.6 192.71 163.94 192.71 6.89 247.39 6.89 252.68 163.94 198 382.6 198 538.89 252.68 538.89 247.39 382.6 192.71"/><path class="cls-12" d="M293.4,464.12c-2.85-11.06-4.49-27.46-4.49-41.31,0-40.58,14.1-73.47,31.49-73.47s31.48,32.89,31.48,73.47-14.09,76.92-31.48,76.92H288.91c-17.39,0-31.49-35.54-31.49-79.38s19.5-86.27,31.49-86.27H489.65c22.18.06,34.31,25.87,20.2,43L307.17,623c-14.12,17.13-1.94,43,20.26,43l180.15.07A67.3,67.3,0,1,0,446,626" transform="translate(-239 -329.58)"/><rect class="cls-4" x="538.42" y="161.68" width="7.58" height="184.76"/><rect class="cls-4" y="161.68" width="7.58" height="184.76"/></svg>