<svg id="Слой_1" data-name="Слой 1" xmlns="http://www.w3.org/2000/svg" viewBox="0 0 582.62 292.02"><defs><style>.cls-1{fill:#5c5c85;}.cls-2{fill:#caad9f;}.cls-3{fill:#3b483b;}.cls-4{fill:#483a41;}.cls-5{fill:#71646d;}.cls-6{fill:#642e3b;}.cls-7{fill:#54404d;}.cls-8{fill:#68515e;}.cls-9{fill:#483441;}.cls-10{fill:#382633;}.cls-11{fill:#41323a;}.cls-12{fill:#515065;}.cls-13{fill:#6c6b86;}.cls-14{fill:#8d9e8d;}.cls-15{fill:#656b6a;}.cls-16{fill:none;stroke:#333;stroke-miterlimit:10;stroke-width:9px;}</style></defs><title>железные острова</title><ellipse class="cls-1" cx="290.69" cy="240.98" rx="290.69" ry="51.04"/><path class="cls-2" d="M271.11,508.62l63.49-21.79L381.91,452l49.17-26.77,31.75,12.45q17.73,24,35.48,47.93l34.85,13.69,39.84.63q2.81,14.63,5.6,29.25c-30.69,12.28-95.91,75.16-158.72,76.56-60.18,1.35-69.72-32.36-90.26-54.15C321.32,542,271.11,508.62,271.11,508.62Z" transform="translate(-220.69 -363.5)"/><path class="cls-3" d="M624.66,412.76l-72.2,19.3-24.28,33.61-56,33-72.82,24.28c-13.7,14.94-128.85,21.16-142.55,36.1-122.62,45.44,227.52,23.83,303.76,23.65,73.66-.17,218.48,31.54,242.76-8.92-5-12.24-56.64-30.5-61.62-42.74l-57.27-31.12-26.14-54.16Z" transform="translate(-220.69 -363.5)"/><rect class="cls-4" x="259.56" y="179.36" width="291.31" height="12.45"/><rect class="cls-5" x="228.44" y="160.68" width="322.43" height="4.36"/><path class="cls-6" d="M484,610.08H284.29C272.54,610.08,263,593,263,580.31V528.54H468c8.84,0,16,7.76,16,17.33Z" transform="translate(-220.69 -363.5)"/><path class="cls-7" d="M484,610.08H730.73c22.55,0,40.83-54.78,40.83-54.78H484Z" transform="translate(-220.69 -363.5)"/><path class="cls-8" d="M451,528.54H260.86a9.67,9.67,0,0,1-9.67-9.67V487.46h165c19.25,0,34.86,21.83,34.86,41.08Z" transform="translate(-220.69 -363.5)"/><path class="cls-9" d="M448.78,515.47A41.72,41.72,0,0,1,451,528.54H260.86a9.67,9.67,0,0,1-9.67-9.67v-3.4Z" transform="translate(-220.69 -363.5)"/><rect class="cls-10" x="306.25" y="206.12" width="9.34" height="9.34" rx="4.67"/><rect class="cls-10" x="389.03" y="206.12" width="9.34" height="9.34" rx="4.67"/><rect class="cls-10" x="347.59" y="206.12" width="9.34" height="9.34" rx="4.67"/><rect class="cls-10" x="472.44" y="206.12" width="9.34" height="9.34" rx="4.67"/><rect class="cls-10" x="431" y="206.12" width="9.34" height="9.34" rx="4.67"/><path class="cls-11" d="M71.77,174.16h4.48a7,7,0,0,1,7,7v13.21a0,0,0,0,1,0,0H64.82a0,0,0,0,1,0,0V181.12A7,7,0,0,1,71.77,174.16Z"/><path class="cls-11" d="M131,174.16h4.48a7,7,0,0,1,7,7v13.21a0,0,0,0,1,0,0H124a0,0,0,0,1,0,0V181.12A7,7,0,0,1,131,174.16Z"/><path class="cls-11" d="M190.19,174.16h4.48a7,7,0,0,1,7,7v13.21a0,0,0,0,1,0,0H183.24a0,0,0,0,1,0,0V181.12A7,7,0,0,1,190.19,174.16Z"/><path class="cls-12" d="M72.37,176.87h3.28A5.09,5.09,0,0,1,80.73,182v9.67a0,0,0,0,1,0,0H67.28a0,0,0,0,1,0,0V182A5.09,5.09,0,0,1,72.37,176.87Z"/><path class="cls-12" d="M131.46,176.87h3.28a5.09,5.09,0,0,1,5.09,5.09v9.67a0,0,0,0,1,0,0H126.37a0,0,0,0,1,0,0V182A5.09,5.09,0,0,1,131.46,176.87Z"/><path class="cls-12" d="M190.55,176.87h3.28a5.09,5.09,0,0,1,5.09,5.09v9.67a0,0,0,0,1,0,0H185.46a0,0,0,0,1,0,0V182A5.09,5.09,0,0,1,190.55,176.87Z"/><rect class="cls-4" x="51.04" y="128.31" width="19.92" height="19.92"/><rect class="cls-4" x="94.61" y="128.31" width="19.92" height="19.92"/><rect class="cls-4" x="138.19" y="128.31" width="19.92" height="19.92"/><rect class="cls-13" x="97.57" y="131.81" width="14" height="12.93"/><rect class="cls-13" x="141.24" y="131.81" width="14" height="12.93"/><rect class="cls-13" x="53.9" y="131.81" width="14" height="12.93"/><rect class="cls-9" x="30.5" y="116.61" width="185.49" height="7.34"/><rect class="cls-5" x="541.54" y="165.04" width="9.34" height="14.32"/><rect class="cls-5" x="491.12" y="165.04" width="9.34" height="14.32"/><rect class="cls-5" x="440.7" y="165.04" width="9.34" height="14.32"/><rect class="cls-5" x="390.28" y="165.04" width="9.34" height="14.32"/><rect class="cls-5" x="339.86" y="165.04" width="9.34" height="14.32"/><rect class="cls-5" x="289.44" y="165.04" width="9.34" height="14.32"/><path class="cls-14" d="M384,456l46.63-25.44-28.83,24.59Z" transform="translate(-220.69 -363.5)"/><path class="cls-15" d="M559.71,434.62l46.19,2.57,16-19.25Z" transform="translate(-220.69 -363.5)"/><path class="cls-16" d="M554.89,485l-35.3-20.39v40.77l12.82-13.57s16.6,20.31,24.34,25q17.57,10.56,41.16,10.56,36.42,0,59.39-22.19t23-57.58q0-35.38-23.18-57.48T597,368q-22.51,0-40.06,10.56a68.7,68.7,0,0,0-26.83,29.91l-38.4,78q-9.06,19.74-26.6,30.3T424,527.34q-36.42,0-59.39-22.19t-22.95-57.58q0-35.38,23.17-57.48T424.86,368q22.5,0,40.06,10.56a67.38,67.38,0,0,1,22.37,21.87l12.82-13.57v40.76l-35.3-20.38" transform="translate(-220.69 -363.5)"/></svg>