<svg id="Слой_1" data-name="Слой 1" xmlns="http://www.w3.org/2000/svg" viewBox="0 0 694.76 544.27"><defs><style>.cls-1{fill:#372722;}.cls-2{fill:#96735d;}.cls-3{fill:#675347;}.cls-4{fill:#362621;}.cls-5{fill:#45312a;}.cls-6{fill:#6b5746;}.cls-7{fill:#6b5141;}.cls-8{fill:#3d384a;}.cls-9{fill:none;stroke:#333;stroke-miterlimit:10;stroke-width:9px;}</style></defs><title>замок дредфурд</title><polygon class="cls-1" points="512 331.77 430.51 331.77 430.51 276.71 485.99 276.71 512 331.77"/><rect class="cls-2" x="135.43" y="265.7" width="278.56" height="268.65"/><rect class="cls-3" x="138.73" y="406.64" width="271.96" height="6.61"/><rect class="cls-4" x="138.73" y="258" width="271.96" height="7.71"/><rect class="cls-4" x="78.17" y="367" width="39.64" height="6.61"/><rect class="cls-5" x="117.81" y="250.29" width="20.92" height="284.07"/><rect class="cls-5" x="190.48" y="250.29" width="20.92" height="284.07"/><rect class="cls-5" x="264.25" y="250.29" width="20.92" height="284.07"/><rect class="cls-5" x="336.92" y="250.29" width="20.92" height="284.07"/><rect class="cls-5" x="410.69" y="250.29" width="20.92" height="284.07"/><rect class="cls-6" x="115.61" y="216.16" width="25.32" height="34.13"/><rect class="cls-6" x="188.28" y="216.16" width="25.32" height="34.13"/><rect class="cls-6" x="262.05" y="216.16" width="25.32" height="34.13"/><rect class="cls-6" x="334.72" y="216.16" width="25.32" height="34.13"/><path class="cls-7" d="M708,547.25V771.86h19.49V656.48c0-19.4,16.18-35.12,36.13-35.12h0c20,0,36.13,15.72,36.13,35.12V771.86h18.35V547.25Z" transform="translate(-164.12 -237.5)"/><rect class="cls-6" x="408.49" y="216.16" width="25.32" height="34.13"/><polygon class="cls-1" points="115.61 216.16 140.93 216.16 128.27 159.27 115.61 216.16"/><polygon class="cls-1" points="188.33 216.16 213.6 216.16 200.97 159.27 188.33 216.16"/><polygon class="cls-1" points="262.05 216.16 287.45 216.16 274.75 159.27 262.05 216.16"/><polygon class="cls-1" points="334.86 216.16 360.04 216.16 347.45 159.27 334.86 216.16"/><polygon class="cls-1" points="408.12 216.16 433.98 216.16 421.05 159.27 408.12 216.16"/><rect class="cls-2" x="431.61" y="331.77" width="80.38" height="202.59"/><rect class="cls-7" x="78.17" y="373.61" width="39.64" height="160.75"/><rect class="cls-2" x="8.81" y="325.16" width="69.37" height="209.2"/><rect class="cls-1" x="543.91" y="303.14" width="110.1" height="6.61"/><path class="cls-7" d="M43.45,275.61h.09a34.64,34.64,0,0,1,34.64,34.64v14.91a0,0,0,0,1,0,0H8.81a0,0,0,0,1,0,0V310.25A34.64,34.64,0,0,1,43.45,275.61Z"/><rect class="cls-5" x="511.98" y="287.72" width="34.13" height="246.63"/><rect class="cls-5" x="651.82" y="287.72" width="34.13" height="246.63"/><rect class="cls-1" x="508.68" y="272.31" width="41.84" height="15.41"/><rect class="cls-1" x="648.51" y="272.31" width="41.84" height="15.41"/><path class="cls-8" d="M454.18,436.36h0a2.75,2.75,0,0,1,2.75,2.75v22.57a0,0,0,0,1,0,0h-5.51a0,0,0,0,1,0,0V439.12A2.75,2.75,0,0,1,454.18,436.36Z"/><path class="cls-8" d="M489.41,436.36h0a2.75,2.75,0,0,1,2.75,2.75v22.57a0,0,0,0,1,0,0h-5.51a0,0,0,0,1,0,0V439.12A2.75,2.75,0,0,1,489.41,436.36Z"/><path class="cls-8" d="M454.18,354.89h0a2.75,2.75,0,0,1,2.75,2.75v22.57a0,0,0,0,1,0,0h-5.51a0,0,0,0,1,0,0V357.64A2.75,2.75,0,0,1,454.18,354.89Z"/><path class="cls-8" d="M489.41,354.89h0a2.75,2.75,0,0,1,2.75,2.75v22.57a0,0,0,0,1,0,0h-5.51a0,0,0,0,1,0,0V357.64A2.75,2.75,0,0,1,489.41,354.89Z"/><path class="cls-8" d="M28.08,406.64h0a2.75,2.75,0,0,1,2.75,2.75v16a0,0,0,0,1,0,0H25.32a0,0,0,0,1,0,0v-16a2.75,2.75,0,0,1,2.75-2.75Z"/><path class="cls-8" d="M58.91,406.64h0a2.75,2.75,0,0,1,2.75,2.75v16a0,0,0,0,1,0,0H56.15a0,0,0,0,1,0,0v-16A2.75,2.75,0,0,1,58.91,406.64Z"/><path class="cls-8" d="M28.08,347.18h0a2.75,2.75,0,0,1,2.75,2.75v16a0,0,0,0,1,0,0H25.32a0,0,0,0,1,0,0v-16A2.75,2.75,0,0,1,28.08,347.18Z"/><path class="cls-8" d="M58.91,347.18h0a2.75,2.75,0,0,1,2.75,2.75v16a0,0,0,0,1,0,0H56.15a0,0,0,0,1,0,0v-16A2.75,2.75,0,0,1,58.91,347.18Z"/><path class="cls-1" d="M598.42,321.86h0a2.75,2.75,0,0,1,2.75,2.75v22.57a0,0,0,0,1,0,0h-5.51a0,0,0,0,1,0,0V324.61A2.75,2.75,0,0,1,598.42,321.86Z"/><path class="cls-8" d="M367.2,277.81h0a2.75,2.75,0,0,1,2.75,2.75v22.57a0,0,0,0,1,0,0h-5.51a0,0,0,0,1,0,0V280.57A2.75,2.75,0,0,1,367.2,277.81Z"/><path class="cls-8" d="M402.43,277.81h0a2.75,2.75,0,0,1,2.75,2.75v22.57a0,0,0,0,1,0,0h-5.51a0,0,0,0,1,0,0V280.57A2.75,2.75,0,0,1,402.43,277.81Z"/><path class="cls-8" d="M383.71,364.8h0a2.75,2.75,0,0,1,2.75,2.75v22.57a0,0,0,0,1,0,0H381a0,0,0,0,1,0,0V367.55A2.75,2.75,0,0,1,383.71,364.8Z"/><path class="cls-8" d="M293.43,277.81h0a2.75,2.75,0,0,1,2.75,2.75v22.57a0,0,0,0,1,0,0h-5.51a0,0,0,0,1,0,0V280.57A2.75,2.75,0,0,1,293.43,277.81Z"/><path class="cls-8" d="M328.66,277.81h0a2.75,2.75,0,0,1,2.75,2.75v22.57a0,0,0,0,1,0,0h-5.51a0,0,0,0,1,0,0V280.57A2.75,2.75,0,0,1,328.66,277.81Z"/><path class="cls-8" d="M311,364.8h0a2.75,2.75,0,0,1,2.75,2.75v22.57a0,0,0,0,1,0,0h-5.51a0,0,0,0,1,0,0V367.55A2.75,2.75,0,0,1,311,364.8Z"/><path class="cls-8" d="M220.76,277.81h0a2.75,2.75,0,0,1,2.75,2.75v22.57a0,0,0,0,1,0,0H218a0,0,0,0,1,0,0V280.57A2.75,2.75,0,0,1,220.76,277.81Z"/><path class="cls-8" d="M256,277.81h0a2.75,2.75,0,0,1,2.75,2.75v22.57a0,0,0,0,1,0,0h-5.51a0,0,0,0,1,0,0V280.57A2.75,2.75,0,0,1,256,277.81Z"/><path class="cls-8" d="M237.27,364.8h0a2.75,2.75,0,0,1,2.75,2.75v22.57a0,0,0,0,1,0,0h-5.51a0,0,0,0,1,0,0V367.55a2.75,2.75,0,0,1,2.75-2.75Z"/><path class="cls-8" d="M147,277.81h0a2.75,2.75,0,0,1,2.75,2.75v22.57a0,0,0,0,1,0,0h-5.51a0,0,0,0,1,0,0V280.57a2.75,2.75,0,0,1,2.75-2.75Z"/><path class="cls-8" d="M182.22,277.81h0a2.75,2.75,0,0,1,2.75,2.75v22.57a0,0,0,0,1,0,0h-5.51a0,0,0,0,1,0,0V280.57a2.75,2.75,0,0,1,2.75-2.75Z"/><path class="cls-8" d="M164.61,364.8h0a2.75,2.75,0,0,1,2.75,2.75v22.57a0,0,0,0,1,0,0h-5.51a0,0,0,0,1,0,0V367.55A2.75,2.75,0,0,1,164.61,364.8Z"/><path class="cls-1" d="M98,384.62h0a3.3,3.3,0,0,1,3.3,3.3v22a0,0,0,0,1,0,0H94.69a0,0,0,0,1,0,0v-22a3.3,3.3,0,0,1,3.3-3.3Z"/><path class="cls-1" d="M98,467.19h0a3.3,3.3,0,0,1,3.3,3.3v22a0,0,0,0,1,0,0H94.69a0,0,0,0,1,0,0v-22A3.3,3.3,0,0,1,98,467.19Z"/><rect class="cls-1" x="8.81" y="318.55" width="69.37" height="6.61"/><rect class="cls-1" y="534.36" width="694.76" height="9.91"/><rect class="cls-3" x="8.81" y="441.87" width="69.37" height="6.61"/><rect class="cls-3" x="431.61" y="478.2" width="80.38" height="6.61"/><rect class="cls-6" x="431.61" y="331.77" width="80.38" height="6.61"/><path class="cls-9" d="M261.52,352.18a39.86,39.86,0,0,1,78.89,0H442.84a70.14,70.14,0,0,1,139.75,0H683.5a39.86,39.86,0,0,1,78.89,0h52.45V242H210V475.25H814.84V363.9H762.35a39.86,39.86,0,0,1-78.8,0H582.63a70.14,70.14,0,0,1-139.83,0H340.36" transform="translate(-164.12 -237.5)"/></svg>