<svg id="Слой_1" data-name="Слой 1" xmlns="http://www.w3.org/2000/svg" viewBox="0 0 488.93 491"><defs><style>.cls-1{fill:#7d7da3;}.cls-2{fill:#2f2f40;}.cls-3{fill:#5e5e7a;}.cls-4{fill:#292941;}.cls-5{fill:#3f3f52;}.cls-6{fill:#434259;}.cls-7{fill:#181820;}.cls-8{fill:#484860;}.cls-9{fill:#484871;}.cls-10{fill:#403737;}.cls-11{fill:#806f6f;}.cls-12{fill:#a38686;}.cls-13{fill:#605353;}.cls-14{fill:#2e140a;}.cls-15{fill:#232544;}.cls-16{fill:#6d6d80;}.cls-17{fill:none;stroke:#333;stroke-miterlimit:10;stroke-width:9px;}</style></defs><title>замок винтерфелл итог</title><rect class="cls-1" x="61.8" y="342" width="74.97" height="135"/><polygon class="cls-2" points="136.76 339 53.89 339 80.34 282 136.76 282 136.76 339"/><rect class="cls-3" x="136.76" y="175" width="60.61" height="302"/><rect class="cls-4" x="134.37" y="176" width="65.4" height="10"/><polygon class="cls-5" points="203.76 176 131.18 176 166.99 45 203.76 176"/><rect class="cls-1" x="197.38" y="240" width="19.94" height="237"/><rect class="cls-6" x="217.31" y="136" width="68.59" height="341"/><rect class="cls-7" x="214.12" y="136" width="74.17" height="13"/><polygon class="cls-2" points="292.28 136 210.14 136 229.24 93 273.18 93 292.28 136"/><polygon class="cls-8" points="273.66 93 229.43 93 251.54 0 273.66 93"/><rect class="cls-1" x="285.9" y="278" width="23.13" height="199"/><rect class="cls-9" x="309.03" y="181" width="56.62" height="296"/><polygon class="cls-2" points="370.44 181 303.45 181 336.94 22.5 370.44 181"/><rect class="cls-1" x="365.65" y="328" width="71.41" height="149"/><path class="cls-10" d="M97.38,396h5a17,17,0,0,1,17,17v64a0,0,0,0,1,0,0H80.34a0,0,0,0,1,0,0V413a17,17,0,0,1,17-17Z"/><path class="cls-11" d="M337.34,209h0a6,6,0,0,1,6,6v43a0,0,0,0,1,0,0h-12a0,0,0,0,1,0,0V215A6,6,0,0,1,337.34,209Z"/><path class="cls-12" d="M167.07,201h0a5.58,5.58,0,0,1,5.58,5.58V245a0,0,0,0,1,0,0H161.49a0,0,0,0,1,0,0V206.58A5.58,5.58,0,0,1,167.07,201Z"/><rect class="cls-7" x="305.84" y="181" width="62.21" height="10"/><path class="cls-11" d="M234.06,291h0a5.58,5.58,0,0,1,5.58,5.58V338a0,0,0,0,1,0,0H228.48a0,0,0,0,1,0,0V296.58A5.58,5.58,0,0,1,234.06,291Z"/><path class="cls-11" d="M268.36,291h0a5.58,5.58,0,0,1,5.58,5.58V338a0,0,0,0,1,0,0H262.77a0,0,0,0,1,0,0V296.58A5.58,5.58,0,0,1,268.36,291Z"/><path class="cls-11" d="M251.21,176h0a6,6,0,0,1,6,6v39a0,0,0,0,1,0,0h-12a0,0,0,0,1,0,0V182A6,6,0,0,1,251.21,176Z"/><rect class="cls-6" x="58.61" y="339" width="78.16" height="11"/><rect class="cls-10" x="226.09" y="326" width="15.95" height="14"/><rect class="cls-10" x="260.38" y="326" width="15.95" height="14"/><rect class="cls-10" x="242.84" y="210" width="16.75" height="14"/><rect class="cls-10" x="328.97" y="246" width="16.75" height="14"/><path class="cls-13" d="M401.56,345h0a6,6,0,0,1,6,6v43a0,0,0,0,1,0,0h-12a0,0,0,0,1,0,0V351A6,6,0,0,1,401.56,345Z"/><rect class="cls-10" x="393.19" y="382" width="16.75" height="14"/><rect class="cls-10" x="157.5" y="233" width="18.34" height="14"/><rect class="cls-8" x="365.65" y="318" width="75.4" height="13"/><rect class="cls-14" x="43.43" y="477" width="412" height="14"/><rect class="cls-15" x="309.03" y="296" width="56.62" height="19"/><rect class="cls-2" x="217.31" y="250" width="68.59" height="19"/><rect class="cls-2" x="217.31" y="369" width="68.59" height="19"/><rect class="cls-6" x="136.76" y="273" width="60.61" height="19"/><rect class="cls-8" x="285.9" y="278" width="23.13" height="10"/><rect class="cls-16" x="197.38" y="234" width="19.94" height="10"/><path class="cls-17" d="M678.9,520.36c-40.32-25.7-96.7-49.55-167.17-49.55-141.83,0-226.57,96.63-238.26,110.43C285.16,595,369.9,691.68,511.73,691.68c101.23,0,173.38-49.23,210.64-82.43,8.11-7.22,14.56-13.68,19.3-18.72,4-4.25,6.8-7.48,8.33-9.29a393.27,393.27,0,0,0-238.27-80c-43.88,0-80,36.1-80,80s36.12,80,80,80c57.37,0,80-61.74,80-80a91.23,91.23,0,0,0-3.59-23.78,79.43,79.43,0,0,0-18.47-31.34" transform="translate(-267.57 -266)"/></svg>