<svg id="Слой_1" data-name="Слой 1" xmlns="http://www.w3.org/2000/svg" viewBox="0 0 545.79 412.09"><defs><style>.cls-1{fill:#524d52;}.cls-2{fill:#9e999e;}.cls-3{fill:#65565b;}.cls-4{fill:#51454a;}.cls-5{fill:#85787d;}.cls-6{fill:#92888d;}.cls-7{fill:#756a6f;}.cls-8{fill:#595055;}.cls-9{fill:#3c3636;}.cls-10{fill:none;stroke:#333;stroke-miterlimit:10;stroke-width:9px;}</style></defs><title>красный замок2223</title><path class="cls-1" d="M574,341.41H450.34v-4.22c0-10.94,27.49-19.86,61.81-20.06h0c34.31.2,61.8,9.12,61.8,20.06Z" transform="translate(-239.7 -301.16)"/><path class="cls-2" d="M688.55,499.32H334.84V470.15c0-75.63,78.67-137.31,176.85-138.66h0c98.19,1.35,176.86,63,176.86,138.66Z" transform="translate(-239.7 -301.16)"/><path class="cls-3" d="M269,696.93H754.42V484h0A595.82,595.82,0,0,0,269,484h0Z" transform="translate(-239.7 -301.16)"/><path class="cls-4" d="M269.28,697H754.73v-138h0c-154.48-44.65-331-44.65-485.45,0h0Z" transform="translate(-239.7 -301.16)"/><path class="cls-5" d="M269.28,685.28H754.73V508.43h0a595.74,595.74,0,0,0-485.45,0h0Z" transform="translate(-239.7 -301.16)"/><rect class="cls-6" x="175.45" y="155.75" width="193.1" height="240.02"/><rect class="cls-4" x="135.75" y="133.19" width="272.82" height="22.56"/><polygon class="cls-7" points="136.06 133.28 407.96 133.28 272.01 20.48 136.06 133.28"/><rect class="cls-8" x="144.77" y="155.75" width="30.68" height="240.02"/><rect class="cls-8" x="368.55" y="155.75" width="30.68" height="240.02"/><rect class="cls-3" x="345.99" y="155.83" width="12.63" height="239.93"/><rect class="cls-3" x="327.94" y="155.83" width="12.63" height="239.93"/><rect class="cls-3" x="203.42" y="155.83" width="12.63" height="239.93"/><rect class="cls-3" x="185.37" y="155.83" width="12.63" height="239.93"/><polygon class="cls-6" points="170.55 123.27 372.84 123.27 271.7 39.35 170.55 123.27"/><path class="cls-4" d="M469.29,696.93H554.1V598.58a42.4,42.4,0,0,0-42.41-42.41h0a42.4,42.4,0,0,0-42.4,42.41Z" transform="translate(-239.7 -301.16)"/><path class="cls-4" d="M690.35,676.18H666V564.74a12.18,12.18,0,0,1,12.18-12.18h0a12.18,12.18,0,0,1,12.18,12.18Z" transform="translate(-239.7 -301.16)"/><path class="cls-4" d="M730.55,676.18H710.69V572.41a9.94,9.94,0,0,1,9.93-9.93h0a9.94,9.94,0,0,1,9.93,9.93Z" transform="translate(-239.7 -301.16)"/><path class="cls-4" d="M333.94,676.18H358.3V564.74a12.18,12.18,0,0,0-12.18-12.18h0a12.18,12.18,0,0,0-12.18,12.18Z" transform="translate(-239.7 -301.16)"/><path class="cls-4" d="M293.75,676.18H313.6V572.41a9.94,9.94,0,0,0-9.93-9.93h0a9.93,9.93,0,0,0-9.92,9.93Z" transform="translate(-239.7 -301.16)"/><rect class="cls-8" x="227.78" y="227.03" width="88.43" height="8.12"/><path class="cls-7" d="M490,528.19h-6.32V492.55a3.17,3.17,0,0,1,3.16-3.16h0a3.17,3.17,0,0,1,3.16,3.16Z" transform="translate(-239.7 -301.16)"/><path class="cls-7" d="M540.57,528.19h-6.32V492.55a3.17,3.17,0,0,1,3.16-3.16h0a3.17,3.17,0,0,1,3.16,3.16Z" transform="translate(-239.7 -301.16)"/><path class="cls-3" d="M504.48,525.49h-9.93v-22a5,5,0,0,1,5-5h0a5,5,0,0,1,5,5Z" transform="translate(-239.7 -301.16)"/><path class="cls-3" d="M517.11,525.49h-9.93V496.25a5,5,0,0,1,5-5h0a5,5,0,0,1,5,5Z" transform="translate(-239.7 -301.16)"/><path class="cls-3" d="M529.74,525.49h-9.92v-22a5,5,0,0,1,5-5h0a5,5,0,0,1,5,5Z" transform="translate(-239.7 -301.16)"/><rect class="cls-8" x="238.61" y="179.21" width="67.67" height="5.41"/><rect class="cls-9" x="17.86" y="395.85" width="508.91" height="16.24"/><path class="cls-10" d="M244.2,616.61c0,18.48,61.77,33.81,142.58,36.63,8.74.3,17.71.46,26.84.46,9.46,0,18.74-.17,27.77-.49,80.36-2.91,141.66-18.19,141.66-36.6L582.89,551c0,20.48-75.81,37.07-169.32,37.07S244.25,571.43,244.25,551s75.81-37.07,169.32-37.07c40.29,0,77.3,3.08,106.37,8.22a281.91,281.91,0,0,1,28.88,6.54,82,82,0,0,1,12.83,4.72c7.93,3.81,85-24.34,131.82-71.9,41.68-42.3,62.57-102.21,65.71-113.77l-29.62,11.08q23.63-23.64,47.24-47.27,1.61,30.64,3.2,61.3l-9.61-17" transform="translate(-239.7 -301.16)"/></svg>