<svg id="Слой_1" data-name="Слой 1" xmlns="http://www.w3.org/2000/svg" viewBox="0 0 696 392.11"><defs><style>.cls-1{fill:#918c84;}.cls-2{fill:#dac7ae;}.cls-3{fill:#494138;}.cls-4{fill:#6e6963;}.cls-5{fill:#b0a390;}.cls-6{fill:#bcb0a1;}.cls-13,.cls-14,.cls-7{fill:#54687e;stroke:#595050;}.cls-13,.cls-14,.cls-17,.cls-7{stroke-miterlimit:10;}.cls-7{stroke-width:3.4px;}.cls-8{fill:#9a8972;}.cls-9{fill:#d3bd9e;}.cls-10{fill:#928f8a;}.cls-11{fill:#705656;}.cls-12{fill:#71685b;}.cls-13{stroke-width:4.07px;}.cls-14{stroke-width:5.09px;}.cls-15{fill:#6c645d;}.cls-16{fill:#616161;}.cls-17{fill:none;stroke:#333;stroke-width:9px;}</style></defs><title>ланниспорт.1ai</title><polygon class="cls-1" points="8.49 157 687.51 157 661.2 133.23 33.1 133.23 8.49 157"/><rect class="cls-2" x="8.49" y="157" width="679.02" height="223.23"/><rect class="cls-3" y="380.23" width="696" height="11.88"/><rect class="cls-4" x="4.24" y="157" width="687.51" height="9.34"/><rect class="cls-5" x="207.1" y="95.04" width="281.8" height="285.19"/><rect class="cls-4" x="204.56" y="95.04" width="286.89" height="9.34"/><rect class="cls-4" x="196.07" y="226.6" width="303.86" height="4.24"/><rect class="cls-6" x="43.29" y="119.65" width="33.95" height="37.35"/><path class="cls-7" d="M60.26,128.14h0a9.34,9.34,0,0,1,9.34,9.34v11a0,0,0,0,1,0,0H50.93a0,0,0,0,1,0,0v-11A9.34,9.34,0,0,1,60.26,128.14Z"/><polygon class="cls-8" points="78.09 119.65 41.59 119.65 59.84 104.38 78.09 119.65"/><polygon class="cls-9" points="70.72 117.95 48.95 117.95 59.84 108.84 70.72 117.95"/><polygon class="cls-8" points="161.27 119.65 125.62 119.65 143.44 104.38 161.27 119.65"/><polygon class="cls-9" points="154.07 117.95 132.81 117.95 143.44 108.84 154.07 117.95"/><rect class="cls-6" x="127.32" y="119.65" width="33.95" height="37.35"/><rect class="cls-6" x="533.03" y="119.65" width="33.95" height="37.35"/><path class="cls-7" d="M144.29,128.14h0a9.34,9.34,0,0,1,9.34,9.34v11a0,0,0,0,1,0,0H135a0,0,0,0,1,0,0v-11A9.34,9.34,0,0,1,144.29,128.14Z"/><path class="cls-7" d="M550,128.14h0a9.34,9.34,0,0,1,9.34,9.34v11a0,0,0,0,1,0,0H540.67a0,0,0,0,1,0,0v-11A9.34,9.34,0,0,1,550,128.14Z"/><rect class="cls-6" x="617.06" y="119.65" width="33.95" height="37.35"/><path class="cls-7" d="M634,128.14h0a9.34,9.34,0,0,1,9.34,9.34v11a0,0,0,0,1,0,0H624.7a0,0,0,0,1,0,0v-11A9.34,9.34,0,0,1,634,128.14Z"/><rect class="cls-6" x="207.1" y="46.66" width="66.2" height="48.38"/><path class="cls-8" d="M236.5,11.86h7.42a29.39,29.39,0,0,1,29.39,29.39v5.41a0,0,0,0,1,0,0H207.1a0,0,0,0,1,0,0V41.25A29.39,29.39,0,0,1,236.5,11.86Z"/><path class="cls-8" d="M452.09,11.86h7.42A29.39,29.39,0,0,1,488.9,41.25v5.41a0,0,0,0,1,0,0h-66.2a0,0,0,0,1,0,0V41.25A29.39,29.39,0,0,1,452.09,11.86Z"/><rect class="cls-6" x="422.69" y="46.66" width="66.2" height="48.38"/><rect class="cls-6" x="310.65" y="49.2" width="74.69" height="45.83"/><polygon class="cls-8" points="308.96 45.81 387.04 45.81 348 8.4 308.96 45.81"/><polygon class="cls-9" points="324.71 39.02 371.29 39.02 348 16.7 324.71 39.02"/><rect class="cls-7" x="230.87" y="61.09" width="18.67" height="20.37"/><rect class="cls-7" x="446.46" y="61.09" width="18.67" height="20.37"/><rect class="cls-10" x="197.77" y="230.84" width="300.47" height="13.58"/><path class="cls-11" d="M266.28,266.49h3.87a33.71,33.71,0,0,1,33.71,33.71v80a0,0,0,0,1,0,0h-71.3a0,0,0,0,1,0,0v-80A33.71,33.71,0,0,1,266.28,266.49Z"/><path class="cls-11" d="M346.06,266.49h3.87a33.71,33.71,0,0,1,33.71,33.71v80a0,0,0,0,1,0,0h-71.3a0,0,0,0,1,0,0v-80A33.71,33.71,0,0,1,346.06,266.49Z"/><path class="cls-11" d="M425.85,266.49h3.87a33.71,33.71,0,0,1,33.71,33.71v80a0,0,0,0,1,0,0h-71.3a0,0,0,0,1,0,0v-80A33.71,33.71,0,0,1,425.85,266.49Z"/><path class="cls-12" d="M268.21,275h0a27.16,27.16,0,0,1,27.16,27.16v78.09a0,0,0,0,1,0,0H241.05a0,0,0,0,1,0,0V302.14A27.16,27.16,0,0,1,268.21,275Z"/><path class="cls-12" d="M348,275h0a27.16,27.16,0,0,1,27.16,27.16v78.09a0,0,0,0,1,0,0H320.84a0,0,0,0,1,0,0V302.14A27.16,27.16,0,0,1,348,275Z"/><path class="cls-12" d="M427.79,275h0a27.16,27.16,0,0,1,27.16,27.16v78.09a0,0,0,0,1,0,0H400.62a0,0,0,0,1,0,0V302.14A27.16,27.16,0,0,1,427.79,275Z"/><rect class="cls-13" x="335.69" y="64.06" width="25.46" height="25.46" rx="12.73"/><path class="cls-14" d="M268.21,131.54h0a17,17,0,0,1,17,17v56a0,0,0,0,1,0,0h-34a0,0,0,0,1,0,0v-56A17,17,0,0,1,268.21,131.54Z"/><rect class="cls-15" x="125.62" y="119.65" width="36.5" height="4.24"/><rect class="cls-15" x="531.34" y="119.65" width="36.5" height="4.24"/><rect class="cls-15" x="615.37" y="119.65" width="36.5" height="4.24"/><rect class="cls-15" x="41.59" y="119.65" width="36.5" height="4.24"/><path class="cls-14" d="M348,131.54h0a17,17,0,0,1,17,17v56a0,0,0,0,1,0,0H331a0,0,0,0,1,0,0v-56A17,17,0,0,1,348,131.54Z"/><path class="cls-14" d="M60.26,186.71h0a17,17,0,0,1,17,17v38.2a0,0,0,0,1,0,0h-34a0,0,0,0,1,0,0v-38.2A17,17,0,0,1,60.26,186.71Z"/><path class="cls-14" d="M145.14,186.71h0a17,17,0,0,1,17,17v38.2a0,0,0,0,1,0,0h-34a0,0,0,0,1,0,0v-38.2A17,17,0,0,1,145.14,186.71Z"/><rect class="cls-14" x="43.29" y="279.22" width="33.95" height="55.17"/><rect class="cls-14" x="128.17" y="279.22" width="33.95" height="55.17"/><path class="cls-14" d="M550,186.71h0a17,17,0,0,1,17,17v38.2a0,0,0,0,1,0,0H533a0,0,0,0,1,0,0v-38.2A17,17,0,0,1,550,186.71Z"/><path class="cls-14" d="M634.89,186.71h0a17,17,0,0,1,17,17v38.2a0,0,0,0,1,0,0h-34a0,0,0,0,1,0,0v-38.2a17,17,0,0,1,17-17Z"/><rect class="cls-14" x="533.03" y="279.22" width="33.95" height="55.17"/><rect class="cls-14" x="617.91" y="279.22" width="33.95" height="55.17"/><path class="cls-14" d="M427.79,131.54h0a17,17,0,0,1,17,17v56a0,0,0,0,1,0,0h-34a0,0,0,0,1,0,0v-56A17,17,0,0,1,427.79,131.54Z"/><rect class="cls-15" x="204.56" y="44.11" width="71.3" height="5.09"/><rect class="cls-15" x="420.15" y="44.11" width="71.3" height="5.09"/><rect class="cls-15" x="308.96" y="45.81" width="78.09" height="5.94"/><rect class="cls-10" x="527.09" y="220.66" width="130.71" height="25.46"/><rect class="cls-10" x="243.6" y="183.31" width="208.8" height="25.46"/><polygon class="cls-8" points="567.83 119.65 531.34 119.65 549.59 104.38 567.83 119.65"/><polygon class="cls-9" points="560.47 117.95 538.7 117.95 549.59 108.84 560.47 117.95"/><polygon class="cls-8" points="651.86 119.65 615.37 119.65 633.62 104.38 651.86 119.65"/><polygon class="cls-9" points="644.5 117.95 622.73 117.95 633.62 108.84 644.5 117.95"/><rect class="cls-10" x="37.35" y="220.66" width="130.71" height="25.46"/><rect class="cls-16" x="35.65" y="216.41" width="134.11" height="5.94"/><rect class="cls-16" x="525.4" y="216.41" width="134.11" height="5.94"/><rect class="cls-16" x="241.05" y="179.92" width="213.89" height="5.94"/><rect class="cls-10" x="610.27" y="330.15" width="49.23" height="11.88"/><rect class="cls-10" x="525.4" y="330.15" width="49.23" height="11.88"/><rect class="cls-10" x="120.53" y="330.15" width="49.23" height="11.88"/><rect class="cls-10" x="35.65" y="330.15" width="49.23" height="11.88"/><path class="cls-17" d="M433,572.11s-22.36,5.71-36,4c-43.25-5.31-58.89-43-60.78-46.8-6.75-13.49,8.13-43,8.13-43s-13.48-38.2-.92-52.33c27.43-30.83,89.3-21.66,89.5-21.63-3.11-4.54-16.3-34.77-2.92-73.65,14.24-41.39,81.22-13.17,81.22-13.17s68-28.22,82.25,13.17c13.37,38.88.18,69.11-2.92,73.65.19,0,62.07-9.2,89.49,21.63,12.57,14.13-.91,52.33-.91,52.33s14.88,29.47,8.12,43c-1.88,3.77-17.53,41.49-60.77,46.8a81.13,81.13,0,0,1-36-3.74s16.4,34.48,3,73.35c-14.24,41.4-81.22,13.18-81.22,13.18s-59.38,24.64-78.78-5.9a34.31,34.31,0,0,1-3.47-7.28q-1.08-3.13-1.93-6.21-1.41-5-2.27-9.82" transform="translate(-164 -311.71)"/></svg>