<svg id="Слой_1" data-name="Слой 1" xmlns="http://www.w3.org/2000/svg" viewBox="0 0 517.58 388.5"><defs><style>.cls-1{fill:#6b8694;}.cls-2{fill:#567056;}.cls-3{fill:#4c4b45;}.cls-4{fill:#ffffc2;}.cls-5{fill:#706a6a;}.cls-6{fill:#333;}.cls-7{fill:#737373;}.cls-8{fill:#ffffe0;}.cls-9{fill:#ffffd6;}.cls-10{fill:#868478;}.cls-11{fill:#4d4d4d;}.cls-12{fill:#393332;}.cls-13{fill:#666;}.cls-14{fill:#45413c;}.cls-15{fill:#595050;}.cls-16{fill:#859cb2;}.cls-17{fill:#004d73;}.cls-18{fill:#062839;}.cls-19{fill:#f0f0d0;}.cls-20{fill:#433c3c;}.cls-21{fill:#4d4b45;}.cls-22{fill:#646470;}.cls-23{fill:none;stroke:#333;stroke-miterlimit:10;stroke-width:9px;}</style></defs><title>лесопилка1</title><path class="cls-1" d="M301.72,545c0,107.32,419.36,107.32,419.36,0S627.2,350.71,511.4,350.71,301.72,437.7,301.72,545Z" transform="translate(-253.71 -316.48)"/><ellipse class="cls-2" cx="257.69" cy="301.84" rx="238.37" ry="84.98"/><path class="cls-3" d="M453.66,572.53c-4.78,0-8.66,6.17-8.66,13.79s3.88,13.8,8.66,13.8h308.8V572.53Z" transform="translate(-253.71 -316.48)"/><ellipse class="cls-4" cx="508.75" cy="269.84" rx="8.83" ry="13.79"/><path class="cls-5" d="M421.65,572.53c-4.78,0-8.65,6.17-8.65,13.79s3.87,13.8,8.65,13.8H730.46V572.53Z" transform="translate(-253.71 -316.48)"/><path class="cls-6" d="M381.92,572.53c-4.77,0-8.65,6.17-8.65,13.79s3.88,13.8,8.65,13.8H690.73V572.53Z" transform="translate(-253.71 -316.48)"/><path class="cls-7" d="M432.69,544.94c-4.78,0-8.65,6.17-8.65,13.79s3.87,13.8,8.65,13.8h308.8V544.94Z" transform="translate(-253.71 -316.48)"/><ellipse class="cls-4" cx="487.78" cy="242.25" rx="8.83" ry="13.79"/><ellipse class="cls-4" cx="476.75" cy="269.84" rx="8.83" ry="13.79"/><path class="cls-3" d="M404,544.94c-4.77,0-8.65,6.17-8.65,13.79s3.88,13.8,8.65,13.8H712.8V544.94Z" transform="translate(-253.71 -316.48)"/><ellipse class="cls-8" cx="459.09" cy="242.25" rx="8.83" ry="13.79"/><ellipse class="cls-9" cx="437.02" cy="269.84" rx="8.83" ry="13.79"/><rect class="cls-10" x="27.59" y="126.92" width="353.15" height="177.68"/><rect class="cls-11" x="9.93" y="115.89" width="388.46" height="11.04"/><rect class="cls-12" x="165.54" y="144.58" width="77.25" height="155.6"/><rect class="cls-13" x="169.95" y="148.99" width="68.42" height="147.88"/><rect class="cls-14" x="19.86" y="296.87" width="368.6" height="9.93"/><rect class="cls-15" x="82.77" y="160.03" width="57.39" height="80.56"/><rect class="cls-15" x="268.17" y="160.03" width="57.39" height="80.56"/><rect class="cls-16" x="271.48" y="164.44" width="50.76" height="71.73"/><rect class="cls-16" x="86.08" y="164.44" width="50.76" height="71.73"/><path class="cls-17" d="M253.71,628.78c0,5.74,16.06,10.39,35.87,10.39s35.86-4.65,35.86-10.39V550.45H253.71Z" transform="translate(-253.71 -316.48)"/><ellipse class="cls-18" cx="35.87" cy="233.42" rx="35.87" ry="10.48"/><path class="cls-5" d="M582.58,627.51c0,4.78,8.15,8.65,18.21,8.65S619,632.29,619,627.51V594.6H582.58Z" transform="translate(-253.71 -316.48)"/><ellipse class="cls-19" cx="347.08" cy="278.11" rx="18.21" ry="8.83"/><rect class="cls-20" x="479.94" y="529.49" width="3.31" height="20.97" transform="translate(26 -471.31) rotate(25.53)"/><rect class="cls-15" x="104.84" y="77.26" width="13.24" height="38.63"/><rect class="cls-15" x="294.66" y="164.44" width="4.41" height="71.73"/><rect class="cls-15" x="109.25" y="164.44" width="4.41" height="71.73"/><rect class="cls-21" x="571.9" y="541.4" width="3.25" height="72.84" transform="translate(-258.01 834.86) rotate(-90)"/><path class="cls-22" d="M598.73,572.53l1.13,4.49-11.69,16,.06.06c6.56,6.73,19.84,6.7,26.35-.06h0L604.5,577l1.6-4.49Z" transform="translate(-253.71 -316.48)"/><path class="cls-13" d="M253.71,628.78c0,5.74,16.06,10.39,35.87,10.39s35.86-4.65,35.86-10.39V550.45H253.71Z" transform="translate(-253.71 -316.48)"/><ellipse class="cls-15" cx="35.87" cy="233.42" rx="35.87" ry="10.48"/><path class="cls-23" d="M506.31,486.11,293.8,698.62l-17.95-18L580.8,375.73h0L556.05,359.9,591.94,324l13.92,26.66,11-11.05,18,17.95h0l-5.06,5.06h0l117,33.55h0c5.58,69.1-59,134-128.17,128.8l-.59-.05L591.15,401.27" transform="translate(-253.71 -316.48)"/></svg>