<svg id="Слой_1" data-name="Слой 1" xmlns="http://www.w3.org/2000/svg" viewBox="0 0 586.36 464.76"><defs><style>.cls-1{fill:#847d78;}.cls-2{fill:#66606e;}.cls-3{fill:#9993a1;}.cls-4{fill:#7c798d;}.cls-5{fill:#9d9695;}.cls-6{fill:#afa9b2;}.cls-7{fill:#878187;}.cls-8{fill:#9d969d;}.cls-9{fill:#69626b;}.cls-10{fill:#857f8d;}.cls-11{fill:#4d4a45;}.cls-12{fill:#534550;}.cls-13{fill:#332d3b;}.cls-14{fill:#566a78;}.cls-15{fill:#4d4755;}.cls-16{fill:#53595e;}.cls-17{fill:none;stroke:#333;stroke-miterlimit:10;stroke-width:9px;}</style></defs><title>ОРЛИНОЕ ГНЕЗДО</title><rect class="cls-1" x="171.75" y="316.25" width="169.48" height="129.38"/><polygon class="cls-2" points="341.22 316.25 171.75 316.25 209.57 274.64 303.39 274.64 341.22 316.25"/><rect class="cls-3" x="226.22" y="259.51" width="83.22" height="185.36"/><rect class="cls-4" x="235.3" y="221.68" width="65.07" height="31.02"/><path class="cls-1" d="M67,183.85h0A23.08,23.08,0,0,1,90,206.93v7.94a0,0,0,0,1,0,0H43.88a0,0,0,0,1,0,0v-7.94A23.08,23.08,0,0,1,67,183.85Z"/><rect class="cls-5" x="132.4" y="158.88" width="46.91" height="285.99"/><polygon class="cls-6" points="300.37 221.68 235.3 221.68 267.83 186.88 300.37 221.68"/><rect class="cls-2" x="95.33" y="333.65" width="130.89" height="111.22"/><rect class="cls-7" x="137.7" y="68.85" width="36.32" height="90.03"/><polygon class="cls-3" points="175.53 53.72 136.19 53.72 155.86 0 175.53 53.72"/><rect class="cls-2" x="309.44" y="320.79" width="201.25" height="124.08"/><rect class="cls-8" x="335.92" y="104.41" width="43.13" height="340.46"/><rect class="cls-9" x="332.14" y="81.71" width="50.69" height="22.7"/><rect class="cls-3" x="404.02" y="259.51" width="93.82" height="61.28"/><polygon class="cls-5" points="497.46 251.94 404.02 251.94 426.62 213.36 474.85 213.36 497.46 251.94"/><rect class="cls-8" x="510.7" y="240.59" width="51.45" height="204.28"/><rect class="cls-8" x="512.97" y="196.71" width="46.91" height="43.88"/><path class="cls-3" d="M357.49,59h0a21.56,21.56,0,0,1,21.56,21.56v1.13a0,0,0,0,1,0,0H335.92a0,0,0,0,1,0,0V80.58A21.56,21.56,0,0,1,357.49,59Z"/><polygon class="cls-10" points="562.14 189.15 510.7 189.15 536.42 158.88 562.14 189.15"/><rect class="cls-2" x="136.19" y="53.72" width="39.34" height="15.13"/><path class="cls-11" d="M357.11,122.57h0a5.3,5.3,0,0,1,5.3,5.3v22.7a0,0,0,0,1,0,0H351.81a0,0,0,0,1,0,0v-22.7a5.3,5.3,0,0,1,5.3-5.3Z"/><path class="cls-12" d="M639.61,574h-8.7V555.84h0a4.39,4.39,0,0,1,8.7,0h0Z" transform="translate(-211 -279.76)"/><path class="cls-12" d="M665.9,574h-8.7V555.84h0a4.39,4.39,0,0,1,8.7,0h0Z" transform="translate(-211 -279.76)"/><path class="cls-12" d="M692.19,574h-8.7V555.84h0a4.39,4.39,0,0,1,8.7,0h0Z" transform="translate(-211 -279.76)"/><path class="cls-13" d="M143.74,344.25h.78a3.77,3.77,0,0,1,3.77,3.77v13.63a0,0,0,0,1,0,0H140a0,0,0,0,1,0,0V348A3.77,3.77,0,0,1,143.74,344.25Z"/><path class="cls-13" d="M177,344.25h.78a3.77,3.77,0,0,1,3.77,3.77v13.63a0,0,0,0,1,0,0h-8.32a0,0,0,0,1,0,0V348a3.77,3.77,0,0,1,3.77-3.77Z"/><path class="cls-12" d="M155.85,76.42h.78a3.77,3.77,0,0,1,3.77,3.77V93.82a0,0,0,0,1,0,0h-8.32a0,0,0,0,1,0,0V80.19A3.77,3.77,0,0,1,155.85,76.42Z"/><path class="cls-12" d="M155.85,105.17h.78a3.77,3.77,0,0,1,3.77,3.77v13.63a0,0,0,0,1,0,0h-8.32a0,0,0,0,1,0,0V108.94A3.77,3.77,0,0,1,155.85,105.17Z"/><path class="cls-13" d="M110.45,344.25h.78A3.77,3.77,0,0,1,115,348v13.63a0,0,0,0,1,0,0h-8.32a0,0,0,0,1,0,0V348A3.77,3.77,0,0,1,110.45,344.25Z"/><path class="cls-13" d="M210.32,344.25h.78a3.77,3.77,0,0,1,3.77,3.77v13.63a0,0,0,0,1,0,0h-8.32a0,0,0,0,1,0,0V348A3.77,3.77,0,0,1,210.32,344.25Z"/><path class="cls-13" d="M606.77,632.33h-9.15v-18.1h0c1.22-5.69,7.93-5.69,9.15,0h0Z" transform="translate(-211 -279.76)"/><path class="cls-13" d="M537.92,632.33h-9.15v-18.1h0c1.22-5.69,7.93-5.69,9.15,0h0Z" transform="translate(-211 -279.76)"/><path class="cls-13" d="M642.09,632.33h-9.16v-18.1h0c1.23-5.69,7.93-5.69,9.16,0h0Z" transform="translate(-211 -279.76)"/><path class="cls-11" d="M572.65,540.79H562.06V523.38h0a5.44,5.44,0,0,1,10.59,0h0Z" transform="translate(-211 -279.76)"/><path class="cls-11" d="M573.41,493.12h-10.6v-17.4h0a5.44,5.44,0,0,1,10.6,0h0Z" transform="translate(-211 -279.76)"/><path class="cls-13" d="M678.06,632.33H668.9v-18.1h0c1.23-5.69,7.93-5.69,9.16,0h0Z" transform="translate(-211 -279.76)"/><path class="cls-13" d="M713.37,632.33h-9.15v-18.1h0c1.22-5.69,7.93-5.69,9.15,0h0Z" transform="translate(-211 -279.76)"/><path class="cls-12" d="M267.83,273.88h0a5.3,5.3,0,0,1,5.3,5.3V298.1a0,0,0,0,1,0,0H262.54a0,0,0,0,1,0,0V279.18A5.3,5.3,0,0,1,267.83,273.88Z"/><path class="cls-2" d="M155.86,220.92h0a5.3,5.3,0,0,1,5.3,5.3v18.91a0,0,0,0,1,0,0H150.56a0,0,0,0,1,0,0V226.22A5.3,5.3,0,0,1,155.86,220.92Z"/><path class="cls-2" d="M422.18,377.54h0a5.3,5.3,0,0,1,5.3,5.3v18.91a0,0,0,0,1,0,0H416.88a0,0,0,0,1,0,0V382.83A5.3,5.3,0,0,1,422.18,377.54Z"/><path class="cls-2" d="M537.18,286h0a5.3,5.3,0,0,1,5.3,5.3V310.2a0,0,0,0,1,0,0H531.88a0,0,0,0,1,0,0V291.29A5.3,5.3,0,0,1,537.18,286Z"/><rect class="cls-2" x="510.7" y="189.15" width="51.45" height="7.57"/><rect class="cls-4" x="510.7" y="240.59" width="51.45" height="16.64"/><rect class="cls-2" x="404.02" y="251.94" width="93.82" height="7.57"/><rect class="cls-2" x="230.76" y="252.7" width="73.39" height="6.81"/><rect class="cls-7" x="38.59" y="230" width="56.74" height="214.87"/><path class="cls-13" d="M66.58,315.06h0a3.78,3.78,0,0,1,3.78,3.78V335.6a0,0,0,0,1,0,0H62.8a0,0,0,0,1,0,0V318.85A3.78,3.78,0,0,1,66.58,315.06Z"/><path class="cls-13" d="M66.58,247h0a3.78,3.78,0,0,1,3.78,3.78v16.75a0,0,0,0,1,0,0H62.8a0,0,0,0,1,0,0V250.75A3.78,3.78,0,0,1,66.58,247Z"/><rect class="cls-2" x="38.59" y="214.87" width="56.74" height="15.13"/><circle class="cls-12" cx="536.8" cy="219.03" r="7.19"/><path class="cls-14" d="M814,703.45" transform="translate(-211 -279.76)"/><rect class="cls-2" x="134.67" y="134.67" width="42.37" height="24.21"/><rect class="cls-10" x="226.22" y="305.66" width="83.22" height="31.02"/><rect class="cls-10" x="335.92" y="155.86" width="43.13" height="12.11"/><rect class="cls-15" x="379.05" y="358.62" width="131.65" height="9.84"/><rect class="cls-15" x="95.33" y="369.21" width="130.89" height="9.84"/><rect class="cls-15" x="309.44" y="358.62" width="26.48" height="9.84"/><path class="cls-16" d="M776.93,721.89l-92.31-14.23L624.85,709l-100.62-3.24-146,6.47L320,705.72l-71.12,6.47L211,736.77l96.84,4.52,68.85,1.3,74.15,1.94,90.79-1.94c17.65,1.07,35.31-.12,53,1,25-1.08,49.93.11,74.9-1l68.85-1.3,59-5.82Z" transform="translate(-211 -279.76)"/><path class="cls-17" d="M677.58,383.82,518.3,504.61a10.58,10.58,0,0,1-12.76,0L356.79,392a10.56,10.56,0,0,1,6.37-19H682.84a10.56,10.56,0,0,1,10.56,10.56V581.3a10.56,10.56,0,0,1-10.56,10.56H340.46A10.56,10.56,0,0,1,329.9,581.3V402.23" transform="translate(-211 -279.76)"/></svg>