<svg id="Слой_1" data-name="Слой 1" xmlns="http://www.w3.org/2000/svg" viewBox="0 0 482 550.14"><defs><style>.cls-1{fill:#3e2e2e;}.cls-2{fill:#404040;}.cls-3{fill:#403737;}.cls-4{fill:#6a5b53;}.cls-5{fill:#838ea1;}.cls-6{fill:#666;}.cls-7{fill:#605353;}.cls-8{fill:#665f5f;}.cls-9{fill:#463333;}.cls-10{fill:#302929;}.cls-11{fill:#2d2626;}.cls-12{fill:none;stroke:#333;stroke-miterlimit:10;stroke-width:9px;}</style></defs><title>принцев перевал</title><rect class="cls-1" x="13.66" y="273.81" width="193.17" height="144.1"/><rect class="cls-2" x="4.35" y="273.81" width="202.49" height="7.45"/><polygon class="cls-3" points="215.53 273.81 4.35 273.81 109.94 184.99 215.53 273.81"/><rect class="cls-4" x="97.52" y="308.53" width="25.45" height="34.78"/><rect class="cls-3" x="14" y="365.36" width="193" height="44"/><rect class="cls-2" x="12" y="360.81" width="187.19" height="7.45"/><rect class="cls-5" x="100.96" y="312.11" width="18.58" height="27.62"/><rect class="cls-4" x="39.13" y="308.53" width="25.45" height="34.78"/><rect class="cls-5" x="42.57" y="312.11" width="18.58" height="27.62"/><polygon class="cls-6" points="195 268.04 24.88 268.04 109.94 196.49 195 268.04"/><rect class="cls-7" x="140.38" y="311.7" width="327.96" height="97.52"/><polygon class="cls-3" points="468.33 209.32 140.38 209.32 304.36 82.3 468.33 209.32"/><polygon class="cls-8" points="434 198.57 174.71 198.57 304.36 98.14 434 198.57"/><rect class="cls-7" x="149.69" y="218.53" width="309.95" height="93.17"/><rect class="cls-3" x="209.38" y="231.36" width="22.87" height="40.19"/><rect class="cls-3" x="293.23" y="231.36" width="22.87" height="40.19"/><rect class="cls-3" x="376.46" y="231.36" width="22.87" height="40.19"/><rect class="cls-5" x="213.05" y="235.92" width="15.53" height="31.06"/><rect class="cls-5" x="296.9" y="235.92" width="15.53" height="31.06"/><rect class="cls-5" x="380.13" y="235.92" width="15.53" height="31.06"/><rect class="cls-3" x="404" y="326.36" width="26" height="44.6"/><rect class="cls-3" x="329" y="326.36" width="26" height="44.6"/><rect class="cls-3" x="254" y="326.36" width="25.41" height="44.6"/><rect class="cls-3" x="179" y="326.36" width="25.41" height="44.6"/><rect class="cls-5" x="183.23" y="331.58" width="16.77" height="34.16"/><rect class="cls-5" x="258.39" y="331.58" width="16.77" height="34.16"/><rect class="cls-5" x="333.55" y="331.58" width="16.77" height="34.16"/><rect class="cls-5" x="408.71" y="331.58" width="16.77" height="34.16"/><rect class="cls-9" x="144.72" y="286.23" width="320.51" height="25.47"/><rect class="cls-10" x="140.38" y="279.4" width="328.58" height="6.83"/><rect class="cls-10" x="140.38" y="209.36" width="328.58" height="9.17"/><rect class="cls-11" y="409.22" width="482" height="8.7"/><path class="cls-12" d="M539.14,300.59H369.73V615.38a168.67,168.67,0,0,0,21.37,82.3L605,325.54l-5.89-3.39,12.39-21.56,4.89-8.51.81-1.4a141.15,141.15,0,0,1,44.58-47.31h0a141.09,141.09,0,0,1-18.43,62.34l-.8,1.4-10.38,18.05-6.91,12-5.88-3.38L401.12,713.52a168.87,168.87,0,0,0,99.81,66.65h0a169.09,169.09,0,0,0,131.2-164.79v-208" transform="translate(-271 -234.64)"/></svg>