<svg id="Слой_1" data-name="Слой 1" xmlns="http://www.w3.org/2000/svg" viewBox="0 0 648.5 487.04"><defs><style>.cls-1{fill:#483b41;}.cls-2{fill:#7d6f77;}.cls-3{fill:#6f6775;}.cls-4{fill:#8f7c7d;}.cls-5{fill:#66585f;}.cls-6{fill:#483741;}.cls-7{fill:#63575d;}.cls-8{fill:#565690;}.cls-9{fill:#48464c;}.cls-10{fill:#6a6a6e;}.cls-11{fill:#918587;}.cls-12{fill:#45343a;}.cls-13{fill:#39303b;}.cls-14{fill:#4a4143;}.cls-15{fill:#564d58;}.cls-16{fill:none;stroke:#333;stroke-miterlimit:10;stroke-width:9px;}</style></defs><title>риверранннн</title><path class="cls-1" d="M787.67,614H700V431.11h0a110,110,0,0,1,87.67,0h0Z" transform="translate(-217 -192.46)"/><path class="cls-2" d="M700,431.11h0a110,110,0,0,1,87.67,0h0v9.43h0a110,110,0,0,0-87.67,0h0Z" transform="translate(-217 -192.46)"/><path class="cls-3" d="M769.25,470.7h-7.4V458.45h0c.71-4.7,6.69-4.7,7.4,0h0Z" transform="translate(-217 -192.46)"/><path class="cls-3" d="M725.77,470.7h-7.4V458.45h0c.71-4.7,6.69-4.7,7.4,0h0Z" transform="translate(-217 -192.46)"/><path class="cls-4" d="M264,603" transform="translate(-217 -192.46)"/><rect class="cls-4" x="168" y="272.54" width="133" height="10"/><rect class="cls-4" x="400" y="273.54" width="83" height="10"/><rect class="cls-5" x="168" y="282.54" width="127" height="116"/><path class="cls-6" d="M617,591H512V397h0a147.49,147.49,0,0,1,105,0h0Z" transform="translate(-217 -192.46)"/><path class="cls-7" d="M512,397h0a147.49,147.49,0,0,1,105,0h0v10h0a147.49,147.49,0,0,0-105,0h0Z" transform="translate(-217 -192.46)"/><path class="cls-1" d="M385,591H302.76V440.36h0a105.28,105.28,0,0,1,82.24,0h0Z" transform="translate(-217 -192.46)"/><path class="cls-2" d="M302.76,440.36h0a105.28,105.28,0,0,1,82.24,0h0V449h0a105.28,105.28,0,0,0-82.24,0h0Z" transform="translate(-217 -192.46)"/><path class="cls-8" d="M700.57,608.5c-4.52-4-29-8-33.56-12l-26.26-2-17,14-3.39,20,2.55,13-17.8,1-66.08,5H496.72l-53.38,3-45.75-1c-17.71,1.83-36.68,2.94-56.77,3a572.38,572.38,0,0,1-101-8.74l-22.81,20,26.39,6.73,59.31,5,72.86,4,49.14-3,67.78-1,61-1,65.24-4,34.74-7,25.41-8c2.55-3.67,25.09-7.33,27.63-11Q703.53,626.5,700.57,608.5Z" transform="translate(-217 -192.46)"/><path class="cls-9" d="M622.5,623.5l2,4,24-6h26l11-3,6-6-15-14-33-1-19,17C623.83,617.5,623.17,620.5,622.5,623.5Z" transform="translate(-217 -192.46)"/><path class="cls-5" d="M700,591V476H614V591h3v49h10v-8a32,32,0,0,1,32-32h0a32,32,0,0,1,32,32v8h10V591Z" transform="translate(-217 -192.46)"/><path class="cls-10" d="M673.5,670.5l60-13c18.67-.33,87.33-.67,106-1l26-10-19-26-13-6-11-29c.5.5-61.5-8.5-61-9l-45,7-16,4-6,17v26l-16,16-16.11,7L654.44,664Z" transform="translate(-217 -192.46)"/><path class="cls-11" d="M700.5,604.5q-.5,14.5-1,29l-13,13,26-12Z" transform="translate(-217 -192.46)"/><path class="cls-3" d="M594.93,439h-8.86V426h0a4.49,4.49,0,0,1,8.86,0h0Z" transform="translate(-217 -192.46)"/><path class="cls-3" d="M542.86,439H534V426h0a4.49,4.49,0,0,1,8.86,0h0Z" transform="translate(-217 -192.46)"/><path class="cls-3" d="M568.86,479H560V466h0a4.49,4.49,0,0,1,8.86,0h0Z" transform="translate(-217 -192.46)"/><path class="cls-3" d="M367.71,475h-6.94V463.74h0a3.48,3.48,0,0,1,6.94,0h0Z" transform="translate(-217 -192.46)"/><path class="cls-3" d="M326.93,475H320V463.74h0a3.48,3.48,0,0,1,6.94,0h0Z" transform="translate(-217 -192.46)"/><path class="cls-12" d="M481.93,511h-8.86V498h0a4.49,4.49,0,0,1,8.86,0h0Z" transform="translate(-217 -192.46)"/><path class="cls-12" d="M429.86,511H421V498h0a4.49,4.49,0,0,1,8.86,0h0Z" transform="translate(-217 -192.46)"/><path class="cls-13" d="M557.88,661.71l-6.9,5.43,13.22-.68-2.3-4.07Z" transform="translate(-217 -192.46)"/><path class="cls-14" d="M565.93,652.22l-6.9,5.42,13.22-.68c-.77-1.35-1.53-2.71-2.3-4.07Z" transform="translate(-217 -192.46)"/><path class="cls-15" d="M583.46,650.86l-13.8,10.85,26.44-1.35q-2.29-4.08-4.6-8.14Z" transform="translate(-217 -192.46)"/><path class="cls-12" d="M663,511h-8.86V498h0a4.49,4.49,0,0,1,8.86,0h0Z" transform="translate(-217 -192.46)"/><path class="cls-10" d="M626.35,623.5q-2.13-5.5-4.24-11,.84-9.5,1.69-19l-9.32-9-36.43-8-72,3-85.58,3-72-5-71.23,11.38L268.38,609,264,612.94l-9.67,5q-.17,7-.32,14l-11,9-11,9.66,65.67,7.84,121.16-5,136.41-4c21.18-1,50.83-2,72-3l3.39-12Z" transform="translate(-217 -192.46)"/><path class="cls-11" d="M617,612.5l-59.31,10-73.71-1c-33.7-.46-48.44,3.37-80.49,4-24.1.48-41.72-.58-70.32-2C302.63,622,276,619.93,254.3,618L254,632h0l-11,9-5.36,4.7,60.86,6.8,71.17-3,88.11-2,84.73-3,80.49-3c.56-3.33,1.13-6.67,1.69-10Z" transform="translate(-217 -192.46)"/><path class="cls-16" d="M435.47,439.54c19.17-29.91,42.41-67.16,59.8-111.83a640,640,0,0,0,25.53-82.48c3.74,29.49,3.48,72.78-5.18,123.72A414.26,414.26,0,0,1,479.4,481.68c15.52,8.25,58.8,21.24,64.69,22V234c10.64,48.56,33.35,120.36,85.38,189.94a452.32,452.32,0,0,0,54.34,60.49,233.62,233.62,0,0,1-64.69,11,257.55,257.55,0,0,1-59.68-5.5v16.5c26.54,6.7,36.69,5.5,75.21,5.5,15.52,0,35.54-1.68,59.51-5.5a63.13,63.13,0,0,1,0,30.24,60.43,60.43,0,0,1-18.11,30.25H427.65A243.1,243.1,0,0,1,407,514.68a250.42,250.42,0,0,1-7.76-82.49c6.19,5.92,35.18,29.06,55.63,37.12" transform="translate(-217 -192.46)"/></svg>