<svg id="Слой_1" data-name="Слой 1" xmlns="http://www.w3.org/2000/svg" viewBox="0 0 501.68 352.78"><defs><style>.cls-1{fill:#7e7675;}.cls-2{fill:#7c6865;}.cls-3{fill:#a29289;}.cls-4{fill:#9d867c;}.cls-5{fill:#bfafa4;}.cls-6{fill:#836f67;}.cls-7{fill:#575f5a;}.cls-8{fill:#635b5c;}.cls-9{fill:#b3b0b0;}.cls-10{fill:#544f4f;}.cls-11{fill:#4d4848;}.cls-12{fill:#524a4e;}.cls-13{fill:#7d7678;}.cls-14{fill:#57484a;}.cls-15{fill:#322a29;}.cls-16{fill:#d3ceba;}.cls-17{fill:#8d897c;}.cls-18{fill:#434e49;}.cls-19{fill:#524b4d;}.cls-20{fill:none;stroke:#333;stroke-miterlimit:10;stroke-width:9px;}</style></defs><title>ров кейлиннн</title><polygon class="cls-1" points="369.02 229.13 297.87 233.96 297.87 41 369.02 41 369.02 229.13"/><rect class="cls-2" x="214.66" y="27.74" width="36.18" height="206.22"/><rect class="cls-1" x="109.74" y="61.5" width="104.92" height="184.51"/><rect class="cls-3" x="363" y="41" width="6.03" height="188.13"/><rect class="cls-4" x="72.36" y="141.1" width="60.3" height="92.86"/><rect class="cls-3" x="297.87" y="41" width="6.03" height="192.95"/><polygon class="cls-5" points="132.66 118.19 356.97 118.19 356.97 229.13 132.66 233.96 132.66 118.19"/><rect class="cls-6" x="356.97" y="90.45" width="49.44" height="138.69"/><rect class="cls-5" x="406.41" y="141.1" width="22.91" height="88.04"/><polygon class="cls-7" points="501.68 349.73 0 349.73 61.64 275.84 72.36 191.75 183.75 190.98 298.63 220.32 429.32 227.93 445.9 302.92 501.68 349.73"/><rect class="cls-8" x="104.92" y="57.89" width="109.74" height="7.24"/><polygon class="cls-9" points="129.04 100.09 121.8 100.09 121.8 85.62 125.42 78.39 129.04 85.62 129.04 100.09"/><polygon class="cls-9" points="153.16 100.09 145.92 100.09 145.92 85.62 149.54 78.39 153.16 85.62 153.16 100.09"/><polygon class="cls-9" points="177.28 100.09 170.04 100.09 170.04 85.62 173.66 78.39 177.28 85.62 177.28 100.09"/><polygon class="cls-9" points="201.4 100.09 194.16 100.09 194.16 85.62 197.78 78.39 201.4 85.62 201.4 100.09"/><polygon class="cls-10" points="373.85 126.63 366.61 126.63 366.61 112.16 370.23 104.92 373.85 112.16 373.85 126.63"/><polygon class="cls-10" points="395.56 126.63 388.32 126.63 388.32 112.16 391.94 104.92 395.56 112.16 395.56 126.63"/><rect class="cls-11" x="294.26" y="34.97" width="78.39" height="8.44"/><path class="cls-12" d="M334.05,53.06h0a3.62,3.62,0,0,1,3.62,3.62V71.15a0,0,0,0,1,0,0h-7.24a0,0,0,0,1,0,0V56.68A3.62,3.62,0,0,1,334.05,53.06Z"/><path class="cls-12" d="M350.94,53.06h0a3.62,3.62,0,0,1,3.62,3.62V71.15a0,0,0,0,1,0,0h-7.24a0,0,0,0,1,0,0V56.68a3.62,3.62,0,0,1,3.62-3.62Z"/><path class="cls-12" d="M317.17,53.06h0a3.62,3.62,0,0,1,3.62,3.62V71.15a0,0,0,0,1,0,0h-7.24a0,0,0,0,1,0,0V56.68A3.62,3.62,0,0,1,317.17,53.06Z"/><path class="cls-12" d="M101.59,158h.63a3.91,3.91,0,0,1,3.91,3.91v14.18a0,0,0,0,1,0,0H97.68a0,0,0,0,1,0,0V161.89A3.91,3.91,0,0,1,101.59,158Z"/><path class="cls-11" d="M165,143.51h1.55A3.45,3.45,0,0,1,170,147v13.44a0,0,0,0,1,0,0H161.6a0,0,0,0,1,0,0V147a3.45,3.45,0,0,1,3.45-3.45Z"/><path class="cls-11" d="M204.84,143.51h1.55a3.45,3.45,0,0,1,3.45,3.45v13.44a0,0,0,0,1,0,0H201.4a0,0,0,0,1,0,0V147A3.45,3.45,0,0,1,204.84,143.51Z"/><path class="cls-11" d="M243.43,143.51H245a3.45,3.45,0,0,1,3.45,3.45v13.44a0,0,0,0,1,0,0H240a0,0,0,0,1,0,0V147A3.45,3.45,0,0,1,243.43,143.51Z"/><path class="cls-11" d="M283.23,143.51h1.55a3.45,3.45,0,0,1,3.45,3.45v13.44a0,0,0,0,1,0,0h-8.44a0,0,0,0,1,0,0V147A3.45,3.45,0,0,1,283.23,143.51Z"/><path class="cls-11" d="M323,143.51h1.55A3.45,3.45,0,0,1,328,147v13.44a0,0,0,0,1,0,0h-8.44a0,0,0,0,1,0,0V147A3.45,3.45,0,0,1,323,143.51Z"/><path class="cls-13" d="M232.75,35h0A12.06,12.06,0,0,1,244.81,47V68.74a0,0,0,0,1,0,0H220.69a0,0,0,0,1,0,0V47A12.06,12.06,0,0,1,232.75,35Z"/><rect class="cls-14" x="218.28" y="57.89" width="28.94" height="14.47"/><path class="cls-15" d="M232.75,0h0a18.09,18.09,0,0,1,18.09,18.09v3.62a0,0,0,0,1,0,0H214.66a0,0,0,0,1,0,0V18.09A18.09,18.09,0,0,1,232.75,0Z"/><rect class="cls-8" x="67.53" y="138.69" width="65.12" height="8.44"/><rect class="cls-8" x="125.42" y="115.77" width="231.55" height="7.24"/><rect class="cls-13" x="132.66" y="174.86" width="224.31" height="7.24"/><rect class="cls-11" x="353.35" y="83.21" width="55.47" height="12.06"/><path class="cls-16" d="M340.15,569.3q-4.22,36.18-8.44,72.36l-14.47,18.09-14.47,18.09,33.16-15.07,33.16-15.08,77.18,3.62,10.71-44q-6.56-17.21-13.12-34.4Z" transform="translate(-261.16 -360.07)"/><path class="cls-17" d="M341.54,617.8q-1.17,11.24-2.36,22.48-8.25,13.23-16.52,26.45l42.48-26.45,67.27,2.65Z" transform="translate(-261.16 -360.07)"/><path class="cls-16" d="M563.25,599.45l117,7.24,14.47,57.89q6.64,10.24,13.27,20.5l-62.71-30.15q-4.83-13.27-9.65-26.53Z" transform="translate(-261.16 -360.07)"/><path class="cls-17" d="M647.67,630.81q2.42,9,4.82,18.09l35,20.5q-4.23-17.49-8.44-35Z" transform="translate(-261.16 -360.07)"/><path class="cls-18" d="M450.5,578.35l-4.83-9.65-108.53-3.62q-.61,5.43-1.21,10.86Z" transform="translate(-261.16 -360.07)"/><path class="cls-18" d="M556.62,596.44l127.84,6,1.2,9.65L565,603.67Z" transform="translate(-261.16 -360.07)"/><rect class="cls-1" x="406.41" y="136.27" width="25.33" height="7.24"/><rect class="cls-19" x="214.66" y="21.71" width="36.18" height="6.03"/><path class="cls-20" d="M646.23,656.78l18.93,31.75L561.48,707.45V578.31h27.28a31.42,31.42,0,0,0,31.42-31.42H471.35a31.42,31.42,0,0,0,31.42,31.42h27.29V707.45L426.38,688.53l18.93-31.75V544.46A100.46,100.46,0,0,1,545.77,444h0A100.46,100.46,0,0,1,646.23,544.46v36.09" transform="translate(-261.16 -360.07)"/></svg>