<svg id="Слой_1" data-name="Слой 1" xmlns="http://www.w3.org/2000/svg" viewBox="0 0 578.27 443.5"><defs><style>.cls-1{fill:#ffffc0;}.cls-2{fill:#ba8b76;}.cls-3{fill:#815d62;}.cls-4{fill:#553f3e;}.cls-5{fill:#6e272c;}.cls-6{fill:#ffd8a5;}.cls-7{fill:#bd8b90;}.cls-8{fill:#a8b6d6;}.cls-9{fill:#c58281;}.cls-10{fill:#84464b;}.cls-11{fill:#7b5e5c;}.cls-12{fill:none;stroke:#333;stroke-miterlimit:10;stroke-width:9px;}</style></defs><title>солнечное копье</title><rect class="cls-1" x="202.44" y="253.99" width="209.07" height="99.56"/><rect class="cls-2" x="202.44" y="326.17" width="209.07" height="27.38"/><path class="cls-3" d="M305.84,272.24h2.27a27.9,27.9,0,0,1,27.9,27.9v53.4a0,0,0,0,1,0,0H277.94a0,0,0,0,1,0,0v-53.4A27.9,27.9,0,0,1,305.84,272.24Z"/><path class="cls-4" d="M306.72,277.22h.51A23.8,23.8,0,0,1,331,301v52.53a0,0,0,0,1,0,0H282.91a0,0,0,0,1,0,0V301A23.8,23.8,0,0,1,306.72,277.22Z"/><path class="cls-5" d="M711.45,397.82,633.88,446v8.29l77.57-48.21L789,454.33V446Z" transform="translate(-222.36 -270.5)"/><polygon class="cls-6" points="566.66 183.83 566.66 353.55 411.51 353.55 411.51 183.83 489.08 135.62 566.66 183.83"/><polygon class="cls-6" points="11.62 197.54 107.03 154.85 202.44 197.54 202.44 353.55 11.62 353.55 11.62 197.54"/><polygon class="cls-5" points="107.03 147.91 11.62 190.6 11.62 197.42 107.03 154.73 202.44 197.42 202.44 190.6 107.03 147.91"/><rect class="cls-7" x="140.9" y="197.57" width="21.36" height="36.51"/><rect class="cls-7" x="520.2" y="190.1" width="19.91" height="28.21"/><rect class="cls-7" x="438.06" y="190.1" width="19.91" height="28.21"/><rect class="cls-8" x="145.53" y="203.38" width="12.11" height="24.89"/><rect class="cls-7" x="48.81" y="197.57" width="21.36" height="36.51"/><rect class="cls-8" x="53.44" y="203.38" width="12.11" height="24.89"/><rect class="cls-7" x="140.9" y="271.41" width="21.36" height="36.51"/><rect class="cls-8" x="145.53" y="277.22" width="12.11" height="24.89"/><rect class="cls-7" x="48.81" y="271.41" width="21.36" height="36.51"/><rect class="cls-8" x="53.44" y="277.22" width="12.11" height="24.89"/><rect class="cls-8" x="442.21" y="194.25" width="11.62" height="19.91"/><rect class="cls-7" x="520.2" y="254.82" width="19.91" height="28.21"/><rect class="cls-7" x="438.06" y="254.82" width="19.91" height="28.21"/><rect class="cls-8" x="442.21" y="258.97" width="11.62" height="19.91"/><rect class="cls-8" x="524.35" y="258.97" width="11.62" height="19.91"/><rect class="cls-8" x="524.35" y="194.25" width="11.62" height="19.91"/><rect class="cls-7" x="362.11" y="283.03" width="16.66" height="30.7"/><rect class="cls-8" x="365.88" y="288" width="9.13" height="20.74"/><rect class="cls-7" x="235.17" y="283.03" width="16.66" height="30.7"/><rect class="cls-8" x="238.94" y="288" width="9.13" height="20.74"/><rect class="cls-9" x="11.62" y="314.55" width="190.82" height="6.64"/><rect class="cls-9" x="11.62" y="240.71" width="190.82" height="6.64"/><rect class="cls-9" x="411.51" y="226.61" width="155.15" height="8.3"/><rect class="cls-9" x="411.51" y="291.32" width="155.15" height="8.3"/><rect class="cls-2" x="202.44" y="249.84" width="209.07" height="9.13"/><rect class="cls-10" x="202.44" y="240.71" width="209.07" height="9.13"/><rect class="cls-11" y="353.55" width="578.27" height="10.79"/><path class="cls-12" d="M570.78,617.86V452.65c0-18.66,37.1-34.37,37.1-35.11V306.08s-8-3.62-8-8.07V283.07A8.07,8.07,0,0,1,607.9,275H643a8.06,8.06,0,0,1,8.06,8.07V298c0,4.45-8.05,8.07-8.05,8.07V417.54c0,.74,37.1,16.45,37.1,35.11v91.24s-8-3.59-12.66-3.59A24.09,24.09,0,0,0,644,570a24.08,24.08,0,0,0-9.57,31.81,24.68,24.68,0,0,0-4.9-.49,24.16,24.16,0,0,0-24.12,23.08c-.4,0-.8-.06-1.2-.06a24.15,24.15,0,0,0-24.08,22.33,24.17,24.17,0,1,0,12.66,40.5,24.14,24.14,0,0,0,44.8,10.57,24.14,24.14,0,0,0,43.87-5.49,24.11,24.11,0,0,0,34.39-21.87c0-.63,0-1.25-.09-1.86a24.18,24.18,0,0,0,33.35-24.73A24.16,24.16,0,0,0,773,601.94a23.93,23.93,0,0,0,.37-4.09,24.14,24.14,0,0,0-31.72-23,24.13,24.13,0,0,0-22.37-15,23.93,23.93,0,0,0-4.09.37" transform="translate(-222.36 -270.5)"/></svg>