<svg id="Слой_1" data-name="Слой 1" xmlns="http://www.w3.org/2000/svg" viewBox="0 0 653.16 703.49"><defs><style>.cls-1{fill:#999;}.cls-2{fill:#7a7373;}.cls-3{fill:#ccc;}.cls-4{fill:#c7c6eb;}.cls-5{fill:#4c4545;}.cls-6{fill:#e0e0c2;}.cls-7{fill:#865e5e;}.cls-8{fill:#666;}.cls-9{fill:#595050;}.cls-10{fill:#996;}.cls-11{fill:#ffd6d6;}.cls-12{fill:#806666;}.cls-13{fill:#593e3e;}.cls-14{fill:#99c;}.cls-15{fill:#669;}.cls-16{fill:#966;}.cls-17{fill:#725c5c;}.cls-18{fill:#333;}.cls-19{fill:#726e55;}.cls-20{fill:#4c3939;}.cls-21{fill:#4c4a39;}.cls-22{fill:none;stroke:#333;stroke-miterlimit:10;stroke-width:9px;}</style></defs><title>старомест</title><rect class="cls-1" x="415.72" y="202.45" width="9.16" height="421.56"/><rect class="cls-1" x="330.75" y="202.45" width="9.16" height="421.56"/><rect class="cls-1" x="225.77" y="202.45" width="9.16" height="421.56"/><rect class="cls-1" x="140.8" y="202.45" width="9.16" height="421.56"/><rect class="cls-1" x="226.61" y="315.75" width="113.3" height="309.09"/><rect class="cls-2" x="226.61" y="315.75" width="7.5" height="309.09"/><rect class="cls-3" x="149.96" y="194.12" width="76.65" height="430.72"/><rect class="cls-3" x="339.91" y="194.12" width="76.65" height="429.89"/><rect class="cls-4" x="29.16" y="459.88" width="264.1" height="164.96"/><path class="cls-5" d="M283.68,338.24h0a12.91,12.91,0,0,1,12.91,12.91v53.74a0,0,0,0,1,0,0H270.76a0,0,0,0,1,0,0V351.16a12.91,12.91,0,0,1,12.91-12.91Z"/><rect class="cls-2" x="332.41" y="315.75" width="7.5" height="309.09"/><rect class="cls-6" x="293.26" y="416.56" width="229.11" height="208.28"/><polygon class="cls-7" points="254.93 239.94 226.61 315.75 339.91 315.75 311.58 239.94 254.93 239.94"/><polygon class="cls-8" points="226.19 194.12 149.54 194.12 187.87 24.99 226.19 194.12"/><polygon class="cls-5" points="176.54 74.98 187.87 8.33 199.19 74.98 176.54 74.98"/><polygon class="cls-8" points="416.03 194.12 339.38 194.12 377.71 24.99 416.03 194.12"/><polygon class="cls-5" points="366.38 74.98 377.71 8.33 389.03 74.98 366.38 74.98"/><polygon class="cls-1" points="430.72 157.46 419.08 157.46 424.9 118.3 430.72 157.46"/><rect class="cls-3" x="419.06" y="157.46" width="11.66" height="33.32"/><rect class="cls-9" x="226.61" y="315.75" width="113.3" height="11.66"/><polygon class="cls-10" points="350.53 344.91 293.26 412.39 522.36 412.39 465.09 344.91 350.53 344.91"/><polygon class="cls-7" points="95.18 384.06 29.16 459.88 293.26 459.88 227.23 384.06 95.18 384.06"/><rect class="cls-11" x="522.36" y="399.89" width="101.64" height="224.94"/><polygon class="cls-12" points="547.5 351.57 521.88 399.89 624.39 399.89 598.76 351.57 547.5 351.57"/><polygon class="cls-13" points="283.26 0 254.93 239.94 311.58 239.94 283.26 0"/><path class="cls-14" d="M344.07,423.22h0a11.65,11.65,0,0,1,11.65,11.65v16.67a0,0,0,0,1,0,0H332.41a0,0,0,0,1,0,0V434.88a11.65,11.65,0,0,1,11.65-11.65Z"/><path class="cls-14" d="M344.07,514.86h0a11.65,11.65,0,0,1,11.65,11.65v16.67a0,0,0,0,1,0,0H332.41a0,0,0,0,1,0,0V526.52a11.65,11.65,0,0,1,11.65-11.65Z"/><path class="cls-14" d="M472.37,469h0A11.65,11.65,0,0,1,484,480.7v16.67a0,0,0,0,1,0,0H460.71a0,0,0,0,1,0,0V480.7A11.65,11.65,0,0,1,472.37,469Z"/><path class="cls-14" d="M408.22,469h0a11.65,11.65,0,0,1,11.65,11.65v16.67a0,0,0,0,1,0,0H396.56a0,0,0,0,1,0,0V480.7A11.65,11.65,0,0,1,408.22,469Z"/><path class="cls-14" d="M344.07,469h0a11.65,11.65,0,0,1,11.65,11.65v16.67a0,0,0,0,1,0,0H332.41a0,0,0,0,1,0,0V480.7A11.65,11.65,0,0,1,344.07,469Z"/><path class="cls-14" d="M472.37,423.22h0A11.65,11.65,0,0,1,484,434.88v16.67a0,0,0,0,1,0,0H460.71a0,0,0,0,1,0,0V434.88A11.65,11.65,0,0,1,472.37,423.22Z"/><path class="cls-14" d="M408.22,423.22h0a11.65,11.65,0,0,1,11.65,11.65v16.67a0,0,0,0,1,0,0H396.56a0,0,0,0,1,0,0V434.88A11.65,11.65,0,0,1,408.22,423.22Z"/><path class="cls-14" d="M472.37,514.86h0A11.65,11.65,0,0,1,484,526.52v16.67a0,0,0,0,1,0,0H460.71a0,0,0,0,1,0,0V526.52a11.65,11.65,0,0,1,11.65-11.65Z"/><path class="cls-14" d="M408.22,514.86h0a11.65,11.65,0,0,1,11.65,11.65v16.67a0,0,0,0,1,0,0H396.56a0,0,0,0,1,0,0V526.52A11.65,11.65,0,0,1,408.22,514.86Z"/><path class="cls-14" d="M344.07,561.52h0a11.65,11.65,0,0,1,11.65,11.65v16.67a0,0,0,0,1,0,0H332.41a0,0,0,0,1,0,0V573.17A11.65,11.65,0,0,1,344.07,561.52Z"/><path class="cls-14" d="M472.37,561.52h0A11.65,11.65,0,0,1,484,573.17v16.67a0,0,0,0,1,0,0H460.71a0,0,0,0,1,0,0V573.17A11.65,11.65,0,0,1,472.37,561.52Z"/><path class="cls-14" d="M408.22,561.52h0a11.65,11.65,0,0,1,11.65,11.65v16.67a0,0,0,0,1,0,0H396.56a0,0,0,0,1,0,0V573.17A11.65,11.65,0,0,1,408.22,561.52Z"/><path class="cls-14" d="M573.6,424.89h0a11.25,11.25,0,0,1,11.25,11.25v16.25a0,0,0,0,1,0,0H562.35a0,0,0,0,1,0,0V436.14a11.25,11.25,0,0,1,11.25-11.25Z"/><path class="cls-14" d="M573.6,514h0a11.25,11.25,0,0,1,11.25,11.25v16.25a0,0,0,0,1,0,0H562.35a0,0,0,0,1,0,0V525.28A11.25,11.25,0,0,1,573.6,514Z"/><path class="cls-14" d="M573.6,469.88h0a11.25,11.25,0,0,1,11.25,11.25v16.25a0,0,0,0,1,0,0H562.35a0,0,0,0,1,0,0V481.12A11.25,11.25,0,0,1,573.6,469.88Z"/><path class="cls-14" d="M573.6,558.19h0a11.25,11.25,0,0,1,11.25,11.25v16.25a0,0,0,0,1,0,0H562.35a0,0,0,0,1,0,0V569.43A11.25,11.25,0,0,1,573.6,558.19Z"/><path class="cls-14" d="M76.23,471.54h0a11.25,11.25,0,0,1,11.25,11.25V499a0,0,0,0,1,0,0H65a0,0,0,0,1,0,0V482.79A11.25,11.25,0,0,1,76.23,471.54Z"/><path class="cls-14" d="M76.23,560.69h0a11.25,11.25,0,0,1,11.25,11.25v16.25a0,0,0,0,1,0,0H65a0,0,0,0,1,0,0V571.93a11.25,11.25,0,0,1,11.25-11.25Z"/><path class="cls-14" d="M192.87,516.53h0a11.25,11.25,0,0,1,11.25,11.25V544a0,0,0,0,1,0,0H181.62a0,0,0,0,1,0,0V527.78a11.25,11.25,0,0,1,11.25-11.25Z"/><path class="cls-14" d="M130.38,516.53h0a11.25,11.25,0,0,1,11.25,11.25V544a0,0,0,0,1,0,0H119.14a0,0,0,0,1,0,0V527.78A11.25,11.25,0,0,1,130.38,516.53Z"/><path class="cls-14" d="M76.23,516.53h0a11.25,11.25,0,0,1,11.25,11.25V544a0,0,0,0,1,0,0H65a0,0,0,0,1,0,0V527.78A11.25,11.25,0,0,1,76.23,516.53Z"/><path class="cls-14" d="M192.87,471.54h0a11.25,11.25,0,0,1,11.25,11.25V499a0,0,0,0,1,0,0H181.62a0,0,0,0,1,0,0V482.79A11.25,11.25,0,0,1,192.87,471.54Z"/><path class="cls-14" d="M130.38,471.54h0a11.25,11.25,0,0,1,11.25,11.25V499a0,0,0,0,1,0,0H119.14a0,0,0,0,1,0,0V482.79A11.25,11.25,0,0,1,130.38,471.54Z"/><path class="cls-14" d="M192.87,560.69h0a11.25,11.25,0,0,1,11.25,11.25v16.25a0,0,0,0,1,0,0H181.62a0,0,0,0,1,0,0V571.93a11.25,11.25,0,0,1,11.25-11.25Z"/><path class="cls-14" d="M130.38,560.69h0a11.25,11.25,0,0,1,11.25,11.25v16.25a0,0,0,0,1,0,0H119.14a0,0,0,0,1,0,0V571.93A11.25,11.25,0,0,1,130.38,560.69Z"/><path class="cls-14" d="M247,516.53h0a11.25,11.25,0,0,1,11.25,11.25V544a0,0,0,0,1,0,0H235.77a0,0,0,0,1,0,0V527.78A11.25,11.25,0,0,1,247,516.53Z"/><path class="cls-14" d="M247,471.54h0a11.25,11.25,0,0,1,11.25,11.25V499a0,0,0,0,1,0,0H235.77a0,0,0,0,1,0,0V482.79A11.25,11.25,0,0,1,247,471.54Z"/><path class="cls-14" d="M247,560.69h0a11.25,11.25,0,0,1,11.25,11.25v16.25a0,0,0,0,1,0,0H235.77a0,0,0,0,1,0,0V571.93A11.25,11.25,0,0,1,247,560.69Z"/><rect class="cls-1" x="330.75" y="190.78" width="94.14" height="11.66"/><polygon class="cls-9" points="430.72 190.78 419.08 190.78 424.9 199.11 430.72 190.78"/><rect class="cls-9" x="336.58" y="168.29" width="82.48" height="22.49"/><rect class="cls-9" x="145.79" y="168.29" width="84.14" height="22.49"/><rect class="cls-1" x="140.8" y="190.78" width="94.14" height="11.66"/><rect class="cls-1" x="419.06" y="170.79" width="11.66" height="19.99"/><rect class="cls-15" x="29.16" y="459.88" width="5" height="164.96"/><rect class="cls-15" x="288.26" y="459.88" width="5" height="164.96"/><rect class="cls-15" x="235.77" y="588.18" width="22.49" height="5"/><rect class="cls-15" x="332.41" y="543.19" width="23.33" height="5"/><rect class="cls-15" x="332.41" y="451.55" width="23.33" height="5"/><rect class="cls-15" x="332.41" y="497.37" width="23.33" height="5"/><rect class="cls-15" x="332.41" y="589.84" width="23.33" height="5"/><rect class="cls-15" x="235.77" y="499.04" width="22.49" height="5"/><rect class="cls-15" x="181.62" y="499.04" width="22.49" height="5"/><rect class="cls-15" x="119.14" y="499.04" width="22.49" height="5"/><rect class="cls-15" x="64.98" y="499.04" width="22.49" height="5"/><rect class="cls-15" x="235.77" y="544.02" width="22.49" height="5"/><rect class="cls-15" x="181.62" y="544.02" width="22.49" height="5"/><rect class="cls-15" x="119.14" y="544.02" width="22.49" height="5"/><rect class="cls-15" x="64.98" y="544.02" width="22.49" height="5"/><rect class="cls-15" x="64.98" y="588.18" width="22.49" height="5"/><rect class="cls-15" x="119.14" y="588.18" width="22.49" height="5"/><rect class="cls-15" x="181.62" y="588.18" width="22.49" height="5"/><rect class="cls-15" x="562.35" y="585.68" width="22.49" height="5"/><rect class="cls-15" x="562.35" y="452.38" width="22.49" height="5"/><rect class="cls-15" x="562.35" y="496.54" width="22.49" height="5"/><rect class="cls-15" x="562.35" y="540.69" width="22.49" height="5"/><rect class="cls-15" x="460.71" y="451.55" width="23.33" height="5"/><rect class="cls-15" x="460.71" y="497.37" width="23.33" height="5"/><rect class="cls-15" x="460.71" y="542.36" width="23.33" height="5"/><rect class="cls-15" x="460.71" y="589.84" width="23.33" height="5"/><rect class="cls-15" x="396.56" y="497.37" width="23.33" height="5"/><rect class="cls-15" x="396.56" y="543.19" width="23.33" height="5"/><rect class="cls-15" x="396.56" y="589.84" width="23.33" height="5"/><rect class="cls-15" x="396.56" y="451.55" width="23.33" height="5"/><rect class="cls-16" x="522.36" y="399.89" width="5.83" height="224.94"/><rect class="cls-16" x="618.17" y="399.89" width="5.83" height="224.94"/><path class="cls-8" d="M187.84,238.27h.05a4.56,4.56,0,0,1,4.56,4.56v32.1a0,0,0,0,1,0,0h-9.16a0,0,0,0,1,0,0v-32.1a4.56,4.56,0,0,1,4.56-4.56Z"/><path class="cls-5" d="M207.84,246.6h.05a4.56,4.56,0,0,1,4.56,4.56v23.77a0,0,0,0,1,0,0h-9.16a0,0,0,0,1,0,0V251.16A4.56,4.56,0,0,1,207.84,246.6Z"/><path class="cls-5" d="M168.68,246.6h.05a4.56,4.56,0,0,1,4.56,4.56v23.77a0,0,0,0,1,0,0h-9.16a0,0,0,0,1,0,0V251.16A4.56,4.56,0,0,1,168.68,246.6Z"/><path class="cls-5" d="M187.84,238.27h.05a4.56,4.56,0,0,1,4.56,4.56v32.1a0,0,0,0,1,0,0h-9.16a0,0,0,0,1,0,0v-32.1a4.56,4.56,0,0,1,4.56-4.56Z"/><path class="cls-5" d="M377.79,238.27h.05a4.56,4.56,0,0,1,4.56,4.56v32.1a0,0,0,0,1,0,0h-9.16a0,0,0,0,1,0,0v-32.1A4.56,4.56,0,0,1,377.79,238.27Z"/><path class="cls-5" d="M397.79,246.6h.05a4.56,4.56,0,0,1,4.56,4.56v23.77a0,0,0,0,1,0,0h-9.16a0,0,0,0,1,0,0V251.16A4.56,4.56,0,0,1,397.79,246.6Z"/><path class="cls-5" d="M358.63,246.6h.05a4.56,4.56,0,0,1,4.56,4.56v23.77a0,0,0,0,1,0,0h-9.16a0,0,0,0,1,0,0V251.16A4.56,4.56,0,0,1,358.63,246.6Z"/><path class="cls-17" d="M120.09,414.47h1.42A15.54,15.54,0,0,1,137,430v.29a0,0,0,0,1,0,0H104.56a0,0,0,0,1,0,0V430A15.54,15.54,0,0,1,120.09,414.47Z"/><path class="cls-13" d="M323.72,593.56h-35V592a16.8,16.8,0,0,1,16.78-16.79h1.42A16.81,16.81,0,0,1,323.72,592Zm-32.46-2.5h29.93a14.31,14.31,0,0,0-14.26-13.33h-1.42A14.3,14.3,0,0,0,291.26,591.06Z" transform="translate(-185.42 -162.01)"/><path class="cls-17" d="M200.91,414.47h1.42A15.54,15.54,0,0,1,217.86,430v.29a0,0,0,0,1,0,0H185.37a0,0,0,0,1,0,0V430A15.54,15.54,0,0,1,200.91,414.47Z"/><path class="cls-13" d="M404.53,593.56h-35V592a16.8,16.8,0,0,1,16.78-16.79h1.42A16.81,16.81,0,0,1,404.53,592Zm-32.46-2.5H402a14.31,14.31,0,0,0-14.26-13.33h-1.42A14.3,14.3,0,0,0,372.07,591.06Z" transform="translate(-185.42 -162.01)"/><rect class="cls-9" x="547.36" y="344.91" width="51.65" height="6.66"/><rect class="cls-9" x="94.97" y="379.07" width="131.63" height="5"/><polygon class="cls-1" points="336.69 157.46 325.05 157.46 330.87 118.3 336.69 157.46"/><rect class="cls-3" x="324.91" y="157.46" width="11.66" height="33.32"/><polygon class="cls-9" points="336.69 190.78 325.05 190.78 330.87 199.11 336.69 190.78"/><rect class="cls-1" x="324.91" y="170.79" width="11.66" height="19.99"/><polygon class="cls-1" points="240.45 157.46 228.81 157.46 234.63 118.3 240.45 157.46"/><rect class="cls-3" x="229.11" y="157.46" width="11.66" height="33.32"/><polygon class="cls-9" points="240.45 190.78 228.81 190.78 234.63 199.11 240.45 190.78"/><rect class="cls-1" x="229.11" y="170.79" width="11.66" height="19.99"/><polygon class="cls-1" points="146.88 156.63 135.24 156.63 141.06 117.47 146.88 156.63"/><rect class="cls-3" x="134.96" y="156.63" width="11.66" height="33.32"/><polygon class="cls-9" points="146.88 190.78 135.24 190.78 141.06 199.11 146.88 190.78"/><rect class="cls-1" x="134.96" y="170.79" width="11.66" height="19.99"/><path class="cls-18" d="M569.48,322H557V302.39a31.23,31.23,0,0,1,6.25-18.75h0a31.29,31.29,0,0,1,6.24,18.75V322Z" transform="translate(-185.42 -162.01)"/><path class="cls-18" d="M379.53,322H367V302.39a31.23,31.23,0,0,1,6.25-18.75h0a31.29,31.29,0,0,1,6.24,18.75V322Z" transform="translate(-185.42 -162.01)"/><rect class="cls-1" x="149.96" y="290.76" width="76.65" height="8.33"/><rect class="cls-1" x="339.91" y="290.76" width="76.65" height="8.33"/><rect class="cls-19" x="350.74" y="335.74" width="114.14" height="9.16"/><rect class="cls-20" x="522.36" y="399.89" width="101.64" height="7.5"/><rect class="cls-21" x="293.26" y="412.39" width="229.11" height="7.5"/><rect class="cls-9" y="624.84" width="653.16" height="16.66"/><path class="cls-22" d="M665.38,755.21,615,745.13l-18.42,20.54-7.05,2.66-47.45-5.58-32.74,8.93q-8.93,25.3-17.86,50.6a346.66,346.66,0,0,0,312.52,3l-20.83-14.88V780.46l-25.29-21.11-35,6.37-23.29-4.66,20.27-19.46V629H660.71V235.74h15v-30H616.56v30h14.16V629H571.57V741.86" transform="translate(-185.42 -162.01)"/><rect class="cls-13" x="29.16" y="459.88" width="264.1" height="5.83"/></svg>