<svg id="Слой_1" data-name="Слой 1" xmlns="http://www.w3.org/2000/svg" viewBox="0 0 451.37 429.16"><defs><style>.cls-1{fill:#534b48;}.cls-2{fill:#b2a971;}.cls-3{fill:#7f7a58;}.cls-4{fill:#fbf5d2;}.cls-5{fill:#736d63;}.cls-6{fill:#948f71;}.cls-7{fill:#adb3af;}.cls-8{fill:#948080;}.cls-9{fill:#605e56;}.cls-10{fill:#676680;}.cls-11{fill:#5c5c5c;}.cls-12{fill:#403f39;}.cls-13{fill:#858599;}.cls-14{fill:#593e3e;}.cls-15{fill:#432f2f;}.cls-16{fill:#7f4b4b;}.cls-17{fill:#2d1f1f;}.cls-18{fill:none;stroke:#333;stroke-miterlimit:10;stroke-width:9px;}</style></defs><title>утес кастерли</title><path class="cls-1" d="M516.49,336.34l-83.1,35.91-62,54.92q-2.48,44-4.93,88,3.53,73.93,7,147.87c14.69,12.23,58.68,33.84,143.65,32.39,75.79-1.29,140.82-15.4,157-28.17l-5.64-54.22q2.48-39.08,4.93-78.16l-19-80.27q-11.62-34.51-23.24-69l-41.54-35.91Z" transform="translate(-287.63 -286.05)"/><ellipse class="cls-2" cx="238.01" cy="388.28" rx="158.44" ry="36.62"/><rect class="cls-3" x="503.11" y="332.82" width="15.49" height="277.44" transform="translate(-248.32 696.33) rotate(-90)"/><rect class="cls-4" x="126.04" y="90.42" width="16.9" height="293.64"/><rect class="cls-4" x="302.79" y="90.42" width="16.9" height="293.64"/><path class="cls-5" d="M370.72,353.24l-75.34,82.38,23.94,64.08q-1.76,19.73-3.52,39.44l81.68-13.38,2.82-84.5,49.29-47.88Z" transform="translate(-287.63 -286.05)"/><path class="cls-6" d="M295.38,494.07q-3.87,21.12-7.75,42.25l12.68,36.62,29.92-2.12,29.93-2.11,62,16,3.27-33.48-18.06-50.17H332.7L314,497.59Z" transform="translate(-287.63 -286.05)"/><path class="cls-7" d="M330.59,558.15q-14.44,19-28.87,38-.36,25.71-.71,51.41l-12,21.83,95.06,3.52,61.26,4.93-23.94-73.94L434.1,567.3l-54.93-36.61Z" transform="translate(-287.63 -286.05)"/><path class="cls-8" d="M396.78,344.79l-19.72,51.4,83.09,14.09,26.06-14.79,35.91-2.82q-2.82-28.17-5.63-56.33L439,331.41Z" transform="translate(-287.63 -286.05)"/><path class="cls-9" d="M535.4,348.06,576.75,397l50.71-2.64,15.74,23.74,27.43-38.16-72.84-31.8Z" transform="translate(-287.63 -286.05)"/><path class="cls-10" d="M510.85,306.76l-27.46,17.61L474.24,349l90.13,14.79L613,365.21V315.92Z" transform="translate(-287.63 -286.05)"/><path class="cls-11" d="M660.84,392.67,620,376.48c.23,14.08,1.17,70.41,1.41,84.49q3,7.75,6,15.5t6,15.49l-2.82,40.13,54.92-25.34L727,483.51l-20.42-56.34-40.14-14.78Q663.65,402.54,660.84,392.67Z" transform="translate(-287.63 -286.05)"/><path class="cls-12" d="M714.62,508.4l-40.23-19.68-44.15,21.93,10.56,68.22,36.15,21,43.81-24.13Q717.69,542.07,714.62,508.4Z" transform="translate(-287.63 -286.05)"/><path class="cls-13" d="M660.13,566.6l-30.27,37.32q-1.07,13.38-2.12,26.76L620,659.55q2.46,8.44,4.93,16.9L670,677.86l69-15.5L692.53,584.2Z" transform="translate(-287.63 -286.05)"/><circle class="cls-14" cx="233.03" cy="366.83" r="16.99"/><path class="cls-15" d="M519.29,650.82V597.66l5.33-3.27q0,29.52,0,59.05a3.37,3.37,0,0,1-4.67,3.11l-57.44-24,5.34-3.28Z" transform="translate(-287.63 -286.05)"/><polygon class="cls-16" points="303.08 312.48 194.83 364.18 168.63 350.03 277.92 275.55 303.08 312.48"/><polygon class="cls-15" points="174.83 353.37 168.63 350.03 277.92 275.55 281.98 281.52 174.83 353.37"/><rect class="cls-17" x="564.97" y="555.17" width="21.43" height="4.56" transform="translate(-501.6 134.96) rotate(-34.27)"/><path class="cls-18" d="M643.36,394.8l-314,314.05-16.2-16.21L627.75,378l.37-.37c-59-54.54-124-83.84-124-83.84,11.88-11.87,92.42,8.31,154.55,70.44S741,506.9,729.11,518.77c0,0-18.06-40.1-52.26-85.9" transform="translate(-287.63 -286.05)"/></svg>