<svg xmlns="http://www.w3.org/2000/svg" viewBox="0 0 604 375.79"><defs><style>.cls-1{fill:#e0e0a3;}.cls-2{fill:#c2c2cc;}.cls-3{fill:#ccc;}.cls-4{fill:#cccbc7;}.cls-5{fill:#ccc7c7;}.cls-6{fill:#b2b1ab;}.cls-7{fill:#9898a3;}.cls-8{fill:#a39898;}.cls-9{fill:#7b7777;}.cls-10{fill:#999;}.cls-11{fill:#948f8f;}.cls-12{fill:#867878;}.cls-13{fill:#7c7c7c;}.cls-14{fill:#595850;}.cls-15{fill:none;stroke:#333;stroke-miterlimit:10;stroke-width:10.76px;}</style></defs><title>ХАЙГАРДЕН</title><g id="Слой_2" data-name="Слой 2"><ellipse class="cls-1" cx="302" cy="327.28" rx="302" ry="48.51"/></g><g id="Слой_1" data-name="Слой 1"><rect class="cls-2" x="99.36" y="140.29" width="73.54" height="157.26"/><rect class="cls-2" x="284.01" y="92.57" width="78.24" height="204.98"/><rect class="cls-3" x="362.24" y="224.01" width="68.85" height="74.33"/><rect class="cls-3" x="431.09" y="139.51" width="73.54" height="158.04"/><rect class="cls-4" x="93.1" y="95.7" width="87.63" height="44.6"/><rect class="cls-5" x="278.53" y="47.97" width="87.63" height="44.6"/><rect class="cls-6" x="423.27" y="94.92" width="87.63" height="44.6"/><rect class="cls-4" x="93.1" y="88.66" width="6.26" height="7.04"/><rect class="cls-4" x="109.53" y="88.66" width="6.26" height="7.04"/><rect class="cls-4" x="125.18" y="88.66" width="6.26" height="7.04"/><rect class="cls-4" x="141.61" y="88.66" width="6.26" height="7.04"/><rect class="cls-4" x="158.04" y="88.66" width="6.26" height="7.04"/><rect class="cls-4" x="174.47" y="88.66" width="6.26" height="7.04"/><rect class="cls-5" x="278.53" y="39.37" width="6.26" height="8.61"/><rect class="cls-5" x="294.96" y="39.37" width="6.26" height="8.61"/><rect class="cls-5" x="311.39" y="39.37" width="6.26" height="8.61"/><rect class="cls-5" x="327.82" y="39.37" width="6.26" height="8.61"/><rect class="cls-5" x="344.25" y="39.37" width="6.26" height="8.61"/><rect class="cls-5" x="359.9" y="39.37" width="6.26" height="8.61"/><rect class="cls-6" x="423.27" y="87.09" width="6.26" height="7.82"/><rect class="cls-6" x="439.7" y="87.09" width="6.26" height="7.82"/><rect class="cls-6" x="456.13" y="87.09" width="6.26" height="7.82"/><rect class="cls-6" x="472.56" y="87.09" width="6.26" height="7.82"/><rect class="cls-6" x="488.21" y="87.09" width="6.26" height="7.82"/><rect class="cls-6" x="504.64" y="87.09" width="6.26" height="7.82"/><rect class="cls-7" x="93.1" y="135.6" width="87.63" height="4.69"/><rect class="cls-8" x="423.27" y="134.82" width="87.63" height="4.69"/><rect class="cls-7" x="278.53" y="87.87" width="87.63" height="4.69"/><rect class="cls-9" x="59.46" y="297.55" width="482.73" height="8.61"/></g><g id="Слой_3" data-name="Слой 3"><rect class="cls-10" x="186.99" y="119.95" width="228.46" height="177.6"/><rect class="cls-11" x="63.37" y="187.24" width="474.91" height="110.32"/><path class="cls-12" d="M423.59,618.62H282.76V585.24c0-32.3,31.53-53.47,70.42-53.47h0c38.89,0,70.41,21.17,70.41,53.47Z" transform="translate(-210 -321.06)"/><path class="cls-12" d="M580.85,618.62H440V585.24c0-32.3,31.53-53.47,70.42-53.47h0c38.88,0,70.41,21.17,70.41,53.47Z" transform="translate(-210 -321.06)"/><path class="cls-12" d="M738.89,618.62H598.06V585.24c0-32.3,31.53-53.47,70.42-53.47h0c38.89,0,70.41,21.17,70.41,53.47Z" transform="translate(-210 -321.06)"/><polygon class="cls-11" points="301.31 78.48 186.99 119.95 415.64 119.95 301.31 78.48"/><polygon class="cls-10" points="301.31 83.18 212.87 115.26 389.75 115.26 301.31 83.18"/><path class="cls-13" d="M299.32,134h3A17.66,17.66,0,0,1,320,151.69V181a0,0,0,0,1,0,0H281.66a0,0,0,0,1,0,0V151.69A17.66,17.66,0,0,1,299.32,134Z"/><path class="cls-13" d="M359.56,134h3a17.66,17.66,0,0,1,17.66,17.66V181a0,0,0,0,1,0,0H341.9a0,0,0,0,1,0,0V151.69A17.66,17.66,0,0,1,359.56,134Z"/><path class="cls-14" d="M416.55,618.62H289.8v-31c0-30,28.38-49.73,63.38-49.73h0c35,0,63.37,19.69,63.37,49.73Z" transform="translate(-210 -321.06)"/><path class="cls-13" d="M239.86,134h3a17.66,17.66,0,0,1,17.66,17.66V181a0,0,0,0,1,0,0H222.2a0,0,0,0,1,0,0V151.69A17.66,17.66,0,0,1,239.86,134Z"/><path class="cls-14" d="M573.81,618.62H447.06v-31c0-30,28.38-49.73,63.38-49.73h0c35,0,63.37,19.69,63.37,49.73Z" transform="translate(-210 -321.06)"/><path class="cls-14" d="M731.85,618.62H605.1v-31c0-30,28.38-49.73,63.38-49.73h0c35,0,63.37,19.69,63.37,49.73Z" transform="translate(-210 -321.06)"/><rect class="cls-13" x="63.37" y="187.24" width="474.91" height="8.61"/><rect class="cls-9" x="186.99" y="119.95" width="228.46" height="7.82"/><polygon class="cls-10" points="473.34 169.24 462.39 169.24 462.39 155.94 467.87 150.47 473.34 155.94 473.34 169.24"/><polygon class="cls-7" points="141.61 169.24 130.66 169.24 130.66 155.94 136.13 149.68 141.61 155.94 141.61 169.24"/></g><g id="Слой_4" data-name="Слой 4"><path class="cls-15" d="M653.1,544l-2.74-25.55L638.27,405.94c-18.62-45.21-61-76.07-109-79.23-74.9-4.94-116.09,60.63-118.3,64.28-20.28,33.59-19.51,67.33-18.42,81.1l106.57-13.42-108.6,55.4q-14.62,70.06-29.24,140.14a326,326,0,0,0,69.23,19.16,318.44,318.44,0,0,0,79.66,2.74c48.45-4.45,128.16-33.38,152.31-45.11" transform="translate(-210 -321.06)"/></g></svg>