<svg id="Слой_1" data-name="Слой 1" xmlns="http://www.w3.org/2000/svg" viewBox="0 0 512 394.13"><defs><style>.cls-1{fill:#322c2c;}.cls-2{fill:#7d6e57;}.cls-3{fill:#645543;}.cls-4{fill:#333;}.cls-5{fill:#6f5656;}.cls-6{fill:#523a3a;}.cls-7{fill:#838693;}.cls-8{fill:#484040;}.cls-9{fill:#61525b;}.cls-10{fill:#463636;}.cls-11{fill:#594f4f;}.cls-12{fill:#302a2a;}.cls-13{fill:#4d4444;}.cls-14{fill:none;stroke:#333;stroke-miterlimit:10;stroke-width:9px;}</style></defs><title>ХАРЧЕВНЯ</title><rect class="cls-1" x="9.7" y="242.93" width="428.41" height="99.27"/><rect class="cls-2" x="14.08" y="242.93" width="424.03" height="99.27"/><rect class="cls-3" x="29.11" y="157.06" width="369.45" height="84.38"/><path class="cls-4" d="M656.17,557.76H283.49V470.15H656.17Zm-369.45-3.23H652.94V473.38H286.72Z" transform="translate(-256 -314.71)"/><polygon class="cls-5" points="13.71 161.54 457.31 161.54 393.92 115.37 361.12 65.26 109.9 65.26 77.11 115.37 13.71 161.54"/><rect class="cls-3" x="438.11" y="221.28" width="67.17" height="120.91"/><rect class="cls-2" x="375.42" y="92.13" width="62.69" height="55.23"/><polygon class="cls-6" points="366.87 92.13 446.68 92.13 425.19 69.51 406.77 30.48 388.36 69.51 366.87 92.13"/><rect class="cls-2" x="137.69" y="99.81" width="40.29" height="28.89"/><rect class="cls-2" x="292.97" y="99.81" width="40.29" height="28.89"/><polygon class="cls-6" points="158.04 77.88 131.59 99.81 184.49 99.81 158.04 77.88"/><polygon class="cls-6" points="312.92 77.88 286.47 99.81 339.36 99.81 312.92 77.88"/><rect class="cls-7" x="393.7" y="102.95" width="26.12" height="32.96"/><path class="cls-8" d="M678.53,452.75H647V414.66h31.53Zm-27.09-4.63h22.7V419.57h-22.7Z" transform="translate(-256 -314.71)"/><polygon class="cls-9" points="52.99 133.22 38.81 143.46 38.81 86.16 52.99 86.16 52.99 133.22"/><rect class="cls-2" x="36.97" y="74.28" width="17.98" height="11.88"/><rect class="cls-10" x="36.97" y="66.44" width="17.98" height="7.76"/><path class="cls-6" d="M67.49,172.69h.3A23.17,23.17,0,0,1,91,195.86v37.45a0,0,0,0,1,0,0H44.32a0,0,0,0,1,0,0V195.86A23.17,23.17,0,0,1,67.49,172.69Z"/><path class="cls-7" d="M67.52,178h0a19,19,0,0,1,19,19v31a0,0,0,0,1,0,0H48.51a0,0,0,0,1,0,0V197A19,19,0,0,1,67.52,178Z"/><path class="cls-6" d="M218.3,172.69h0a23,23,0,0,1,23,23v37.59a0,0,0,0,1,0,0H195.27a0,0,0,0,1,0,0V195.72A23,23,0,0,1,218.3,172.69Z"/><path class="cls-6" d="M142.68,172.69h.3a23.17,23.17,0,0,1,23.17,23.17v37.45a0,0,0,0,1,0,0H119.51a0,0,0,0,1,0,0V195.86a23.17,23.17,0,0,1,23.17-23.17Z"/><path class="cls-7" d="M218.29,178h0a19,19,0,0,1,19,19v31a0,0,0,0,1,0,0H199.28a0,0,0,0,1,0,0V197a19,19,0,0,1,19-19Z"/><path class="cls-7" d="M142.91,178h0a19,19,0,0,1,19,19v31a0,0,0,0,1,0,0H123.9a0,0,0,0,1,0,0V197A19,19,0,0,1,142.91,178Z"/><rect class="cls-6" x="310.48" y="165.31" width="48.51" height="79.86"/><rect class="cls-1" x="314.96" y="169.78" width="39.93" height="71.65"/><path class="cls-6" d="M56.57,252h7.05a26.82,26.82,0,0,1,26.82,26.82v61.83a0,0,0,0,1,0,0H29.75a0,0,0,0,1,0,0V278.79A26.82,26.82,0,0,1,56.57,252Z"/><path class="cls-11" d="M57.28,257.85h4.85A22.95,22.95,0,0,1,85.08,280.8v54.67a0,0,0,0,1,0,0H34.33a0,0,0,0,1,0,0V280.8A22.95,22.95,0,0,1,57.28,257.85Z"/><path class="cls-6" d="M258.44,252h7.05a26.82,26.82,0,0,1,26.82,26.82v61.83a0,0,0,0,1,0,0h-60.7a0,0,0,0,1,0,0V278.79A26.82,26.82,0,0,1,258.44,252Z"/><path class="cls-6" d="M157.1,252h7.05A26.82,26.82,0,0,1,191,278.79v61.83a0,0,0,0,1,0,0h-60.7a0,0,0,0,1,0,0V278.79A26.82,26.82,0,0,1,157.1,252Z"/><path class="cls-11" d="M259.54,257.85h4.85a22.95,22.95,0,0,1,22.95,22.95v54.67a0,0,0,0,1,0,0H236.59a0,0,0,0,1,0,0V280.8A22.95,22.95,0,0,1,259.54,257.85Z"/><path class="cls-11" d="M158,257.85h4.85a22.95,22.95,0,0,1,22.95,22.95v54.67a0,0,0,0,1,0,0H135.09a0,0,0,0,1,0,0V280.8A22.95,22.95,0,0,1,158,257.85Z"/><path class="cls-1" d="M397.31,257.68H399a20.17,20.17,0,0,1,20.17,20.17v60a0,0,0,0,1,0,0H377.14a0,0,0,0,1,0,0v-60A20.17,20.17,0,0,1,397.31,257.68Z"/><path class="cls-8" d="M398.52,262.33h.07a17.13,17.13,0,0,1,17.13,17.13v53.77a0,0,0,0,1,0,0H381.39a0,0,0,0,1,0,0V279.47a17.13,17.13,0,0,1,17.13-17.13Z"/><rect class="cls-12" x="441.84" y="161.54" width="10.45" height="59.75"/><rect class="cls-8" x="8.21" y="236.96" width="429.9" height="10.45"/><rect class="cls-8" x="106.73" y="58.27" width="257.49" height="9.23"/><rect class="cls-6" x="13.43" y="153.07" width="444.83" height="8.47"/><rect class="cls-7" x="300.29" y="104.45" width="25.51" height="19.6"/><path class="cls-6" d="M583.07,440.15H555V417.77h28.06Zm-24.69-3.59h21.33v-15.2H558.38Z" transform="translate(-256 -314.71)"/><rect class="cls-7" x="145.02" y="104.45" width="25.79" height="19.6"/><path class="cls-6" d="M428.1,440.15H399.74V417.77H428.1Zm-25-3.59h21.59v-15.2H403.12Z" transform="translate(-256 -314.71)"/><rect class="cls-10" y="331" width="438.11" height="11.2"/><rect class="cls-8" x="432.14" y="221.28" width="79.86" height="11.94"/><rect class="cls-6" x="438.26" y="325.52" width="69.47" height="17.16"/><rect class="cls-13" x="433.35" y="91.77" width="4.9" height="55.58"/><rect class="cls-13" x="375.32" y="91.77" width="4.9" height="55.58"/><path class="cls-14" d="M547.65,432.37,647.06,333l62.42-12.48q-6.87,30.58-13.73,61.17L594.64,482.75l8.25,8.24,94.83,94.84a42.92,42.92,0,0,1,0,60.71L654.29,690a42.93,42.93,0,0,1-60.72,0L483,579.41l-98.1,98.09L392.4,685l-17.48,17.48L325,652.54l17.48-17.48,10,10,98.1-98.1h0L436.1,532.5c-14.83-14.83-6.34-46.27-5.13-54.54.56-3.85,2.48-16-5.5-24.38l-64.12-64.12-.27-.46a16.27,16.27,0,0,1-19.77-2.51l-11.14-11.14a16.27,16.27,0,0,1,0-23l28.22-28.22a16.27,16.27,0,0,1,23,0l11.14,11.14A16.27,16.27,0,0,1,395,355l.46.27,63.13,63.13" transform="translate(-256 -314.71)"/></svg>