<svg xmlns="http://www.w3.org/2000/svg" viewBox="0 0 348 348.5"><defs><style>.cls-1{fill:#603e3e;}.cls-2{fill:#b29898;}.cls-3{fill:#715151;}.cls-4{fill:#856666;}.cls-5{fill:#947d7d;}.cls-6{fill:#4d2626;}.cls-7{fill:#886464;}.cls-8{fill:#300;}.cls-9{fill:#633;}.cls-10{fill:#806565;}.cls-11{fill:#260f0f;}.cls-12{fill:#503630;}.cls-13{fill:none;stroke:#333;stroke-miterlimit:10;stroke-width:9px;}</style></defs><title>ЦИТАДЕЛЬ</title><g id="Слой_1" data-name="Слой 1"><polygon class="cls-1" points="206.01 140.05 89.06 140.05 108.3 105.81 186.78 105.81 206.01 140.05"/><rect class="cls-2" x="107.69" y="139.55" width="160.28" height="99.74"/><rect class="cls-3" x="217.85" y="26.41" width="8.44" height="10.92"/><rect class="cls-3" x="239.19" y="26.41" width="8.44" height="10.92"/><rect class="cls-3" x="259.53" y="26.41" width="8.44" height="10.92"/><rect class="cls-4" x="217.85" y="36.83" width="50.12" height="288.31"/><rect class="cls-5" x="182.12" y="166.35" width="123.56" height="158.79"/><rect class="cls-6" x="89.33" y="139.05" width="116.61" height="6.95"/><rect class="cls-7" x="108.18" y="239.29" width="73.94" height="85.85"/><polygon class="cls-8" points="76.41 24.98 44.62 87.98 33.51 100.84 119.31 100.84 108.19 87.98 76.41 24.98"/><polygon class="cls-8" points="313.5 166.35 174.78 166.35 197.52 115.73 290.76 115.73 313.5 166.35"/><polygon class="cls-5" points="261.02 167.34 227.28 167.34 227.28 147.13 244.15 126.82 261.02 147.13 261.02 167.34"/><rect class="cls-1" x="227.28" y="177.26" width="33.74" height="5.95"/><rect class="cls-3" x="182.12" y="244.75" width="123.56" height="7.44"/><polygon class="cls-8" points="247.13 167.34 241.17 167.34 241.17 160.22 244.15 153.07 247.13 160.22 247.13 167.34"/><polygon class="cls-8" points="214.37 205.05 205.94 205.05 205.94 193.37 210.16 181.62 214.37 193.37 214.37 205.05"/><polygon class="cls-8" points="281.86 205.05 273.43 205.05 273.43 193.37 277.64 181.62 281.86 193.37 281.86 205.05"/><rect class="cls-9" x="124.06" y="152.07" width="6.89" height="14.81"/><rect class="cls-10" x="45.16" y="100.84" width="63.02" height="224.29"/><rect class="cls-9" x="154.39" y="152.07" width="6.89" height="14.81"/><path class="cls-8" d="M76.42,125.66h0a4,4,0,0,1,4,4v11.91a0,0,0,0,1,0,0H72.45a0,0,0,0,1,0,0V129.63a4,4,0,0,1,4-4Z"/><path class="cls-8" d="M76.42,173.79h0a4,4,0,0,1,4,4v11.91a0,0,0,0,1,0,0H72.45a0,0,0,0,1,0,0V177.76A4,4,0,0,1,76.42,173.79Z"/><polygon class="cls-6" points="232.73 92.41 226.78 92.41 226.78 85.29 229.76 78.14 232.73 85.29 232.73 92.41"/><polygon class="cls-6" points="259.53 92.41 253.58 92.41 253.58 85.29 256.55 78.14 259.53 85.29 259.53 92.41"/><polygon class="cls-6" points="246.63 70.58 239.68 70.58 239.68 61.96 243.16 53.31 246.63 61.96 246.63 70.58"/><rect class="cls-9" x="139.68" y="202.04" width="6.89" height="14.81"/><path class="cls-11" d="M609,662.89h-52.6V621.56c0-15.54,11.77-28.14,26.3-28.14h0c14.52,0,26.3,12.6,26.3,28.14Z" transform="translate(-338.5 -337.75)"/><path class="cls-8" d="M420.38,617.24H409.47V604.53l.07-.6c.81-6.31,10-6.31,10.77,0l.07.6Z" transform="translate(-338.5 -337.75)"/><path class="cls-8" d="M488.86,617.24H477.94V604.53l.08-.6c.81-6.31,10-6.31,10.76,0l.08.6Z" transform="translate(-338.5 -337.75)"/><rect class="cls-12" x="38.21" y="325.14" width="274.41" height="13.4"/></g><g id="Слой_2" data-name="Слой 2"><polyline class="cls-13" points="233.08 114.18 343.5 114.18 343.5 233.32 232.83 233.32 232.83 344 114.18 344 114.18 233.32 4.5 233.32 4.5 114.18 114.18 114.18 114.18 4.5 233.08 4.5"/></g></svg>