<svg id="Слой_1" data-name="Слой 1" xmlns="http://www.w3.org/2000/svg" viewBox="0 0 599.62 468.91"><defs><style>.cls-1{fill:#415970;}.cls-2{fill:#b8b5b5;}.cls-3{fill:#948f8f;}.cls-4{fill:#ccc;}.cls-5{fill:#666;}.cls-6{fill:#999;}.cls-7{fill:#4a4848;}.cls-8{fill:#adadad;}.cls-9{fill:#cdc8c8;}.cls-10{fill:#a9a5a5;}.cls-11{fill:#bfbcbc;}.cls-12{fill:none;stroke:#333;stroke-miterlimit:10;stroke-width:9px;}</style></defs><title>чаячий городок2</title><ellipse class="cls-1" cx="299.81" cy="419.9" rx="299.81" ry="49.02"/><rect class="cls-2" x="61.27" y="310.43" width="348.82" height="88.23"/><rect class="cls-3" x="102.11" y="240.99" width="102.93" height="69.44"/><rect class="cls-4" x="97.21" y="246.71" width="107.83" height="8.99"/><rect class="cls-2" x="179.72" y="192.79" width="125.81" height="117.64"/><rect class="cls-3" x="189.53" y="139.69" width="106.2" height="53.1"/><path class="cls-2" d="M401.91,417.61h106.2v-27A41.64,41.64,0,0,0,466.46,349H443.55a41.64,41.64,0,0,0-41.64,41.64Z" transform="translate(-212.38 -277.92)"/><rect class="cls-5" x="410.09" y="340.66" width="129.07" height="58"/><rect class="cls-5" x="187.07" y="130.71" width="111.1" height="8.99"/><rect class="cls-6" x="158.48" y="303.08" width="13.89" height="95.58"/><path class="cls-7" d="M500.75,588.35H409.26V554A45.75,45.75,0,0,1,455,508.29h0A45.74,45.74,0,0,1,500.75,554Z" transform="translate(-212.38 -277.92)"/><rect class="cls-6" x="88.23" y="303.08" width="13.89" height="95.58"/><rect class="cls-6" x="228.74" y="303.08" width="13.89" height="95.58"/><rect class="cls-3" x="270.4" y="249.16" width="122.54" height="61.27"/><path class="cls-7" d="M498.37,582.63h-5.79V541.36a2.86,2.86,0,0,1,2.85-2.85h.09a2.86,2.86,0,0,1,2.85,2.85Z" transform="translate(-212.38 -277.92)"/><path class="cls-7" d="M514.56,582.63h-5.78V541.36a2.85,2.85,0,0,1,2.84-2.85h.09a2.86,2.86,0,0,1,2.85,2.85Z" transform="translate(-212.38 -277.92)"/><path class="cls-7" d="M530.75,582.63H525V541.36a2.85,2.85,0,0,1,2.84-2.85h.1a2.85,2.85,0,0,1,2.84,2.85Z" transform="translate(-212.38 -277.92)"/><path class="cls-7" d="M546.94,582.63h-5.78V541.36a2.85,2.85,0,0,1,2.84-2.85h.1a2.85,2.85,0,0,1,2.84,2.85Z" transform="translate(-212.38 -277.92)"/><path class="cls-7" d="M563.13,582.63h-5.78V541.36a2.85,2.85,0,0,1,2.85-2.85h.09a2.85,2.85,0,0,1,2.84,2.85Z" transform="translate(-212.38 -277.92)"/><path class="cls-7" d="M579.32,582.63h-5.78V541.36a2.86,2.86,0,0,1,2.85-2.85h.09a2.85,2.85,0,0,1,2.84,2.85Z" transform="translate(-212.38 -277.92)"/><path class="cls-7" d="M595.52,582.63h-5.79V541.36a2.86,2.86,0,0,1,2.85-2.85h.09a2.86,2.86,0,0,1,2.85,2.85Z" transform="translate(-212.38 -277.92)"/><rect class="cls-6" x="298.99" y="303.08" width="13.89" height="95.58"/><rect class="cls-6" x="369.25" y="303.08" width="13.89" height="95.58"/><rect class="cls-6" x="409.28" y="303.08" width="5.72" height="95.58"/><polygon class="cls-8" points="371.7 236.09 291.64 236.09 331.67 192.79 371.7 236.09"/><rect class="cls-3" x="232.01" y="55.55" width="20.42" height="15.52"/><rect class="cls-5" x="234.46" y="40.03" width="15.52" height="15.52"/><rect class="cls-9" x="291.64" y="236.09" width="80.06" height="13.07"/><path class="cls-4" d="M462.58,318h-16a1.73,1.73,0,0,1-1.67-2.16l9.66-37.87,9.66,37.87A1.73,1.73,0,0,1,462.58,318Z" transform="translate(-212.38 -277.92)"/><rect class="cls-10" x="428.88" y="276.12" width="98.03" height="64.54"/><rect class="cls-11" x="440.32" y="200.96" width="75.16" height="75.16"/><rect class="cls-4" x="449.31" y="130.71" width="57.18" height="70.26"/><rect class="cls-8" x="444.4" y="117.64" width="66.99" height="13.07"/><path class="cls-5" d="M660.05,609.59h-8.17v-40a4.09,4.09,0,0,1,4.09-4.09h0a4.09,4.09,0,0,1,4.08,4.09Z" transform="translate(-212.38 -277.92)"/><path class="cls-5" d="M504,667.59H461.54v-43.3a21.24,21.24,0,0,1,21.24-21.24h0A21.24,21.24,0,0,1,504,624.29Z" transform="translate(-212.38 -277.92)"/><path class="cls-5" d="M574.28,667.59H531.8v-43.3A21.24,21.24,0,0,1,553,603.05h0a21.24,21.24,0,0,1,21.24,21.24Z" transform="translate(-212.38 -277.92)"/><path class="cls-5" d="M433.77,667.59H391.29v-43.3a21.24,21.24,0,0,1,21.24-21.24h0a21.24,21.24,0,0,1,21.24,21.24Z" transform="translate(-212.38 -277.92)"/><path class="cls-5" d="M363.51,667.59H321v-43.3a21.24,21.24,0,0,1,21.24-21.24h0a21.24,21.24,0,0,1,21.24,21.24Z" transform="translate(-212.38 -277.92)"/><path class="cls-5" d="M682.93,609.59h-8.17v-40a4.09,4.09,0,0,1,4.08-4.09h0a4.09,4.09,0,0,1,4.09,4.09Z" transform="translate(-212.38 -277.92)"/><path class="cls-5" d="M705.8,609.59h-8.17v-40a4.09,4.09,0,0,1,4.09-4.09h0a4.09,4.09,0,0,1,4.08,4.09Z" transform="translate(-212.38 -277.92)"/><path class="cls-5" d="M728.67,609.59H720.5v-40a4.09,4.09,0,0,1,4.09-4.09h0a4.08,4.08,0,0,1,4.08,4.09Z" transform="translate(-212.38 -277.92)"/><path class="cls-5" d="M671.49,538.51h-8.17v-40a4.09,4.09,0,0,1,4.09-4.08h0a4.08,4.08,0,0,1,4.08,4.08Z" transform="translate(-212.38 -277.92)"/><path class="cls-5" d="M694.36,538.51h-8.17v-40a4.09,4.09,0,0,1,4.09-4.08h0a4.08,4.08,0,0,1,4.08,4.08Z" transform="translate(-212.38 -277.92)"/><path class="cls-5" d="M717.24,538.51h-8.17v-40a4.08,4.08,0,0,1,4.08-4.08h0a4.09,4.09,0,0,1,4.09,4.08Z" transform="translate(-212.38 -277.92)"/><path class="cls-5" d="M677.56,465.51h-5.62v-41.3a2.81,2.81,0,0,1,2.81-2.81h0a2.81,2.81,0,0,1,2.81,2.81Z" transform="translate(-212.38 -277.92)"/><path class="cls-5" d="M693.32,465.51h-5.63v-41.3a2.81,2.81,0,0,1,2.81-2.81h0a2.81,2.81,0,0,1,2.82,2.81Z" transform="translate(-212.38 -277.92)"/><path class="cls-5" d="M709.07,465.51h-5.63v-41.3a2.81,2.81,0,0,1,2.82-2.81h0a2.81,2.81,0,0,1,2.81,2.81Z" transform="translate(-212.38 -277.92)"/><rect class="cls-4" x="175.64" y="192.79" width="133.97" height="8.17"/><circle class="cls-7" cx="242.63" cy="216.48" r="6.54"/><polygon class="cls-3" points="364.19 232.82 299.23 232.82 331.71 197.69 364.19 232.82"/><rect class="cls-7" x="55.55" y="384.77" width="488.93" height="15.93"/><path class="cls-12" d="M541.77,344.44a38.4,38.4,0,1,1,5.77,25.83s-21.56,4.87-27,6.79a71.83,71.83,0,0,0-26.81-31.53,68.39,68.39,0,0,0-18.92-8.28q1,23.25,2,46.52a104.47,104.47,0,0,0-57.16,69.38l-19.32,3.94A50.63,50.63,0,0,0,390,485.87c-.57,19.91,11.25,33.14,13.8,35.87l28,6.71a189.91,189.91,0,0,0,35.88,50.46l-5.52,51.64h64.66l5.9-18.92a89.84,89.84,0,0,0,80.82-2.76q3.34,11.24,6.7,22.47h67.81l-7.89-68.2c7.59-8.53,22.7-27.95,26.81-56.38,7.07-49-24.29-84.8-31.14-92.64a129.31,129.31,0,0,0-49.47-34.74" transform="translate(-212.38 -277.92)"/></svg>