<svg id="Слой_1" data-name="Слой 1" xmlns="http://www.w3.org/2000/svg" viewBox="0 0 578 395.54"><defs><style>.cls-1{fill:#868686;}.cls-2{fill:#424242;}.cls-3{fill:#595959;}.cls-4{fill:#434343;}.cls-5{fill:#222;}.cls-6{fill:#2d2d2d;}.cls-7{fill:#717171;}.cls-8{fill:#2b2b2b;}.cls-9{fill:none;stroke:#333;stroke-miterlimit:10;stroke-width:9px;}</style></defs><title>черный замок итог</title><rect class="cls-1" x="69" y="111.06" width="23" height="236"/><path class="cls-2" d="M306,537h-5V522.5a2.5,2.5,0,0,1,2.5-2.5h0a2.5,2.5,0,0,1,2.5,2.5Z" transform="translate(-223 -312.94)"/><path class="cls-2" d="M306,470h-5V455.45a2.45,2.45,0,0,1,2.45-2.45h.1a2.45,2.45,0,0,1,2.45,2.45Z" transform="translate(-223 -312.94)"/><rect class="cls-3" x="69" y="117.06" width="23" height="6"/><rect class="cls-3" x="69" y="167.06" width="23" height="6"/><rect class="cls-3" x="69" y="234.06" width="23" height="6"/><polygon class="cls-4" points="92 111.06 69 111.06 80.5 64.06 92 111.06"/><rect class="cls-5" x="67" y="111.06" width="27" height="6"/><rect class="cls-1" x="192" y="111.06" width="23" height="236"/><path class="cls-2" d="M429,537h-5V522.5a2.5,2.5,0,0,1,2.5-2.5h0a2.5,2.5,0,0,1,2.5,2.5Z" transform="translate(-223 -312.94)"/><path class="cls-2" d="M429,470h-5V455.45a2.45,2.45,0,0,1,2.45-2.45h.1a2.45,2.45,0,0,1,2.45,2.45Z" transform="translate(-223 -312.94)"/><rect class="cls-3" x="192" y="117.06" width="23" height="6"/><rect class="cls-3" x="192" y="167.06" width="23" height="6"/><rect class="cls-3" x="192" y="234.06" width="23" height="6"/><polygon class="cls-4" points="215 111.06 192 111.06 203.5 64.06 215 111.06"/><path class="cls-3" d="M438,530.42V661h5.23V557c0-10,7-18.08,15.71-18.08s15.7,8.09,15.7,18.08V661H479V530.42Z" transform="translate(-223 -312.94)"/><rect class="cls-6" x="215" y="209.06" width="41" height="8.42"/><rect class="cls-5" x="190" y="111.06" width="27" height="6"/><rect class="cls-4" x="92" y="157.06" width="3.85" height="190"/><rect class="cls-4" x="188.15" y="157.06" width="3.85" height="190"/><rect class="cls-1" x="95.85" y="148.06" width="92.31" height="199"/><rect class="cls-6" x="92" y="148.06" width="100" height="9"/><path class="cls-2" d="M347.15,504h-5.38V489.49a2.49,2.49,0,0,1,2.49-2.49h.4a2.5,2.5,0,0,1,2.49,2.49Z" transform="translate(-223 -312.94)"/><path class="cls-2" d="M389,504h-5.38V489.49a2.5,2.5,0,0,1,2.49-2.49h.4a2.5,2.5,0,0,1,2.49,2.49Z" transform="translate(-223 -312.94)"/><path class="cls-2" d="M347.15,546h-5.38V531.49a2.49,2.49,0,0,1,2.49-2.49h.4a2.5,2.5,0,0,1,2.49,2.49Z" transform="translate(-223 -312.94)"/><path class="cls-2" d="M389,546h-5.38V531.49a2.5,2.5,0,0,1,2.49-2.49h.4a2.5,2.5,0,0,1,2.49,2.49Z" transform="translate(-223 -312.94)"/><polygon class="cls-4" points="92 148.06 192 148.06 155.31 110.06 128.69 110.06 92 148.06"/><rect class="cls-6" x="128.69" y="106.06" width="26.62" height="4"/><rect class="cls-7" x="3" y="227.06" width="50" height="121"/><rect class="cls-1" x="491" y="132.06" width="23" height="216"/><path class="cls-2" d="M728,481h-5V466.5a2.5,2.5,0,0,1,2.5-2.5h0a2.5,2.5,0,0,1,2.5,2.5Z" transform="translate(-223 -312.94)"/><path class="cls-2" d="M728,538h-5V523.5a2.5,2.5,0,0,1,2.5-2.5h0a2.5,2.5,0,0,1,2.5,2.5Z" transform="translate(-223 -312.94)"/><rect class="cls-3" x="491" y="138.06" width="23" height="6"/><polygon class="cls-4" points="514 132.06 491 132.06 502.5 105.06 514 132.06"/><rect class="cls-5" x="489" y="132.06" width="27" height="6"/><path class="cls-3" d="M516,530V654h5.74V555.27a17.24,17.24,0,0,1,34.47,0V654H561V530Z" transform="translate(-223 -312.94)"/><rect class="cls-4" x="361" y="168.06" width="5" height="180"/><rect class="cls-4" x="486" y="168.06" width="5" height="180"/><rect class="cls-1" x="366" y="159.06" width="120" height="189"/><rect class="cls-1" x="256" y="187.06" width="37" height="161"/><rect class="cls-1" x="338" y="132.06" width="23" height="216"/><rect class="cls-3" x="53" y="257.06" width="472" height="91"/><rect class="cls-6" x="53" y="257.06" width="472" height="13"/><path class="cls-2" d="M618,555h-6V540.94a2.94,2.94,0,0,1,2.94-2.94h.12a2.94,2.94,0,0,1,2.94,2.94Z" transform="translate(-223 -312.94)"/><path class="cls-2" d="M687,555h-6V540.94a2.94,2.94,0,0,1,2.94-2.94h.12a2.94,2.94,0,0,1,2.94,2.94Z" transform="translate(-223 -312.94)"/><rect class="cls-3" x="253" y="180.06" width="43" height="7"/><rect class="cls-3" y="215.06" width="56" height="12"/><rect class="cls-6" x="293" y="209.06" width="45" height="8"/><rect class="cls-6" x="226" y="241.06" width="98" height="8"/><rect class="cls-6" x="361" y="159.06" width="130" height="9"/><path class="cls-2" d="M618,515h-6V500.94a2.94,2.94,0,0,1,2.94-2.94h.12a2.94,2.94,0,0,1,2.94,2.94Z" transform="translate(-223 -312.94)"/><path class="cls-2" d="M652,555h-6V540.94a2.94,2.94,0,0,1,2.94-2.94h.12a2.94,2.94,0,0,1,2.94,2.94Z" transform="translate(-223 -312.94)"/><path class="cls-2" d="M652,515h-6V500.94a2.94,2.94,0,0,1,2.94-2.94h.12a2.94,2.94,0,0,1,2.94,2.94Z" transform="translate(-223 -312.94)"/><path class="cls-2" d="M687,515h-6V500.94a2.94,2.94,0,0,1,2.94-2.94h.12a2.94,2.94,0,0,1,2.94,2.94Z" transform="translate(-223 -312.94)"/><path class="cls-2" d="M500,530h-5V514.5a2.5,2.5,0,0,1,2.5-2.5h0a2.5,2.5,0,0,1,2.5,2.5Z" transform="translate(-223 -312.94)"/><path class="cls-2" d="M255,576h-8V561.74a3.75,3.75,0,0,1,3.74-3.74h.52a3.75,3.75,0,0,1,3.74,3.74Z" transform="translate(-223 -312.94)"/><rect class="cls-7" x="525" y="227.06" width="50" height="121"/><rect class="cls-3" x="522" y="215.06" width="56" height="12"/><path class="cls-2" d="M777,576h-8V561.74a3.75,3.75,0,0,1,3.74-3.74h.52a3.75,3.75,0,0,1,3.74,3.74Z" transform="translate(-223 -312.94)"/><rect class="cls-8" x="351" y="295.06" width="5" height="17"/><rect class="cls-8" x="407" y="295.06" width="5" height="17"/><rect class="cls-8" x="463" y="295.06" width="5" height="17"/><path class="cls-2" d="M575,481h-5V466.5a2.5,2.5,0,0,1,2.5-2.5h0a2.5,2.5,0,0,1,2.5,2.5Z" transform="translate(-223 -312.94)"/><path class="cls-2" d="M575,538h-5V523.5a2.5,2.5,0,0,1,2.5-2.5h0a2.5,2.5,0,0,1,2.5,2.5Z" transform="translate(-223 -312.94)"/><rect class="cls-8" x="82" y="295.06" width="5" height="17"/><rect class="cls-8" x="138" y="295.06" width="5" height="17"/><rect class="cls-8" x="194" y="295.06" width="5" height="17"/><rect class="cls-3" x="338" y="138.06" width="23" height="6"/><polygon class="cls-4" points="361 132.06 338 132.06 349.5 105.06 361 132.06"/><rect class="cls-5" x="336" y="132.06" width="27" height="6"/><polygon class="cls-4" points="361 159.06 491 159.06 471 131.06 381 131.06 361 159.06"/><rect class="cls-6" x="381" y="127.06" width="90" height="4"/><rect class="cls-7" x="229" y="249.06" width="92" height="99"/><path class="cls-4" d="M275,276.06h0a25,25,0,0,1,25,25v47a0,0,0,0,1,0,0H250a0,0,0,0,1,0,0v-47A25,25,0,0,1,275,276.06Z"/><polyline class="cls-9" points="387.06 108.67 406.69 128.3 425.56 109.44 401.37 85.24 437.21 49.4 443.68 55.86 455 44.54 416.82 6.36 405.5 17.68 411.97 24.15 376.12 60 351.93 35.8 333.06 54.67 352.7 74.31 70.33 356.67 70.53 390.83 104.69 391.03 199.28 296.45 199.28 303.73 285.4 303.73 285.4 389.85 371.52 389.85 371.52 303.73 457.64 303.73 457.64 217.61 371.52 217.61 371.52 131.49 335.85 131.49"/></svg>