<svg id="Слой_1" data-name="Слой 1" xmlns="http://www.w3.org/2000/svg" viewBox="0 0 1241.08 1333.53"><defs><style>.cls-1{fill:#999;}.cls-2{fill:#555;}.cls-3{fill:#948d8d;}.cls-4{fill:#4d4141;}.cls-5{fill:#5c5c5c;}.cls-6{fill:#8b8b86;}.cls-7{fill:#5e5a59;}.cls-8{fill:#666;}.cls-9{fill:#4d2f2f;}.cls-10{fill:#6e6e67;}.cls-11{fill:#605151;}.cls-12{fill:#332121;}.cls-13{fill:#4c3131;}.cls-14{fill:#392525;}.cls-15{fill:#403131;}.cls-16,.cls-19{fill:none;stroke:#333;stroke-miterlimit:10;}.cls-16{stroke-width:4.7px;}.cls-17{fill:#483b3b;}.cls-18{fill:#444545;}.cls-19{stroke-width:5.86px;}</style></defs><title>черная заааводь</title><rect class="cls-1" x="539.46" y="472.57" width="212.19" height="127.32" transform="translate(1042.16 1769.28) rotate(-180)"/><rect class="cls-2" x="536.96" y="472.57" width="217.19" height="7.49" transform="translate(1042.16 1649.46) rotate(-180)"/><rect class="cls-3" x="616.85" y="438.53" width="74.89" height="34.04" transform="translate(1059.63 1607.93) rotate(-180)"/><rect class="cls-4" x="612.8" y="438.53" width="82.98" height="4.99" transform="translate(1059.63 1578.88) rotate(-180)"/><path class="cls-5" d="M719.2,487.54h5a0,0,0,0,1,0,0V500a2.5,2.5,0,0,1-2.5,2.5h0a2.5,2.5,0,0,1-2.5-2.5V487.54A0,0,0,0,1,719.2,487.54Z" transform="translate(1194.44 1686.9) rotate(-180)"/><path class="cls-5" d="M669.27,487.54h5a0,0,0,0,1,0,0V500a2.5,2.5,0,0,1-2.5,2.5h0a2.5,2.5,0,0,1-2.5-2.5V487.54A0,0,0,0,1,669.27,487.54Z" transform="translate(1094.58 1686.9) rotate(-180)"/><path class="cls-5" d="M616.85,487.54h5a0,0,0,0,1,0,0V500a2.5,2.5,0,0,1-2.5,2.5h0a2.5,2.5,0,0,1-2.5-2.5V487.54A0,0,0,0,1,616.85,487.54Z" transform="translate(989.73 1686.9) rotate(-180)"/><path class="cls-5" d="M566.92,487.54h5a0,0,0,0,1,0,0V500a2.5,2.5,0,0,1-2.5,2.5h0a2.5,2.5,0,0,1-2.5-2.5V487.54A0,0,0,0,1,566.92,487.54Z" transform="translate(889.88 1686.9) rotate(-180)"/><path class="cls-5" d="M719.2,525h5a0,0,0,0,1,0,0v12.48a2.5,2.5,0,0,1-2.5,2.5h0a2.5,2.5,0,0,1-2.5-2.5V525a0,0,0,0,1,0,0Z" transform="translate(1194.44 1761.79) rotate(-180)"/><path class="cls-5" d="M669.27,525h5a0,0,0,0,1,0,0v12.48a2.5,2.5,0,0,1-2.5,2.5h0a2.5,2.5,0,0,1-2.5-2.5V525A0,0,0,0,1,669.27,525Z" transform="translate(1094.58 1761.79) rotate(-180)"/><path class="cls-5" d="M616.85,525h5a0,0,0,0,1,0,0v12.48a2.5,2.5,0,0,1-2.5,2.5h0a2.5,2.5,0,0,1-2.5-2.5V525A0,0,0,0,1,616.85,525Z" transform="translate(989.73 1761.79) rotate(-180)"/><path class="cls-5" d="M566.92,525h5a0,0,0,0,1,0,0v12.48a2.5,2.5,0,0,1-2.5,2.5h0a2.5,2.5,0,0,1-2.5-2.5V525A0,0,0,0,1,566.92,525Z" transform="translate(889.88 1761.79) rotate(-180)"/><polygon class="cls-6" points="103.27 1215.45 215.61 1215.45 215.61 1272.86 103.27 1272.86 103.27 1275.36 58.34 1275.36 58.34 1215.45 103.27 1215.45"/><polygon class="cls-7" points="93.48 1186.98 290.71 1186.98 290.71 1209.45 58.54 1209.45 93.48 1186.98"/><rect class="cls-8" x="8.41" y="1255.37" width="42.44" height="69.9"/><rect class="cls-5" x="93.29" y="1255.37" width="94.86" height="69.9"/><rect class="cls-9" x="93.29" y="1255.37" width="94.86" height="4.99"/><rect class="cls-9" x="8.41" y="1255.37" width="42.44" height="4.99"/><path class="cls-10" d="M539.46,518.61v73.22H526V556.44a24,24,0,1,0-47.91,0v35.39H464.57V518.61Z" transform="translate(-248.96 696.84)"/><rect class="cls-11" x="50.85" y="1240.4" width="42.44" height="84.88"/><rect class="cls-4" x="50.85" y="1240.4" width="42.44" height="7.49"/><rect class="cls-5" x="285.51" y="1255.37" width="94.86" height="69.9"/><rect class="cls-9" x="285.51" y="1255.37" width="94.86" height="4.99"/><path class="cls-10" d="M191.65,1226.69h0a2.38,2.38,0,0,1,2.38,2.38v10.12a.22.22,0,0,1-.22.22h-4.32a.22.22,0,0,1-.22-.22v-10.12a2.38,2.38,0,0,1,2.38-2.38Z"/><path class="cls-10" d="M155.2,1226.69h0a2.38,2.38,0,0,1,2.38,2.38v10.12a.22.22,0,0,1-.22.22H153a.22.22,0,0,1-.22-.22v-10.12a2.38,2.38,0,0,1,2.38-2.38Z"/><path class="cls-10" d="M118.75,1226.69h0a2.38,2.38,0,0,1,2.38,2.38v10.12a.22.22,0,0,1-.22.22h-4.32a.22.22,0,0,1-.22-.22v-10.12A2.38,2.38,0,0,1,118.75,1226.69Z"/><path class="cls-10" d="M82.3,1226.69h0a2.38,2.38,0,0,1,2.38,2.38v10.12a.22.22,0,0,1-.22.22H80.14a.22.22,0,0,1-.22-.22v-10.12a2.38,2.38,0,0,1,2.38-2.38Z"/><rect class="cls-5" x="422.81" y="1255.37" width="94.86" height="69.9"/><rect class="cls-9" x="422.81" y="1255.37" width="94.86" height="4.99"/><rect class="cls-11" x="380.37" y="1225.42" width="42.44" height="99.86"/><rect class="cls-4" x="380.37" y="1225.42" width="42.44" height="7.49"/><rect class="cls-11" x="188.15" y="1225.42" width="97.36" height="99.86"/><path class="cls-12" d="M236.83,1249.85h0A31.21,31.21,0,0,1,268,1281.06v44.22a0,0,0,0,1,0,0H205.63a0,0,0,0,1,0,0v-44.22a31.21,31.21,0,0,1,31.21-31.21Z"/><rect class="cls-13" x="188.15" y="1227.91" width="97.36" height="14.55"/><rect class="cls-14" x="188.15" y="1227.91" width="5.69" height="9.02"/><rect class="cls-14" x="279.82" y="1227.91" width="5.69" height="9.02"/><rect class="cls-14" x="233.98" y="1227.91" width="5.69" height="9.02"/><rect class="cls-14" x="245.44" y="1227.91" width="5.69" height="9.02"/><rect class="cls-14" x="268.36" y="1227.91" width="5.69" height="9.02"/><rect class="cls-14" x="256.9" y="1227.91" width="5.69" height="9.02"/><rect class="cls-14" x="211.07" y="1227.91" width="5.69" height="9.02"/><rect class="cls-14" x="222.53" y="1227.91" width="5.69" height="9.02"/><rect class="cls-14" x="199.61" y="1227.91" width="5.69" height="9.02"/><path class="cls-15" d="M122,1269.94h1a2.78,2.78,0,0,1,2.78,2.78v8.62a0,0,0,0,1,0,0H119.2a0,0,0,0,1,0,0v-8.62A2.78,2.78,0,0,1,122,1269.94Z"/><path class="cls-15" d="M29.15,1269.94h1a2.78,2.78,0,0,1,2.78,2.78v8.62a0,0,0,0,1,0,0H26.37a0,0,0,0,1,0,0v-8.62A2.78,2.78,0,0,1,29.15,1269.94Z"/><path class="cls-15" d="M158.5,1269.94h1a2.78,2.78,0,0,1,2.78,2.78v8.62a0,0,0,0,1,0,0h-6.52a0,0,0,0,1,0,0v-8.62A2.78,2.78,0,0,1,158.5,1269.94Z"/><path class="cls-15" d="M314.2,1269.94h1a2.78,2.78,0,0,1,2.78,2.78v8.62a0,0,0,0,1,0,0h-6.52a0,0,0,0,1,0,0v-8.62A2.78,2.78,0,0,1,314.2,1269.94Z"/><path class="cls-15" d="M350.73,1269.94h1a2.78,2.78,0,0,1,2.78,2.78v8.62a0,0,0,0,1,0,0h-6.52a0,0,0,0,1,0,0v-8.62A2.78,2.78,0,0,1,350.73,1269.94Z"/><path class="cls-15" d="M451.5,1269.94h1a2.78,2.78,0,0,1,2.78,2.78v8.62a0,0,0,0,1,0,0h-6.52a0,0,0,0,1,0,0v-8.62A2.78,2.78,0,0,1,451.5,1269.94Z"/><path class="cls-15" d="M488,1269.94h1a2.78,2.78,0,0,1,2.78,2.78v8.62a0,0,0,0,1,0,0h-6.52a0,0,0,0,1,0,0v-8.62A2.78,2.78,0,0,1,488,1269.94Z"/><path class="cls-16" d="M1299.79-451.44a156.71,156.71,0,0,0,71,8c21.61-2.39,36.56-7.25,48.42-12.69,0-28.22.94-57.34.94-85.56-.94,0-22.56,0-34.31-.47l-14.11-24.45c5.86.57,31.57,3.15,54.06,1.41a143.06,143.06,0,0,0,30.09-5.64c-.31,6.9-.63,15.67-.94,22.57,0,0-15,4.7-20.68,5.64L1442.7-459c7.15,2.3,38.82,2.5,43.25,1.88-4.93-7.15-15.24-22.27-19.28-38.08-7.41-29.05,3.89-37.77-1.88-68.64-1.4-7.5-3.76-36.94-26.32-57.35-7.64-6.9-15.73-10.1-23.75-20.62-12.43-16.32-14.33-25-17.62-41.43-1.9,12.61-6.6,26.1-19.75,40.43-10.52,11.47-18.16,11.85-29.14,21.62-21.7,19.31-26.69,47.31-29.15,61.12-6.74,37.81,7.34,53.69-5.64,83.67" transform="translate(-248.96 696.84)"/><path class="cls-5" d="M674.17,452.06h5a0,0,0,0,1,0,0v12.48a2.5,2.5,0,0,1-2.5,2.5h0a2.5,2.5,0,0,1-2.5-2.5V452.06A0,0,0,0,1,674.17,452.06Z" transform="translate(1104.38 1615.93) rotate(-180)"/><rect class="cls-17" y="1325.27" width="526.09" height="8.25"/><path class="cls-5" d="M629.43,452.06h5a0,0,0,0,1,0,0v12.48a2.5,2.5,0,0,1-2.5,2.5h0a2.5,2.5,0,0,1-2.5-2.5V452.06a0,0,0,0,1,0,0Z" transform="translate(1014.89 1615.93) rotate(-180)"/><path class="cls-15" d="M411,1243.4h.84a2.43,2.43,0,0,1,2.43,2.43v7.54a0,0,0,0,1,0,0h-5.7a0,0,0,0,1,0,0v-7.54A2.43,2.43,0,0,1,411,1243.4Z"/><path class="cls-15" d="M391.34,1243.4h.84a2.43,2.43,0,0,1,2.43,2.43v7.54a0,0,0,0,1,0,0h-5.7a0,0,0,0,1,0,0v-7.54A2.43,2.43,0,0,1,391.34,1243.4Z"/><path class="cls-15" d="M81.48,1261.48h.84a2.43,2.43,0,0,1,2.43,2.43v7.54a0,0,0,0,1,0,0H79a0,0,0,0,1,0,0v-7.54a2.43,2.43,0,0,1,2.43-2.43Z"/><path class="cls-15" d="M61.81,1261.48h.84a2.43,2.43,0,0,1,2.43,2.43v7.54a0,0,0,0,1,0,0h-5.7a0,0,0,0,1,0,0v-7.54A2.43,2.43,0,0,1,61.81,1261.48Z"/><rect class="cls-18" x="307.29" y="512.61" width="232.37" height="6" transform="translate(598 1728.06) rotate(-180)"/><rect class="cls-4" x="342.43" y="483.82" width="197.23" height="6.32" transform="translate(633.14 1670.8) rotate(-180)"/><polyline class="cls-19" points="330.62 1199.5 385.46 1148.49 262.37 1157.37 262.37 1132.29 213.41 1132.29 213.41 1119.81 166.58 1119.81 166.58 1132.29 147.43 1132.29 147.43 1155.7 50.93 1155.7 50.93 1185.5 61.58 1185.5 61.58 1201.81 250.92 1201.81"/><rect class="cls-17" x="183.16" y="1212.45" width="107.35" height="15.47"/></svg>