<svg id="Слой_1" data-name="Слой 1" xmlns="http://www.w3.org/2000/svg" viewBox="0 0 763 392.82"><defs><style>.cls-1{fill:#909099;}.cls-2{fill:#595966;}.cls-3{fill:#71717c;}.cls-4{fill:#52525c;}.cls-5{fill:#8c8c99;}.cls-6{fill:#6a6a73;}.cls-7{fill:#4f4f56;}.cls-8{fill:none;stroke:#333;stroke-miterlimit:10;stroke-width:15.82px;}</style></defs><title>штормовой предел2</title><rect class="cls-1" x="473" y="210.41" width="189" height="149"/><rect class="cls-2" x="510.43" y="155.37" width="114.15" height="11.69"/><polygon class="cls-3" points="667.92 210.41 467 210.41 510.37 165.41 624.56 165.41 667.92 210.41"/><rect class="cls-1" x="135" y="230.41" width="176" height="129"/><polygon class="cls-4" points="308.9 230.41 135.07 230.41 172.59 191.41 271.38 191.41 308.9 230.41"/><rect class="cls-5" x="220" y="127.41" width="166" height="207"/><path class="cls-6" d="M209,84.41H396a0,0,0,0,1,0,0v31.37a11.63,11.63,0,0,1-11.63,11.63H220.63A11.63,11.63,0,0,1,209,115.78V84.41A0,0,0,0,1,209,84.41Z"/><polygon class="cls-6" points="451 359.41 151.8 359.41 219.72 181.41 385.84 181.41 451 359.41"/><rect class="cls-6" x="209" y="74.41" width="21" height="11"/><rect class="cls-6" x="292" y="74.41" width="21" height="11"/><rect class="cls-6" x="251" y="74.41" width="21" height="11"/><rect class="cls-6" x="375" y="74.41" width="21" height="11"/><rect class="cls-6" x="334" y="74.41" width="21" height="11"/><rect class="cls-1" x="4" y="258.41" width="116" height="101"/><rect class="cls-6" x="679" y="256.41" width="81" height="103"/><rect class="cls-5" x="85" y="273.41" width="594" height="86"/><rect class="cls-4" x="85" y="263.41" width="594" height="10"/><polygon class="cls-2" points="120.5 258.41 5 258.41 5 227.41 88.71 227.41 120.5 258.41"/><path class="cls-7" d="M381.34,188.41h56.33A12.34,12.34,0,0,1,450,200.74V359.41a0,0,0,0,1,0,0H369a0,0,0,0,1,0,0V200.74A12.34,12.34,0,0,1,381.34,188.41Z"/><rect class="cls-5" x="362" y="199.41" width="94" height="32"/><rect class="cls-6" x="4" y="204.41" width="81" height="155"/><path class="cls-5" d="M0,164.41H89a0,0,0,0,1,0,0v37.73a4.27,4.27,0,0,1-4.27,4.27H4.27A4.27,4.27,0,0,1,0,202.14V164.41A0,0,0,0,1,0,164.41Z"/><rect class="cls-7" x="675" y="235.41" width="88" height="22"/><path class="cls-2" d="M367.4,137.41h.2a6.4,6.4,0,0,1,6.4,6.4v23.6a0,0,0,0,1,0,0H361a0,0,0,0,1,0,0v-23.6A6.4,6.4,0,0,1,367.4,137.41Z"/><path class="cls-2" d="M341.4,137.41h.2a6.4,6.4,0,0,1,6.4,6.4v23.6a0,0,0,0,1,0,0H335a0,0,0,0,1,0,0v-23.6A6.4,6.4,0,0,1,341.4,137.41Z"/><path class="cls-2" d="M315.4,137.41h.2a6.4,6.4,0,0,1,6.4,6.4v23.6a0,0,0,0,1,0,0H309a0,0,0,0,1,0,0v-23.6A6.4,6.4,0,0,1,315.4,137.41Z"/><path class="cls-2" d="M289.4,137.41h.2a6.4,6.4,0,0,1,6.4,6.4v23.6a0,0,0,0,1,0,0H283a0,0,0,0,1,0,0v-23.6a6.4,6.4,0,0,1,6.4-6.4Z"/><path class="cls-2" d="M263.4,137.41h.2a6.4,6.4,0,0,1,6.4,6.4v23.6a0,0,0,0,1,0,0H257a0,0,0,0,1,0,0v-23.6A6.4,6.4,0,0,1,263.4,137.41Z"/><path class="cls-2" d="M502.4,221.41h.2a6.4,6.4,0,0,1,6.4,6.4v23.6a0,0,0,0,1,0,0H496a0,0,0,0,1,0,0v-23.6a6.4,6.4,0,0,1,6.4-6.4Z"/><path class="cls-2" d="M528.4,221.41h.2a6.4,6.4,0,0,1,6.4,6.4v23.6a0,0,0,0,1,0,0H522a0,0,0,0,1,0,0v-23.6A6.4,6.4,0,0,1,528.4,221.41Z"/><path class="cls-2" d="M606.4,221.41h.2a6.4,6.4,0,0,1,6.4,6.4v23.6a0,0,0,0,1,0,0H600a0,0,0,0,1,0,0v-23.6A6.4,6.4,0,0,1,606.4,221.41Z"/><path class="cls-2" d="M632.4,221.41h.2a6.4,6.4,0,0,1,6.4,6.4v23.6a0,0,0,0,1,0,0H626a0,0,0,0,1,0,0v-23.6A6.4,6.4,0,0,1,632.4,221.41Z"/><path class="cls-2" d="M237.4,137.41h.2a6.4,6.4,0,0,1,6.4,6.4v23.6a0,0,0,0,1,0,0H231a0,0,0,0,1,0,0v-23.6A6.4,6.4,0,0,1,237.4,137.41Z"/><path class="cls-2" d="M580.4,221.41h.2a6.4,6.4,0,0,1,6.4,6.4v23.6a0,0,0,0,1,0,0H574a0,0,0,0,1,0,0v-23.6A6.4,6.4,0,0,1,580.4,221.41Z"/><path class="cls-2" d="M554.4,221.41h.2a6.4,6.4,0,0,1,6.4,6.4v23.6a0,0,0,0,1,0,0H548a0,0,0,0,1,0,0v-23.6A6.4,6.4,0,0,1,554.4,221.41Z"/><rect class="cls-7" x="708" y="224.41" width="8" height="12"/><rect class="cls-7" x="723" y="224.41" width="8" height="12"/><rect class="cls-7" x="675" y="224.41" width="8" height="12"/><rect class="cls-7" x="755" y="224.41" width="8" height="12"/><rect class="cls-7" x="691" y="224.41" width="8" height="12"/><path class="cls-2" d="M420.5,207.41h0a5.5,5.5,0,0,1,5.5,5.5v11.5a0,0,0,0,1,0,0H415a0,0,0,0,1,0,0v-11.5A5.5,5.5,0,0,1,420.5,207.41Z"/><path class="cls-2" d="M442.5,207.41h0a5.5,5.5,0,0,1,5.5,5.5v11.5a0,0,0,0,1,0,0H437a0,0,0,0,1,0,0v-11.5A5.5,5.5,0,0,1,442.5,207.41Z"/><path class="cls-2" d="M376.5,207.41h0a5.5,5.5,0,0,1,5.5,5.5v11.5a0,0,0,0,1,0,0H371a0,0,0,0,1,0,0v-11.5A5.5,5.5,0,0,1,376.5,207.41Z"/><path class="cls-2" d="M398.5,207.41h0a5.5,5.5,0,0,1,5.5,5.5v11.5a0,0,0,0,1,0,0H393a0,0,0,0,1,0,0v-11.5A5.5,5.5,0,0,1,398.5,207.41Z"/><rect class="cls-7" x="739" y="224.41" width="8" height="12"/><path class="cls-2" d="M44.41,173.41h.17A4.41,4.41,0,0,1,49,177.82v15.59a0,0,0,0,1,0,0H40a0,0,0,0,1,0,0V177.82A4.41,4.41,0,0,1,44.41,173.41Z"/><path class="cls-2" d="M61.41,173.41h.17A4.41,4.41,0,0,1,66,177.82v15.59a0,0,0,0,1,0,0H57a0,0,0,0,1,0,0V177.82A4.41,4.41,0,0,1,61.41,173.41Z"/><path class="cls-2" d="M10.41,173.41h.17A4.41,4.41,0,0,1,15,177.82v15.59a0,0,0,0,1,0,0H6a0,0,0,0,1,0,0V177.82A4.41,4.41,0,0,1,10.41,173.41Z"/><path class="cls-2" d="M27.41,173.41h.17A4.41,4.41,0,0,1,32,177.82v15.59a0,0,0,0,1,0,0H23a0,0,0,0,1,0,0V177.82A4.41,4.41,0,0,1,27.41,173.41Z"/><path class="cls-2" d="M78.41,173.41h.17A4.41,4.41,0,0,1,83,177.82v15.59a0,0,0,0,1,0,0H74a0,0,0,0,1,0,0V177.82A4.41,4.41,0,0,1,78.41,173.41Z"/><path class="cls-8" d="M689.56,442.5V408L836.69,303.5H261.56v24H187.31l74.25,81h147v120s-75.85,9.72-97.11,34.57c-22.07,25.81-32.88,117.43-32.88,117.43H820.21s-10.32-91.43-32.23-117c-21.64-25.3-98.4-35.7-98.4-35.7" transform="translate(-130.5 -295.59)"/></svg>