<svg id="Слой_1" data-name="Слой 1" xmlns="http://www.w3.org/2000/svg" viewBox="0 0 594 314.63"><defs><style>.cls-1{fill:#836462;}.cls-2{fill:#614a46;}.cls-3{fill:#47363f;}.cls-4{fill:#33202b;}.cls-5{fill:#4d3038;}.cls-6{fill:#473840;}.cls-7{fill:#332332;}.cls-8{fill:#332f54;}.cls-9{fill:#634a53;}.cls-10{fill:none;stroke:#333;stroke-miterlimit:10;stroke-width:9px;}</style></defs><title>ярморочное поле городок</title><rect class="cls-1" x="118" y="170.63" width="350" height="135"/><polygon class="cls-2" points="472.13 163.63 114.48 163.63 164.15 123.63 422.46 123.63 472.13 163.63"/><rect class="cls-3" x="114" y="163.63" width="358" height="7"/><rect class="cls-3" x="114" y="216.63" width="358" height="7"/><path class="cls-3" d="M292.91,237.63h.19A30.91,30.91,0,0,1,324,268.54v37.09a0,0,0,0,1,0,0H262a0,0,0,0,1,0,0V268.54a30.91,30.91,0,0,1,30.91-30.91Z"/><path class="cls-4" d="M292.74,241.63h.51A25.74,25.74,0,0,1,319,267.38v38.26a0,0,0,0,1,0,0H267a0,0,0,0,1,0,0V267.38a25.74,25.74,0,0,1,25.74-25.74Z"/><path class="cls-3" d="M183.91,237.63h.19A30.91,30.91,0,0,1,215,268.54v37.09a0,0,0,0,1,0,0H153a0,0,0,0,1,0,0V268.54A30.91,30.91,0,0,1,183.91,237.63Z"/><path class="cls-4" d="M183.74,241.63h.51A25.74,25.74,0,0,1,210,267.38v38.26a0,0,0,0,1,0,0H158a0,0,0,0,1,0,0V267.38A25.74,25.74,0,0,1,183.74,241.63Z"/><path class="cls-3" d="M401.91,237.63h.19A30.91,30.91,0,0,1,433,268.54v37.09a0,0,0,0,1,0,0H371a0,0,0,0,1,0,0V268.54a30.91,30.91,0,0,1,30.91-30.91Z"/><path class="cls-4" d="M401.74,241.63h.51A25.74,25.74,0,0,1,428,267.38v38.26a0,0,0,0,1,0,0H376a0,0,0,0,1,0,0V267.38A25.74,25.74,0,0,1,401.74,241.63Z"/><path class="cls-5" d="M271.5,182.63h0a10.5,10.5,0,0,1,10.5,10.5v23.5a0,0,0,0,1,0,0H261a0,0,0,0,1,0,0v-23.5A10.5,10.5,0,0,1,271.5,182.63Z"/><path class="cls-5" d="M228.5,182.63h0a10.5,10.5,0,0,1,10.5,10.5v23.5a0,0,0,0,1,0,0H218a0,0,0,0,1,0,0v-23.5A10.5,10.5,0,0,1,228.5,182.63Z"/><path class="cls-5" d="M186.5,182.63h0a10.5,10.5,0,0,1,10.5,10.5v23.5a0,0,0,0,1,0,0H176a0,0,0,0,1,0,0v-23.5A10.5,10.5,0,0,1,186.5,182.63Z"/><path class="cls-5" d="M143.5,182.63h0a10.5,10.5,0,0,1,10.5,10.5v23.5a0,0,0,0,1,0,0H133a0,0,0,0,1,0,0v-23.5A10.5,10.5,0,0,1,143.5,182.63Z"/><path class="cls-5" d="M313.5,182.63h0a10.5,10.5,0,0,1,10.5,10.5v23.5a0,0,0,0,1,0,0H303a0,0,0,0,1,0,0v-23.5A10.5,10.5,0,0,1,313.5,182.63Z"/><path class="cls-5" d="M356.5,182.63h0a10.5,10.5,0,0,1,10.5,10.5v23.5a0,0,0,0,1,0,0H346a0,0,0,0,1,0,0v-23.5a10.5,10.5,0,0,1,10.5-10.5Z"/><path class="cls-5" d="M399.5,182.63h0a10.5,10.5,0,0,1,10.5,10.5v23.5a0,0,0,0,1,0,0H389a0,0,0,0,1,0,0v-23.5A10.5,10.5,0,0,1,399.5,182.63Z"/><path class="cls-5" d="M441.5,182.63h0a10.5,10.5,0,0,1,10.5,10.5v23.5a0,0,0,0,1,0,0H431a0,0,0,0,1,0,0v-23.5a10.5,10.5,0,0,1,10.5-10.5Z"/><polygon class="cls-6" points="572.98 251.63 459.29 251.63 452.19 305.63 580.08 305.63 572.98 251.63"/><polygon class="cls-7" points="550.43 222.63 482.55 222.63 459.67 251.63 573.3 251.63 550.43 222.63"/><polygon class="cls-5" points="137.05 252.63 20.13 252.63 13 305.63 144.18 305.63 137.05 252.63"/><polygon class="cls-7" points="113.44 224.63 43.56 224.63 20 252.63 137 252.63 113.44 224.63"/><polygon class="cls-8" points="94.61 305.63 57 305.63 76.3 277.33 79 263.76 82.5 278.87 94.61 305.63"/><path class="cls-9" d="M295,618.13a73.73,73.73,0,0,1-13.63,24.42A82.27,82.27,0,0,1,260.93,660h18.49a70.65,70.65,0,0,0,12.66-23.55A66.54,66.54,0,0,0,295,618.13Z" transform="translate(-216 -354.37)"/><path class="cls-9" d="M295,618.13a73.49,73.49,0,0,0,13.62,24.42A82.27,82.27,0,0,0,329.06,660H310.57a70.65,70.65,0,0,1-12.65-23.55A65.78,65.78,0,0,1,295,618.13Z" transform="translate(-216 -354.37)"/><polygon class="cls-8" points="498.06 305.63 543.32 305.63 520.09 271.57 516.84 255.25 512.62 273.43 498.06 305.63"/><path class="cls-7" d="M732.84,609.62A88.66,88.66,0,0,0,749.24,639a99.42,99.42,0,0,0,24.59,21H751.58a85,85,0,0,1-15.22-28.34A79.5,79.5,0,0,1,732.84,609.62Z" transform="translate(-216 -354.37)"/><path class="cls-7" d="M732.84,609.62A88.78,88.78,0,0,1,716.45,639a99.26,99.26,0,0,1-24.6,21H714.1a85.21,85.21,0,0,0,15.23-28.34A79.44,79.44,0,0,0,732.84,609.62Z" transform="translate(-216 -354.37)"/><path class="cls-10" d="M448.25,621.41c2.95-8.43,7.53-16.76,13-26.53,7.71-13.84,15-23.12,23.48-33.92a451.65,451.65,0,0,1,37.4-41.75c-7.84,4.77-14.07,5.45-18.26,5.22-9.24-.5-12.07-5.61-27.84-9.57-10.17-2.55-14-1.66-16.52,0-3.58,2.34-2.83,5-6.09,9.57-5.88,8.24-17.59,12.53-27.83,11.31a29.9,29.9,0,0,1-12.18-4.35l-3.48.87c-3-1.43-11.88-6.17-13.91-14.79-1.19-5-.1-11.62,0-12.17.59-3.5,1.36-4.74,1.74-8.7.46-4.88-.4-6.24,0-8.7,1-6,7.87-9.46,11.3-11.31a140.25,140.25,0,0,0,39.14-32.18A73.13,73.13,0,0,0,458.61,427a65.62,65.62,0,0,1,9.57-6.09,67.65,67.65,0,0,1,21.74-7l-3.48-13,20.88-5.22a55.82,55.82,0,0,0,.86-31.31,63.07,63.07,0,0,1,25.23,31.31,88.39,88.39,0,0,1,26.09,8.69c9.77,5.07,16.14,10.72,22.61,16.53,7.22,6.48,14,12.54,20,21.74,7.41,11.29,9.61,21,13.92,40,1.51,6.68.48,3.84,5.21,37.4,3.23,22.92,4.42,29.61,6.17,37.4,3.29,14.64,4.48,14.91,5.3,21.51a76.55,76.55,0,0,1-9.14,42.42c-13.93,25-69.41,37-132.36,14.79" transform="translate(-216 -354.37)"/><rect class="cls-7" y="305.63" width="594" height="9"/></svg>